<svg xmlns="http://www.w3.org/2000/svg" xmlns:xlink="http://www.w3.org/1999/xlink" width="320" zoomAndPan="magnify" viewBox="0 0 240 74.999997" height="100" preserveAspectRatio="xMidYMid meet" version="1.0"><defs><g/><clipPath id="0d91a92bca"><path d="M 12.308594 1.722656 L 227.792969 1.722656 L 227.792969 74.996094 L 12.308594 74.996094 Z M 12.308594 1.722656 " clip-rule="nonzero"/></clipPath><clipPath id="dc69073209"><path d="M 60 17.296875 L 68.546875 17.296875 L 68.546875 43 L 60 43 Z M 60 17.296875 " clip-rule="nonzero"/></clipPath><clipPath id="6f5d31e1df"><path d="M 52.222656 21 L 68 21 L 68 43 L 52.222656 43 Z M 52.222656 21 " clip-rule="nonzero"/></clipPath><clipPath id="2949029f0f"><path d="M 171.101562 17.296875 L 180 17.296875 L 180 43 L 171.101562 43 Z M 171.101562 17.296875 " clip-rule="nonzero"/></clipPath><clipPath id="358068796a"><path d="M 172 21 L 187.769531 21 L 187.769531 43 L 172 43 Z M 172 21 " clip-rule="nonzero"/></clipPath></defs><g clip-path="url(#0d91a92bca)"><path fill="#612e18" d="M 227.144531 51.527344 C 227.136719 51.253906 227.113281 50.976562 227.078125 50.691406 L 227.015625 50.183594 L 227.160156 49.691406 C 227.597656 48.199219 227.808594 46.464844 227.789062 44.539062 C 227.773438 42.605469 227.582031 40.441406 227.457031 39 C 227.417969 38.597656 227.386719 38.265625 227.371094 38.042969 C 227.3125 36.84375 227.082031 35.707031 226.679688 34.667969 L 226.488281 34.160156 L 226.546875 33.285156 C 227.796875 9.949219 224.035156 7.292969 220.851562 5.886719 C 218.375 4.800781 211.816406 1.722656 168.527344 1.722656 C 111.863281 1.722656 21.117188 5.609375 20.230469 5.640625 L 13.386719 9.0625 L 13.207031 12.734375 C 13.160156 13.429688 12.125 29.863281 12.335938 44.121094 C 12.355469 45.542969 12.621094 46.835938 13.121094 47.96875 L 13.425781 48.644531 L 12.851562 52.140625 C 12.738281 52.828125 12.597656 53.726562 12.429688 54.804688 C 12.304688 59.214844 14.566406 67.242188 15.183594 68.417969 L 17.65625 73.113281 L 22.925781 73.273438 C 23.460938 73.289062 80.152344 74.996094 131.644531 74.996094 C 196.976562 74.996094 212.039062 72.332031 217.691406 70.332031 C 221.523438 68.96875 225.292969 66.480469 227.140625 52.683594 L 227.1875 52.464844 C 227.171875 52.152344 227.164062 51.832031 227.144531 51.527344 " fill-opacity="1" fill-rule="nonzero"/></g><path fill="#8c5130" d="M 46.148438 45.789062 L 59.382812 50.476562 L 19.949219 47.65625 L 15.390625 49.542969 C 15.109375 51.273438 14.835938 53.042969 14.570312 54.835938 C 14.167969 55.925781 14.320312 59.085938 15.664062 63.164062 C 16.019531 64.230469 16.792969 66.292969 17.296875 67.21875 C 18.335938 69.148438 19.132812 70.703125 19.132812 70.703125 C 19.132812 70.703125 30.492188 71.0625 35.488281 71.148438 C 39.835938 71.21875 52.765625 71.675781 58.660156 71.613281 C 65.34375 71.535156 76.734375 71.972656 95.417969 72.230469 C 106.183594 72.378906 116.515625 72.480469 128.019531 72.535156 C 132.464844 72.554688 136.894531 72.507812 141.246094 72.460938 C 146.101562 72.414062 150.867188 72.363281 155.46875 72.402344 C 165.304688 72.488281 193.707031 71.417969 203.492188 70.421875 C 205.808594 70.1875 210.496094 69.558594 213.835938 68.820312 C 216.039062 68.335938 217.175781 67.953125 218.539062 67.222656 C 219.160156 66.894531 220.328125 65.960938 221.554688 63.976562 C 221.644531 63.878906 221.757812 63.457031 221.839844 63.320312 C 223.476562 60.515625 224.679688 52.742188 224.671875 52.496094 C 224.660156 52.285156 224.636719 51.210938 224.605469 50.992188 L 224.484375 49.976562 L 218.648438 45.949219 C 218.824219 45.347656 213.386719 45.710938 207.644531 46.078125 C 201.339844 46.480469 194.667969 46.878906 194.660156 46 C 194.644531 44.757812 207.085938 43.058594 211.890625 44.382812 C 215.011719 45.238281 224.738281 44.988281 224.863281 44.558594 C 224.984375 44.132812 224.941406 38.429688 224.886719 38.171875 C 224.335938 35.375 224.875 34.121094 223.28125 33.011719 C 221.472656 31.742188 219.335938 31.03125 217.761719 30.5 L 208.492188 29.898438 L 223.023438 27.964844 C 224.496094 4.722656 219.765625 7.351562 217.304688 6.265625 C 215.160156 5.324219 211.167969 3.5625 168.410156 3.5625 C 112.132812 3.5625 21.296875 6.347656 20.410156 6.386719 L 15.9375 9.015625 L 15.6875 12.894531 C 15.644531 13.585938 14.574219 28 14.785156 42.144531 C 14.785156 42.144531 42.15625 44.984375 46.148438 45.789062 " fill-opacity="1" fill-rule="nonzero"/><path fill="#f4a766" d="M 219.214844 51.609375 C 219.167969 49.230469 219.074219 47.949219 218.648438 45.949219 C 218.355469 44.554688 199.125 42.625 199.125 42.625 C 199.125 42.625 212.9375 43.109375 218.675781 41.550781 C 219.886719 41.21875 218.660156 32.679688 218.363281 31.089844 C 217.800781 28.027344 182.15625 28.199219 182.15625 28.199219 L 218.046875 26.257812 C 218.046875 26.257812 219.242188 7.175781 215.253906 5.40625 C 203.113281 0 20.410156 6.386719 20.410156 6.386719 C 20.410156 6.386719 18.050781 26.535156 19.546875 37.804688 C 19.703125 38.96875 64.75 43.316406 64.75 43.316406 L 19.949219 47.65625 C 19.949219 47.65625 19.515625 50.3125 18.925781 54.65625 C 18.917969 54.714844 18.910156 54.765625 18.902344 54.824219 C 18.910156 54.824219 18.96875 56.429688 18.921875 54.824219 C 18.886719 55.496094 19.113281 56.859375 19.21875 57.933594 C 19.429688 60.066406 20.617188 61.085938 20.617188 61.085938 C 20.617188 61.085938 194.878906 66.414062 216.8125 58.621094 C 217.875 58.242188 218.519531 55.707031 219.214844 52.605469 C 219.152344 52.613281 219.183594 52.359375 219.214844 52.105469 C 219.242188 51.855469 219.273438 51.601562 219.214844 51.609375 " fill-opacity="1" fill-rule="nonzero"/><path fill="#ffcc9c" d="M 20.410156 6.386719 C 20.410156 6.386719 19.460938 14.703125 19.164062 22.867188 C 18.902344 30.222656 19.273438 37.484375 19.546875 37.804688 C 20.582031 39.035156 64.75 43.316406 64.75 43.316406 C 64.75 43.316406 23.671875 37.917969 22.675781 36.503906 C 21.679688 35.09375 22.757812 6.300781 22.757812 6.300781 L 20.410156 6.386719 " fill-opacity="1" fill-rule="nonzero"/><path fill="#ffcc9c" d="M 22.757812 6.300781 L 22.6875 8.382812 C 22.6875 8.382812 29.0625 7.117188 33.542969 7.339844 C 35.351562 7.433594 35.960938 7.3125 36.753906 7.191406 C 37.921875 7.011719 39.480469 6.835938 45.855469 7.339844 C 51.761719 7.808594 57.738281 7.203125 62.164062 6.601562 C 65.761719 6.109375 68.328125 5.621094 69 5.703125 C 70.492188 5.890625 98.566406 6.378906 100.394531 6.101562 C 102.21875 5.828125 129.058594 3.589844 130.652344 3.5625 C 131.4375 3.550781 109.140625 3.886719 87.597656 4.398438 C 65.457031 4.921875 44.03125 5.621094 44.03125 5.621094 L 22.757812 6.300781 " fill-opacity="1" fill-rule="nonzero"/><path fill="#ffcc9c" d="M 219.210938 52.664062 L 219.214844 52.605469 L 219.210938 52.605469 C 219.132812 48.890625 218.9375 46.199219 218.535156 45.761719 C 217.222656 44.351562 199.125 42.625 199.125 42.625 C 199.125 42.625 215.179688 45.554688 216.863281 46.976562 C 217.726562 47.707031 217.707031 50.808594 217.601562 52.867188 C 216.972656 56.367188 215.34375 59.0625 215.34375 59.0625 C 215.34375 59.0625 216.527344 58.738281 216.8125 58.621094 C 217.042969 58.527344 217.40625 58.21875 217.40625 58.21875 C 217.40625 58.21875 218.269531 57.351562 218.796875 55.539062 C 218.988281 54.875 219.183594 53.925781 219.203125 52.78125 L 219.214844 52.78125 C 219.210938 52.742188 219.210938 52.703125 219.210938 52.664062 " fill-opacity="1" fill-rule="nonzero"/><path fill="#ffcc9c" d="M 216.730469 41.960938 C 216.730469 41.960938 217.726562 33.695312 216.058594 32.289062 C 214.390625 30.878906 182.15625 28.199219 182.15625 28.199219 C 182.15625 28.199219 210.675781 28.027344 217.261719 30.285156 C 217.835938 30.480469 218.328125 30.5 218.4375 31.554688 C 218.515625 32.316406 219.914062 41.136719 218.675781 41.550781 C 217.9375 41.796875 216.730469 41.960938 216.730469 41.960938 " fill-opacity="1" fill-rule="nonzero"/><path fill="#ffcc9c" d="M 20.617188 61.085938 C 21.167969 61.078125 19.984375 54.800781 20.535156 54.785156 C 21.113281 51.546875 22.074219 47.449219 23.460938 47.316406 C 22.410156 47.417969 19.949219 47.65625 19.949219 47.65625 C 19.949219 47.65625 19.363281 51.621094 18.902344 54.824219 C 18.867188 55.066406 19.203125 58.507812 19.3125 58.890625 C 19.421875 59.277344 19.804688 60.210938 20.617188 61.085938 " fill-opacity="1" fill-rule="nonzero"/><path fill="#582612" d="M 15.042969 61.085938 C 15.03125 61.039062 15.011719 60.925781 14.984375 60.789062 C 15.007812 60.886719 15.035156 60.984375 15.058594 61.082031 C 15.050781 61.085938 15.046875 61.085938 15.042969 61.085938 " fill-opacity="1" fill-rule="nonzero"/><path fill="#7f4325" d="M 15.058594 61.082031 C 15.035156 60.984375 15.007812 60.886719 14.984375 60.789062 C 14.9375 60.53125 14.875 60.199219 14.859375 60.101562 C 14.910156 59.992188 15.011719 59.890625 15.207031 59.808594 C 15.949219 59.492188 16.589844 59.179688 17.179688 58.871094 C 17.398438 58.839844 17.9375 58.601562 19.214844 58.277344 C 19.253906 58.582031 19.289062 58.808594 19.3125 58.890625 C 19.339844 58.996094 19.390625 59.140625 19.464844 59.3125 C 17.804688 59.84375 16.5 60.4375 15.84375 60.710938 C 15.492188 60.859375 15.230469 61.027344 15.058594 61.082031 " fill-opacity="1" fill-rule="nonzero"/><path fill="#de8b4e" d="M 20.675781 58.960938 C 20.644531 58.636719 20.613281 58.300781 20.578125 57.960938 C 22.066406 57.648438 24.171875 57.296875 27.140625 56.980469 C 34.019531 56.253906 46.460938 55.75 48.019531 55.480469 C 52.074219 54.777344 61.539062 51.703125 62.613281 51.597656 C 61.609375 51.84375 53.507812 55.503906 50.394531 56.339844 C 43.402344 58.230469 27.417969 58.167969 24.378906 58.34375 C 23.082031 58.421875 21.824219 58.660156 20.675781 58.960938 " fill-opacity="1" fill-rule="nonzero"/><path fill="#e8aa78" d="M 19.464844 59.3125 C 19.390625 59.140625 19.339844 58.996094 19.3125 58.890625 C 19.289062 58.808594 19.253906 58.582031 19.214844 58.277344 C 19.597656 58.179688 20.050781 58.070312 20.578125 57.960938 C 20.613281 58.300781 20.644531 58.636719 20.675781 58.960938 C 20.253906 59.070312 19.851562 59.191406 19.464844 59.3125 " fill-opacity="1" fill-rule="nonzero"/><path fill="#582612" d="M 114.507812 72.449219 C 113.082031 72.441406 111.65625 72.429688 110.234375 72.421875 C 110.15625 72.414062 110.082031 72.410156 110.003906 72.40625 C 111.5 72.417969 113.007812 72.433594 114.523438 72.445312 C 114.519531 72.449219 114.511719 72.449219 114.507812 72.449219 " fill-opacity="1" fill-rule="nonzero"/><path fill="#7f4325" d="M 114.523438 72.445312 C 113.007812 72.433594 111.5 72.417969 110.003906 72.40625 C 94.835938 71.394531 88.875 65.769531 79.179688 62.398438 C 80.171875 62.414062 81.175781 62.429688 82.183594 62.445312 C 93 66.339844 103.472656 71.203125 114.953125 72.308594 C 114.78125 72.363281 114.636719 72.414062 114.523438 72.445312 " fill-opacity="1" fill-rule="nonzero"/><path fill="#de8b4e" d="M 82.183594 62.445312 C 81.175781 62.429688 80.171875 62.414062 79.179688 62.398438 C 76.230469 61.375 72.941406 60.5625 68.941406 60.144531 C 64.222656 59.65625 58.832031 58.308594 54.097656 57.933594 C 59.695312 58.199219 65.285156 58.570312 70.859375 58.972656 C 74.710938 59.890625 78.46875 61.109375 82.183594 62.445312 " fill-opacity="1" fill-rule="nonzero"/><path fill="#582612" d="M 130.910156 72.546875 C 129.144531 72.546875 127.800781 72.542969 128.019531 72.535156 C 128.75 72.539062 129.484375 72.539062 130.210938 72.539062 C 132.855469 72.539062 135.488281 72.519531 138.097656 72.496094 C 138.066406 72.496094 138.03125 72.496094 137.996094 72.5 C 137.957031 72.5 137.910156 72.503906 137.867188 72.507812 C 137.117188 72.535156 133.546875 72.546875 130.910156 72.546875 " fill-opacity="1" fill-rule="nonzero"/><path fill="#7f4325" d="M 130.210938 72.539062 C 129.484375 72.539062 128.75 72.539062 128.019531 72.535156 C 128.167969 72.53125 128.328125 72.515625 128.480469 72.503906 C 137.089844 72.027344 150.675781 67.375 163.191406 62.621094 C 164.007812 62.605469 164.8125 62.589844 165.621094 62.574219 C 156.328125 66.890625 145.90625 72.09375 138.097656 72.496094 C 135.488281 72.519531 132.855469 72.539062 130.210938 72.539062 " fill-opacity="1" fill-rule="nonzero"/><path fill="#de8b4e" d="M 163.191406 62.621094 C 168.746094 60.507812 174.09375 58.375 178.695312 56.578125 C 179.554688 56.527344 180.417969 56.484375 181.28125 56.441406 C 179.996094 56.886719 178.703125 57.320312 177.402344 57.71875 C 173.964844 58.773438 169.914062 60.578125 165.621094 62.574219 C 164.8125 62.589844 164.007812 62.605469 163.191406 62.621094 " fill-opacity="1" fill-rule="nonzero"/><path fill="#de8b4e" d="M 37.367188 52.875 C 35.84375 52.875 34.398438 52.777344 33.0625 52.550781 C 33.023438 52.542969 32.976562 52.539062 32.933594 52.53125 C 31.726562 52.320312 23.175781 50.46875 23.28125 50.46875 C 23.28125 50.46875 23.289062 50.46875 23.304688 50.472656 C 23.449219 50.5 23.609375 50.519531 23.761719 50.542969 C 25.914062 50.882812 28.4375 51.035156 31.21875 51.035156 C 44.3125 51.035156 63.128906 47.714844 76.210938 45.621094 C 77.066406 45.757812 77.917969 45.894531 78.773438 46.03125 C 77.417969 46.195312 76.066406 46.34375 74.707031 46.457031 C 64.683594 47.304688 48.726562 52.875 37.367188 52.875 " fill-opacity="1" fill-rule="nonzero"/><path fill="#582612" d="M 115.503906 72.484375 C 115.007812 72.484375 114.621094 72.480469 114.457031 72.464844 C 114.472656 72.460938 114.492188 72.457031 114.507812 72.449219 C 114.511719 72.449219 114.519531 72.449219 114.523438 72.445312 C 115.558594 72.457031 116.597656 72.464844 117.644531 72.472656 C 117.5 72.472656 117.351562 72.472656 117.207031 72.472656 C 116.609375 72.480469 116.003906 72.484375 115.503906 72.484375 " fill-opacity="1" fill-rule="nonzero"/><path fill="#7f4325" d="M 119.757812 72.480469 C 119.613281 72.46875 119.289062 72.464844 118.871094 72.464844 C 118.515625 72.464844 118.089844 72.46875 117.644531 72.472656 C 116.597656 72.464844 115.558594 72.457031 114.523438 72.445312 C 114.636719 72.414062 114.78125 72.363281 114.953125 72.308594 C 116.453125 71.820312 119.882812 70.613281 120.773438 70.394531 C 124.71875 69.433594 129.824219 66.195312 135.308594 62.863281 C 136.542969 62.859375 137.78125 62.859375 139.007812 62.851562 C 132.589844 66.414062 125.667969 70.449219 119.757812 72.480469 " fill-opacity="1" fill-rule="nonzero"/><path fill="#de8b4e" d="M 135.308594 62.863281 C 141.636719 59.015625 148.472656 55.035156 154.640625 54.25 C 155.402344 54.152344 157.421875 54.121094 159.816406 54.121094 C 162.234375 54.121094 165.035156 54.152344 167.320312 54.1875 C 169.609375 54.21875 171.378906 54.253906 171.734375 54.253906 C 171.738281 54.253906 171.746094 54.253906 171.75 54.253906 C 170.925781 54.332031 157.457031 55.988281 155.308594 56.054688 C 151.40625 56.171875 145.460938 59.273438 139.007812 62.851562 C 137.78125 62.859375 136.542969 62.859375 135.308594 62.863281 M 171.75 54.253906 C 171.773438 54.25 171.785156 54.25 171.789062 54.25 C 171.789062 54.25 171.789062 54.25 171.792969 54.25 C 171.808594 54.253906 171.796875 54.253906 171.75 54.253906 " fill-opacity="1" fill-rule="nonzero"/><path fill="#582612" d="M 171.277344 72.15625 C 170.914062 72.15625 170.558594 72.152344 170.25 72.144531 C 171.433594 72.109375 172.640625 72.070312 173.867188 72.027344 C 173.265625 72.121094 172.226562 72.15625 171.277344 72.15625 " fill-opacity="1" fill-rule="nonzero"/><path fill="#7f4325" d="M 170.25 72.144531 C 170.054688 72.136719 169.878906 72.132812 169.722656 72.121094 C 169.253906 72.09375 169.015625 72.058594 169.238281 72.011719 C 173.621094 71.191406 182.308594 66.359375 190.585938 61.742188 C 191.355469 61.703125 192.109375 61.660156 192.855469 61.617188 C 186.109375 65.722656 177.445312 71.359375 173.972656 72.007812 L 173.96875 72.007812 C 173.9375 72.015625 173.902344 72.019531 173.867188 72.027344 C 172.640625 72.070312 171.433594 72.109375 170.25 72.144531 " fill-opacity="1" fill-rule="nonzero"/><path fill="#de8b4e" d="M 190.585938 61.742188 C 195.070312 59.238281 199.429688 56.800781 202.921875 55.101562 C 205.695312 54.796875 208.460938 54.414062 211.21875 54.03125 C 207.640625 55.074219 203.847656 56.261719 200.402344 57.496094 C 198.828125 58.0625 196.058594 59.667969 192.855469 61.617188 C 192.109375 61.660156 191.355469 61.703125 190.585938 61.742188 " fill-opacity="1" fill-rule="nonzero"/><path fill="#de8b4e" d="M 49.082031 16.648438 C 48.382812 16.648438 47.679688 16.636719 46.976562 16.609375 C 42.027344 16.414062 36.363281 15.058594 31.46875 14.242188 C 28.742188 13.792969 25.554688 12.613281 22.550781 12.566406 C 22.566406 12.109375 22.578125 11.664062 22.59375 11.242188 C 22.679688 11.242188 22.765625 11.238281 22.851562 11.238281 C 26.378906 11.238281 30.160156 12.636719 34.035156 13.058594 C 39.875 13.695312 45.925781 14.230469 51.949219 14.230469 C 57.324219 14.230469 62.683594 13.804688 67.84375 12.636719 C 73.996094 11.25 79.351562 7.90625 85.28125 6.085938 C 87.039062 6.113281 88.789062 6.132812 90.441406 6.152344 C 88.988281 6.484375 87.570312 6.898438 86.210938 7.433594 C 81.132812 9.425781 76.242188 11.960938 70.929688 13.3125 C 63.640625 15.167969 56.519531 16.648438 49.082031 16.648438 " fill-opacity="1" fill-rule="nonzero"/><path fill="#582612" d="M 15.460938 15.945312 C 15.5 15.363281 15.539062 14.855469 15.574219 14.429688 C 15.574219 14.425781 15.582031 14.421875 15.585938 14.417969 C 15.558594 14.839844 15.523438 15.347656 15.488281 15.925781 L 15.460938 15.945312 " fill-opacity="1" fill-rule="nonzero"/><path fill="#7f4325" d="M 15.488281 15.925781 C 15.523438 15.347656 15.558594 14.839844 15.585938 14.417969 C 16.949219 12.941406 18.390625 12.082031 19.890625 11.640625 C 19.851562 12.050781 19.816406 12.480469 19.777344 12.925781 C 18.601562 13.28125 17.492188 13.941406 16.496094 15.03125 L 15.488281 15.925781 " fill-opacity="1" fill-rule="nonzero"/><path fill="#de8b4e" d="M 19.777344 12.925781 C 19.816406 12.480469 19.851562 12.050781 19.890625 11.640625 C 19.855469 12.050781 19.816406 12.480469 19.78125 12.925781 C 19.78125 12.925781 19.777344 12.925781 19.777344 12.925781 " fill-opacity="1" fill-rule="nonzero"/><path fill="#582612" d="M 102.414062 4.074219 C 103.195312 4.035156 104 3.996094 104.832031 3.953125 C 105.542969 3.917969 106.675781 3.878906 107.398438 3.878906 C 107.960938 3.878906 108.269531 3.902344 107.9375 3.964844 C 106.148438 3.996094 104.300781 4.035156 102.414062 4.074219 " fill-opacity="1" fill-rule="nonzero"/><path fill="#e8aa78" d="M 19.78125 12.925781 C 19.816406 12.480469 19.855469 12.050781 19.890625 11.640625 C 20.773438 11.378906 21.671875 11.261719 22.59375 11.242188 C 22.578125 11.664062 22.566406 12.109375 22.550781 12.566406 C 22.496094 12.566406 22.4375 12.566406 22.378906 12.566406 C 21.492188 12.566406 20.621094 12.671875 19.78125 12.925781 " fill-opacity="1" fill-rule="nonzero"/><path fill="#e8aa78" d="M 90.441406 6.152344 C 88.789062 6.132812 87.039062 6.113281 85.28125 6.085938 C 86.085938 5.839844 86.898438 5.621094 87.726562 5.4375 C 89.925781 4.957031 92.109375 4.683594 94.421875 4.503906 C 96.878906 4.304688 99.476562 4.207031 102.414062 4.074219 C 104.300781 4.035156 106.148438 3.996094 107.9375 3.964844 C 107.910156 3.96875 107.875 3.972656 107.835938 3.976562 C 107.058594 4.089844 106.269531 4.191406 105.464844 4.28125 C 100.574219 4.839844 95.304688 5.035156 90.441406 6.152344 " fill-opacity="1" fill-rule="nonzero"/><path fill="#582612" d="M 150.90625 3.265625 C 149.980469 3.265625 149.375 3.257812 149.996094 3.234375 C 150.347656 3.21875 150.695312 3.214844 151.042969 3.214844 C 151.601562 3.214844 152.160156 3.230469 152.714844 3.257812 C 152.125 3.261719 151.457031 3.265625 150.90625 3.265625 " fill-opacity="1" fill-rule="nonzero"/><path fill="#582612" d="M 153.386719 3.296875 C 153.164062 3.28125 152.9375 3.265625 152.714844 3.257812 C 153.246094 3.246094 153.714844 3.242188 153.972656 3.234375 C 154.539062 3.210938 155.09375 3.203125 155.644531 3.203125 C 156.449219 3.203125 157.242188 3.222656 158.019531 3.265625 C 156.496094 3.273438 154.945312 3.285156 153.386719 3.296875 " fill-opacity="1" fill-rule="nonzero"/><path fill="#7f4325" d="M 223.257812 17.582031 C 221.71875 16.246094 219.949219 15.398438 218.058594 14.859375 C 218.027344 14.335938 217.984375 13.816406 217.941406 13.304688 C 219.710938 13.734375 221.191406 14.550781 223.191406 16.226562 C 223.21875 16.65625 223.242188 17.109375 223.257812 17.582031 " fill-opacity="1" fill-rule="nonzero"/><path fill="#de8b4e" d="M 218.058594 14.859375 C 214 13.699219 209.378906 13.941406 205.246094 13.742188 C 199.78125 13.472656 194.011719 13.910156 188.601562 13.078125 C 177.648438 11.390625 167.246094 5.191406 156.171875 3.601562 C 155.25 3.472656 154.320312 3.363281 153.386719 3.296875 C 154.945312 3.285156 156.496094 3.273438 158.019531 3.265625 C 159.210938 3.328125 160.371094 3.433594 161.511719 3.578125 C 172.535156 4.949219 181.472656 9.75 193.351562 11.027344 C 199.792969 11.722656 206.242188 12.535156 212.71875 12.785156 C 214.921875 12.867188 216.523438 12.964844 217.941406 13.304688 C 217.984375 13.816406 218.027344 14.335938 218.058594 14.859375 " fill-opacity="1" fill-rule="nonzero"/><path fill="#de8b4e" d="M 151.75 16.191406 C 149.183594 16.191406 146.53125 15.980469 143.90625 15.769531 C 141.28125 15.558594 138.679688 15.34375 136.222656 15.34375 C 135.996094 15.34375 135.773438 15.347656 135.554688 15.351562 C 129.234375 15.457031 122.921875 15.949219 116.601562 15.949219 C 115.699219 15.949219 114.796875 15.941406 113.894531 15.917969 C 108.515625 15.78125 105.171875 15.207031 100.601562 12.359375 C 100.425781 12.246094 98.867188 11.394531 98.917969 11.269531 C 98.886719 11.117188 100.558594 10.921875 101.003906 10.769531 C 111.058594 7.351562 121.984375 6.703125 132.53125 6.191406 C 133.667969 6.132812 134.796875 6.105469 135.921875 6.105469 C 140.113281 6.105469 144.21875 6.527344 148.339844 7.617188 C 154.066406 9.144531 160.042969 9.027344 165.757812 10.605469 C 166.273438 10.746094 166.078125 11.03125 165.757812 11.378906 C 162.175781 15.25 157.152344 16.191406 151.75 16.191406 M 136.066406 7.089844 C 135.777344 7.089844 135.488281 7.097656 135.195312 7.105469 C 124.507812 7.457031 113.503906 8.097656 103.253906 11.359375 C 107.605469 13.953125 110.976562 14.878906 116.378906 14.878906 C 116.421875 14.878906 116.460938 14.878906 116.503906 14.878906 C 121.417969 14.871094 126.3125 14.652344 131.222656 14.457031 C 132.179688 14.417969 133.148438 14.402344 134.128906 14.402344 C 136.109375 14.402344 138.132812 14.464844 140.167969 14.527344 C 142.207031 14.589844 144.257812 14.652344 146.296875 14.652344 C 150.945312 14.652344 155.542969 14.328125 159.796875 12.941406 C 165.703125 11.015625 160.648438 10.632812 157.722656 10.320312 C 155.371094 10.066406 152.960938 9.917969 150.636719 9.449219 C 145.757812 8.464844 141.082031 7.089844 136.066406 7.089844 " fill-opacity="1" fill-rule="nonzero"/><path fill="#582612" d="M 14.992188 24.8125 C 15.011719 24.296875 15.035156 23.792969 15.050781 23.308594 C 15.070312 23.285156 15.089844 23.257812 15.109375 23.234375 C 15.085938 23.730469 15.066406 24.242188 15.046875 24.761719 L 14.992188 24.8125 " fill-opacity="1" fill-rule="nonzero"/><path fill="#7f4325" d="M 15.046875 24.761719 C 15.066406 24.242188 15.085938 23.730469 15.109375 23.234375 C 16.070312 21.972656 17.601562 21.25 19.25 20.839844 C 19.238281 21.101562 19.226562 21.363281 19.214844 21.625 C 18.117188 22.027344 17.105469 22.65625 16.277344 23.628906 L 15.046875 24.761719 M 223.203125 24.511719 C 221.703125 23.4375 219.988281 22.699219 218.191406 22.167969 C 218.199219 21.773438 218.207031 21.359375 218.210938 20.925781 C 220.007812 21.492188 221.710938 22.234375 223.25 23.222656 C 223.238281 23.640625 223.222656 24.070312 223.203125 24.511719 " fill-opacity="1" fill-rule="nonzero"/><path fill="#de8b4e" d="M 143.449219 22.683594 C 135.472656 22.683594 127.484375 22.042969 119.765625 20.984375 C 111.609375 19.871094 103.070312 16.746094 94.8125 16.746094 C 94.644531 16.746094 94.472656 16.746094 94.304688 16.75 C 84.519531 16.898438 74.886719 20.578125 65.144531 21.167969 C 63.410156 21.273438 61.683594 21.3125 59.957031 21.3125 C 56.785156 21.3125 53.617188 21.175781 50.449219 21.039062 C 47.28125 20.898438 44.113281 20.761719 40.941406 20.761719 C 39.742188 20.761719 38.546875 20.78125 37.347656 20.828125 C 34.5625 20.9375 31.839844 21.085938 29.082031 21.085938 C 28.425781 21.085938 27.765625 21.078125 27.105469 21.058594 C 26.140625 21.03125 25.023438 20.957031 23.855469 20.957031 C 23.355469 20.957031 22.851562 20.96875 22.339844 21.007812 C 22.34375 20.792969 22.347656 20.582031 22.351562 20.375 C 22.933594 20.332031 23.492188 20.308594 24.011719 20.296875 C 32.160156 20.105469 40.332031 19.988281 48.484375 19.898438 C 60.691406 19.757812 72.441406 18.570312 84.527344 17.003906 C 87.648438 16.597656 90.546875 16.40625 93.371094 16.40625 C 98.683594 16.40625 103.730469 17.082031 109.496094 18.273438 C 119.828125 20.40625 130.425781 21.632812 140.988281 21.632812 C 141.546875 21.632812 142.105469 21.628906 142.664062 21.621094 C 153.832031 21.484375 164.1875 18.1875 175.125 16.40625 C 177.222656 16.066406 179.34375 15.921875 181.476562 15.921875 C 188.113281 15.921875 194.863281 17.289062 201.351562 18.265625 C 206.617188 19.058594 212.839844 19.230469 218.210938 20.925781 C 218.207031 21.359375 218.199219 21.773438 218.191406 22.167969 C 215.914062 21.488281 213.5 21.136719 211.210938 20.824219 C 206.8125 20.21875 202.460938 19.320312 198.058594 18.734375 C 194.371094 18.25 190.878906 18.015625 187.4375 18.015625 C 181.34375 18.015625 175.425781 18.753906 168.96875 20.148438 C 160.710938 21.933594 152.085938 22.683594 143.449219 22.683594 " fill-opacity="1" fill-rule="nonzero"/><path fill="#e8aa78" d="M 19.214844 21.625 C 19.226562 21.363281 19.238281 21.101562 19.25 20.839844 C 20.273438 20.582031 21.34375 20.449219 22.351562 20.375 C 22.347656 20.582031 22.34375 20.792969 22.339844 21.007812 C 21.277344 21.082031 20.210938 21.261719 19.214844 21.625 " fill-opacity="1" fill-rule="nonzero"/><path fill="#de8b4e" d="M 126.363281 13.078125 C 122.25 13.078125 117.382812 12.886719 114.640625 11.585938 C 113.875 11.222656 117.347656 11.101562 117.597656 11.050781 C 122.367188 10.164062 127.300781 9.949219 132.253906 9.949219 C 134.582031 9.949219 136.917969 9.996094 139.242188 10.042969 C 141.570312 10.089844 143.886719 10.136719 146.179688 10.136719 C 147.042969 10.136719 147.898438 10.132812 148.753906 10.113281 L 148.765625 10.113281 C 148.785156 10.113281 148.800781 10.113281 148.820312 10.113281 C 148.882812 10.113281 148.945312 10.117188 148.996094 10.128906 C 149.371094 10.179688 152.527344 10.585938 152.328125 10.804688 C 152.160156 11.042969 148.636719 11.078125 148.238281 11.144531 C 145.160156 11.648438 142.292969 13.019531 139.152344 13.019531 C 139.050781 13.019531 138.945312 13.019531 138.84375 13.015625 C 138.175781 12.996094 137.507812 12.988281 136.839844 12.988281 C 135.910156 12.988281 134.980469 13.003906 134.046875 13.015625 C 133.117188 13.03125 132.1875 13.046875 131.253906 13.046875 C 131.175781 13.046875 131.09375 13.046875 131.015625 13.042969 C 130.96875 13.042969 130.917969 13.042969 130.867188 13.042969 C 130.25 13.042969 129.546875 13.050781 128.789062 13.0625 C 128.027344 13.070312 127.210938 13.078125 126.363281 13.078125 M 131.734375 10.992188 C 127.71875 10.992188 123.71875 11.136719 119.8125 11.675781 C 121.460938 12.113281 123.402344 12.238281 125.367188 12.238281 C 127.917969 12.238281 130.5 12.023438 132.511719 11.996094 L 139.605469 11.96875 C 139.660156 11.96875 139.714844 11.96875 139.769531 11.96875 C 141.328125 11.96875 142.835938 11.597656 144.34375 11.179688 C 140.183594 11.152344 135.949219 10.992188 131.734375 10.992188 " fill-opacity="1" fill-rule="nonzero"/><path fill="#de8b4e" d="M 100.289062 54.84375 C 96.171875 54.84375 91.292969 54.652344 88.546875 53.351562 C 87.78125 52.988281 91.253906 52.863281 91.507812 52.820312 C 96.28125 51.929688 101.21875 51.710938 106.179688 51.710938 C 108.503906 51.710938 110.832031 51.761719 113.152344 51.808594 C 115.472656 51.855469 117.785156 51.902344 120.070312 51.902344 C 120.9375 51.902344 121.804688 51.894531 122.664062 51.878906 L 122.671875 51.878906 C 122.691406 51.878906 122.710938 51.878906 122.726562 51.878906 C 122.792969 51.878906 122.851562 51.882812 122.902344 51.890625 C 123.277344 51.941406 126.433594 52.355469 126.234375 52.566406 C 126.070312 52.808594 122.542969 52.84375 122.144531 52.910156 C 119.070312 53.414062 116.207031 54.785156 113.066406 54.785156 C 112.960938 54.785156 112.859375 54.785156 112.753906 54.78125 C 112.085938 54.761719 111.421875 54.753906 110.757812 54.753906 C 109.820312 54.753906 108.886719 54.769531 107.949219 54.785156 C 107.011719 54.796875 106.074219 54.8125 105.136719 54.8125 C 105.066406 54.8125 104.992188 54.8125 104.921875 54.8125 C 104.878906 54.8125 104.839844 54.8125 104.792969 54.8125 C 104.175781 54.8125 103.472656 54.820312 102.714844 54.828125 C 101.953125 54.835938 101.136719 54.84375 100.289062 54.84375 M 105.644531 52.757812 C 101.628906 52.757812 97.625 52.902344 93.71875 53.4375 C 95.371094 53.878906 97.316406 54.007812 99.28125 54.007812 C 101.832031 54.007812 104.414062 53.789062 106.417969 53.765625 L 113.511719 53.730469 C 113.566406 53.734375 113.621094 53.734375 113.679688 53.734375 C 115.238281 53.734375 116.746094 53.363281 118.25 52.941406 C 114.09375 52.914062 109.859375 52.757812 105.644531 52.757812 " fill-opacity="1" fill-rule="nonzero"/><path fill="#582612" d="M 224.160156 55.816406 C 224.144531 55.808594 224.132812 55.800781 224.113281 55.789062 C 224.355469 54.578125 224.527344 53.546875 224.609375 52.972656 C 224.628906 53.011719 224.632812 53.039062 224.625 53.066406 C 224.542969 53.550781 224.246094 55.363281 224.160156 55.816406 " fill-opacity="1" fill-rule="nonzero"/><path fill="#7f4325" d="M 224.113281 55.789062 C 223.113281 55.199219 222.15625 53.144531 221.03125 52.679688 C 220.4375 52.464844 219.828125 52.28125 219.210938 52.121094 C 219.210938 52.117188 219.214844 52.109375 219.214844 52.105469 C 219.242188 51.855469 219.273438 51.609375 219.21875 51.609375 C 219.214844 51.609375 219.214844 51.609375 219.214844 51.609375 C 219.210938 51.417969 219.207031 51.238281 219.203125 51.0625 C 220.929688 51.367188 222.605469 51.839844 224.1875 52.542969 C 224.386719 52.695312 224.558594 52.859375 224.609375 52.972656 C 224.527344 53.546875 224.355469 54.578125 224.113281 55.789062 M 224.1875 52.542969 C 223.925781 52.550781 223.863281 52.5625 223.914062 52.5625 C 223.953125 52.5625 224.054688 52.554688 224.1875 52.542969 " fill-opacity="1" fill-rule="nonzero"/><path fill="#de8b4e" d="M 193.871094 52.277344 C 193.429688 52.277344 192.988281 52.269531 192.554688 52.257812 C 187.597656 52.089844 182.648438 51.53125 178.042969 49.585938 C 173.804688 47.789062 169.789062 45.480469 165.519531 43.769531 C 156.382812 40.105469 146.582031 38.113281 136.871094 36.753906 C 130.414062 35.847656 123.390625 34.796875 118.734375 29.800781 C 118.359375 29.398438 119.609375 29.078125 119.796875 29.039062 C 129.921875 26.925781 140.601562 27.667969 150.875 26.574219 C 153.730469 26.269531 156.667969 25.980469 159.582031 25.980469 C 160.910156 25.980469 162.234375 26.039062 163.542969 26.1875 C 168.136719 26.699219 172.277344 28.269531 176.632812 29.742188 C 185.8125 32.832031 194.464844 33.378906 204.027344 33.707031 C 207.988281 33.847656 212.570312 33.800781 216.882812 34.511719 C 216.941406 34.9375 216.976562 35.398438 217 35.875 C 214.644531 35.511719 212.164062 35.410156 209.691406 35.410156 C 208.125 35.410156 206.570312 35.449219 205.050781 35.492188 C 203.535156 35.53125 202.058594 35.574219 200.660156 35.574219 C 200.097656 35.574219 199.550781 35.566406 199.015625 35.550781 C 191.484375 35.335938 183.804688 33.492188 176.617188 31.070312 C 171.976562 29.511719 167.261719 27.382812 162.324219 27.070312 C 161.207031 26.996094 160.097656 26.964844 158.992188 26.964844 C 154.46875 26.964844 150.003906 27.496094 145.484375 27.964844 C 137.351562 28.820312 132.566406 29.085938 124.503906 30.484375 C 130.246094 36.136719 135.496094 35.335938 143.019531 36.550781 C 152.203125 38.035156 161.816406 40.320312 170.21875 44.371094 C 175.417969 46.882812 180.648438 49.882812 186.445312 50.730469 C 189.464844 51.175781 192.476562 51.335938 195.496094 51.335938 C 197.847656 51.335938 200.207031 51.238281 202.574219 51.101562 C 205.8125 50.90625 209.328125 50.570312 212.832031 50.570312 C 214.453125 50.570312 216.070312 50.640625 217.652344 50.832031 C 217.65625 51.152344 217.652344 51.46875 217.644531 51.777344 C 215.605469 51.398438 213.480469 51.257812 211.316406 51.257812 C 208.382812 51.257812 205.378906 51.515625 202.433594 51.769531 C 199.484375 52.023438 196.589844 52.277344 193.871094 52.277344 M 219.210938 52.121094 C 219.207031 52.121094 219.203125 52.121094 219.199219 52.121094 C 219.191406 51.753906 219.179688 51.398438 219.167969 51.058594 C 219.179688 51.058594 219.191406 51.0625 219.203125 51.0625 C 219.207031 51.238281 219.210938 51.417969 219.214844 51.609375 C 219.214844 51.609375 219.214844 51.609375 219.21875 51.609375 C 219.273438 51.609375 219.242188 51.855469 219.214844 52.105469 C 219.214844 52.109375 219.210938 52.117188 219.210938 52.121094 " fill-opacity="1" fill-rule="nonzero"/><path fill="#582612" d="M 224.914062 38.78125 C 224.914062 38.753906 224.914062 38.726562 224.914062 38.699219 C 224.914062 38.726562 224.914062 38.753906 224.914062 38.78125 M 224.886719 38.171875 C 224.816406 37.800781 224.761719 37.457031 224.71875 37.136719 C 224.761719 37.457031 224.816406 37.800781 224.886719 38.171875 " fill-opacity="1" fill-rule="nonzero"/><path fill="#7f4325" d="M 224.914062 38.78125 C 223.199219 37.570312 221.199219 36.78125 219.039062 36.269531 C 218.996094 35.8125 218.949219 35.355469 218.898438 34.910156 C 220.976562 35.394531 222.953125 36.097656 224.71875 37.136719 C 224.761719 37.457031 224.816406 37.800781 224.886719 38.171875 C 224.898438 38.210938 224.90625 38.40625 224.914062 38.699219 C 224.914062 38.726562 224.914062 38.753906 224.914062 38.78125 " fill-opacity="1" fill-rule="nonzero"/><path fill="#de8b4e" d="M 219.039062 36.269531 C 219.03125 36.269531 219.023438 36.265625 219.011719 36.265625 C 218.96875 35.800781 218.917969 35.34375 218.871094 34.902344 C 218.878906 34.90625 218.890625 34.910156 218.898438 34.910156 C 218.949219 35.355469 218.996094 35.8125 219.039062 36.269531 " fill-opacity="1" fill-rule="nonzero"/><path fill="#e8aa78" d="M 219.199219 52.121094 C 218.6875 51.988281 218.167969 51.875 217.644531 51.777344 C 217.652344 51.46875 217.65625 51.152344 217.652344 50.832031 C 218.160156 50.894531 218.667969 50.96875 219.167969 51.058594 C 219.179688 51.398438 219.191406 51.753906 219.199219 52.121094 " fill-opacity="1" fill-rule="nonzero"/><path fill="#e8aa78" d="M 219.011719 36.265625 C 218.355469 36.109375 217.683594 35.980469 217 35.875 C 216.976562 35.398438 216.941406 34.9375 216.882812 34.511719 C 217.554688 34.625 218.214844 34.753906 218.871094 34.902344 C 218.917969 35.34375 218.96875 35.800781 219.011719 36.265625 " fill-opacity="1" fill-rule="nonzero"/><path fill="#de8b4e" d="M 213.238281 47.554688 C 213.234375 47.554688 213.230469 47.554688 213.226562 47.554688 C 205.898438 47.246094 192.1875 46.941406 185.050781 45.070312 C 180.957031 43.992188 177.9375 41.570312 174.214844 39.726562 C 171.097656 38.179688 167.503906 37.285156 165.007812 34.753906 C 164.667969 34.410156 163.769531 33.035156 163.980469 33.035156 C 163.984375 33.035156 163.988281 33.035156 163.988281 33.035156 C 173.582031 34.242188 185.078125 39.496094 194.941406 39.496094 C 195.109375 39.496094 195.28125 39.496094 195.445312 39.492188 C 195.453125 39.492188 195.457031 39.492188 195.464844 39.492188 C 196.398438 39.492188 199.777344 40.992188 199.40625 41.003906 C 199.226562 41.007812 199.046875 41.007812 198.863281 41.007812 C 189.875 41.007812 176.785156 36.953125 168.285156 35.304688 C 170.664062 36.9375 173.527344 37.566406 176.03125 39.089844 C 179.832031 41.394531 183.335938 43.765625 187.792969 44.617188 C 194.640625 45.929688 201.203125 46.488281 208.15625 46.777344 C 209.074219 46.816406 213.503906 47.554688 213.238281 47.554688 " fill-opacity="1" fill-rule="nonzero"/><path fill="#de8b4e" d="M 174.097656 51.886719 C 172.285156 51.886719 164.898438 51.136719 163.691406 50.53125 C 155.84375 46.621094 148.355469 47.695312 141.320312 46.175781 C 135.621094 44.945312 129.773438 43.328125 124.421875 40.984375 C 119.339844 38.757812 114.820312 35.847656 110.246094 32.738281 C 104.074219 28.550781 98.394531 26.75 91.152344 26.75 C 90.527344 26.75 89.890625 26.765625 89.246094 26.792969 C 74.558594 27.386719 59.84375 28.394531 45.195312 29.582031 C 41.34375 29.898438 37.691406 30.238281 33.910156 30.238281 C 33.179688 30.238281 32.449219 30.226562 31.710938 30.195312 C 30.105469 30.136719 28.3125 30.027344 26.480469 30.027344 C 25.070312 30.027344 23.636719 30.09375 22.257812 30.300781 C 22.253906 29.820312 22.253906 29.320312 22.253906 28.804688 C 23.542969 28.621094 24.871094 28.554688 26.222656 28.554688 C 28.109375 28.554688 30.03125 28.6875 31.921875 28.816406 C 33.8125 28.949219 35.667969 29.082031 37.425781 29.082031 C 38.167969 29.082031 38.898438 29.058594 39.597656 29 C 55.539062 27.703125 71.550781 26.101562 87.527344 25.460938 C 90.617188 25.332031 93.910156 24.882812 97.121094 24.882812 C 100.011719 24.882812 102.839844 25.246094 105.390625 26.535156 C 110.9375 29.339844 115.421875 34.632812 120.9375 37.5 C 128.394531 41.371094 136.972656 44.128906 145.285156 45.355469 C 151.429688 46.257812 165.046875 48.183594 170.925781 50.300781 L 174.410156 51.78125 C 174.605469 51.855469 174.464844 51.886719 174.097656 51.886719 " fill-opacity="1" fill-rule="nonzero"/><path fill="#582612" d="M 14.785156 33.453125 C 14.792969 33.148438 14.792969 32.375 14.800781 32.078125 L 14.824219 32.046875 C 14.816406 32.511719 14.808594 32.976562 14.800781 33.449219 C 14.796875 33.449219 14.792969 33.449219 14.785156 33.453125 " fill-opacity="1" fill-rule="nonzero"/><path fill="#7f4325" d="M 14.800781 33.449219 C 14.808594 32.976562 14.816406 32.511719 14.824219 32.046875 L 14.851562 32.019531 C 16.113281 30.878906 17.53125 30.09375 19.054688 29.558594 C 19.058594 30.082031 19.066406 30.605469 19.078125 31.117188 C 17.992188 31.539062 16.992188 32.117188 16.128906 32.898438 C 15.742188 33.246094 15.5625 33.207031 14.800781 33.449219 " fill-opacity="1" fill-rule="nonzero"/><path fill="#de8b4e" d="M 19.078125 31.117188 C 19.066406 30.605469 19.058594 30.082031 19.054688 29.558594 C 19.0625 29.558594 19.070312 29.554688 19.082031 29.550781 C 19.085938 30.085938 19.09375 30.605469 19.105469 31.105469 C 19.097656 31.109375 19.085938 31.113281 19.078125 31.117188 " fill-opacity="1" fill-rule="nonzero"/><path fill="#e8aa78" d="M 19.105469 31.105469 C 19.09375 30.605469 19.085938 30.085938 19.082031 29.550781 C 20.097656 29.199219 21.160156 28.960938 22.253906 28.804688 C 22.253906 29.320312 22.253906 29.820312 22.257812 30.300781 C 21.160156 30.46875 20.097656 30.722656 19.105469 31.105469 " fill-opacity="1" fill-rule="nonzero"/><path fill="#de8b4e" d="M 92.773438 42.863281 C 88.460938 42.863281 84.140625 42.636719 79.769531 42.082031 C 67.789062 40.5625 55.890625 38.398438 44.191406 35.394531 C 43.785156 35.292969 44.277344 35.007812 44.4375 34.9375 C 52.777344 31.484375 65.753906 31.015625 74.601562 30.824219 C 75.613281 30.804688 76.609375 30.792969 77.589844 30.792969 C 88.582031 30.792969 97.574219 32.289062 107.605469 38.550781 C 109.324219 39.34375 111 40.078125 112.585938 41.078125 C 112.9375 41.304688 111.378906 41.746094 111.246094 41.757812 C 105.023438 42.402344 98.90625 42.863281 92.773438 42.863281 M 78.347656 32.625 C 78.152344 32.625 77.957031 32.625 77.757812 32.625 C 68.980469 32.671875 60.078125 32.789062 51.363281 33.9375 C 50.53125 34.046875 45.203125 34.554688 47.492188 35.121094 C 50.941406 35.976562 54.402344 36.785156 57.882812 37.488281 C 63.835938 38.695312 69.816406 39.765625 75.828125 40.621094 C 82.320312 41.546875 88.609375 41.964844 94.929688 41.964844 C 99.878906 41.964844 104.847656 41.707031 109.945312 41.238281 C 108.613281 40.476562 107.21875 39.847656 105.789062 39.1875 C 97.257812 33.863281 88.121094 32.625 78.347656 32.625 " fill-opacity="1" fill-rule="nonzero"/><path fill="#de8b4e" d="M 98.855469 39.992188 C 89.273438 39.992188 75.152344 37.847656 66.957031 36.042969 C 66.726562 36.027344 66.621094 35.960938 66.601562 35.875 C 66.457031 35.675781 66.839844 35.386719 67.277344 35.203125 C 67.492188 35.09375 67.714844 35.027344 67.886719 35.023438 C 71.417969 34.988281 75.191406 34.777344 79.003906 34.777344 C 85.269531 34.777344 91.640625 35.34375 97.210938 38.164062 C 98.023438 38.578125 102.199219 39.886719 101.90625 39.90625 C 100.957031 39.964844 99.9375 39.992188 98.855469 39.992188 M 76.242188 35.898438 C 74.90625 35.898438 73.578125 35.921875 72.265625 35.949219 C 78.105469 37.191406 84.097656 38.917969 90.167969 38.917969 C 91.273438 38.917969 92.382812 38.863281 93.496094 38.730469 C 88.269531 36.347656 82.199219 35.898438 76.242188 35.898438 " fill-opacity="1" fill-rule="nonzero"/><path fill="#de8b4e" d="M 72.773438 51.597656 C 83.128906 49.71875 93.449219 46.683594 103.960938 46.621094 C 104.078125 46.621094 104.199219 46.621094 104.316406 46.621094 C 114.75 46.621094 125.308594 49.226562 135.738281 49.28125 C 137.039062 49.285156 146.214844 50.476562 145.144531 50.476562 C 145.144531 50.476562 145.140625 50.476562 145.140625 50.476562 C 135.53125 50.429688 116.976562 49.664062 106.796875 49.664062 C 106.464844 49.664062 106.132812 49.664062 105.816406 49.667969 C 99.027344 49.707031 92.308594 50.347656 85.605469 51.214844 C 81.328125 51.304688 77.050781 51.429688 72.773438 51.597656 " fill-opacity="1" fill-rule="nonzero"/><path fill="#de8b4e" d="M 92.515625 58.816406 C 92.398438 58.816406 92.28125 58.816406 92.160156 58.816406 C 81.648438 58.785156 71.328125 57.097656 60.972656 56.054688 C 65.25 56.144531 69.527344 56.214844 73.804688 56.265625 C 80.507812 56.746094 87.226562 57.105469 94.019531 57.125 C 94.359375 57.125 94.710938 57.128906 95.074219 57.128906 C 105.269531 57.128906 123.753906 56.703125 133.339844 56.675781 C 133.34375 56.675781 133.34375 56.675781 133.347656 56.675781 C 134.417969 56.675781 125.242188 57.339844 123.941406 57.339844 C 113.507812 57.371094 102.949219 58.816406 92.515625 58.816406 " fill-opacity="1" fill-rule="nonzero"/><path fill="#612e18" d="M 152.609375 14.496094 L 161.371094 13.082031 L 171.0625 13.40625 L 178.410156 12.996094 L 195.40625 13.980469 L 178.839844 14.785156 L 166.152344 14.339844 L 152.609375 14.496094 " fill-opacity="1" fill-rule="nonzero"/><path fill="#ffcc9c" d="M 152.609375 14.496094 L 159.6875 11.640625 L 164.683594 11.90625 L 171.933594 12.113281 L 177.574219 11.363281 L 183.164062 12.144531 L 190.632812 12.328125 L 195.40625 13.980469 L 178.410156 12.996094 L 171.0625 13.40625 L 161.367188 13.089844 L 152.609375 14.496094 " fill-opacity="1" fill-rule="nonzero"/><path fill="#612e18" d="M 18.320312 17 L 22.890625 15.683594 L 27.769531 16.453125 L 31.53125 16.265625 L 40.058594 18.109375 L 31.585938 18.386719 L 25.199219 17.355469 L 18.320312 17 " fill-opacity="1" fill-rule="nonzero"/><path fill="#ffcc9c" d="M 18.320312 17 L 22.171875 13.921875 L 24.679688 14.4375 L 28.332031 14.96875 L 31.261719 14.316406 L 34.019531 15.453125 L 37.789062 15.972656 L 40.058594 18.109375 L 31.53125 16.265625 L 27.769531 16.453125 L 22.886719 15.691406 L 18.320312 17 " fill-opacity="1" fill-rule="nonzero"/><g fill="#612e18" fill-opacity="1"><g transform="translate(68.039845, 34.540973)"><g><path d="M 12.296875 0 L 8.25 0 L 7.890625 -2.125 L 7.875 -2.1875 L 5.921875 -2.234375 L 4.28125 -2.15625 L 3.9375 0 L 0.046875 0 L 3.9375 -12.890625 L 8.765625 -12.890625 Z M 7.265625 -5.09375 L 6.390625 -9.328125 L 6.15625 -9.328125 L 5.046875 -5.09375 L 6.15625 -5.078125 Z M 7.265625 -5.09375 "/></g></g></g><g fill="#612e18" fill-opacity="1"><g transform="translate(80.534185, 34.540973)"><g><path d="M 7.015625 -13.109375 C 8.148438 -13.109375 9.222656 -12.929688 10.234375 -12.578125 L 9.5625 -9.40625 L 9.296875 -9.25 C 8.953125 -9.425781 8.554688 -9.570312 8.109375 -9.6875 C 7.660156 -9.800781 7.242188 -9.859375 6.859375 -9.859375 C 6.046875 -9.859375 5.457031 -9.625 5.09375 -9.15625 C 4.738281 -8.6875 4.5625 -7.898438 4.5625 -6.796875 C 4.5625 -5.503906 4.765625 -4.5625 5.171875 -3.96875 C 5.585938 -3.382812 6.234375 -3.09375 7.109375 -3.09375 C 7.484375 -3.09375 7.898438 -3.128906 8.359375 -3.203125 C 8.816406 -3.273438 9.21875 -3.375 9.5625 -3.5 L 9.875 -3.3125 L 9.5625 -0.15625 C 8.757812 0.09375 7.835938 0.21875 6.796875 0.21875 C 4.648438 0.21875 3.035156 -0.335938 1.953125 -1.453125 C 0.878906 -2.566406 0.34375 -4.191406 0.34375 -6.328125 C 0.34375 -8.484375 0.921875 -10.148438 2.078125 -11.328125 C 3.242188 -12.515625 4.890625 -13.109375 7.015625 -13.109375 Z M 7.015625 -13.109375 "/></g></g></g><g fill="#612e18" fill-opacity="1"><g transform="translate(90.776758, 34.540973)"><g><path d="M 7.015625 -13.109375 C 8.148438 -13.109375 9.222656 -12.929688 10.234375 -12.578125 L 9.5625 -9.40625 L 9.296875 -9.25 C 8.953125 -9.425781 8.554688 -9.570312 8.109375 -9.6875 C 7.660156 -9.800781 7.242188 -9.859375 6.859375 -9.859375 C 6.046875 -9.859375 5.457031 -9.625 5.09375 -9.15625 C 4.738281 -8.6875 4.5625 -7.898438 4.5625 -6.796875 C 4.5625 -5.503906 4.765625 -4.5625 5.171875 -3.96875 C 5.585938 -3.382812 6.234375 -3.09375 7.109375 -3.09375 C 7.484375 -3.09375 7.898438 -3.128906 8.359375 -3.203125 C 8.816406 -3.273438 9.21875 -3.375 9.5625 -3.5 L 9.875 -3.3125 L 9.5625 -0.15625 C 8.757812 0.09375 7.835938 0.21875 6.796875 0.21875 C 4.648438 0.21875 3.035156 -0.335938 1.953125 -1.453125 C 0.878906 -2.566406 0.34375 -4.191406 0.34375 -6.328125 C 0.34375 -8.484375 0.921875 -10.148438 2.078125 -11.328125 C 3.242188 -12.515625 4.890625 -13.109375 7.015625 -13.109375 Z M 7.015625 -13.109375 "/></g></g></g><g fill="#612e18" fill-opacity="1"><g transform="translate(101.019331, 34.540973)"><g><path d="M 10.296875 -3.1875 L 10.515625 -2.90625 L 10.28125 0 L 1.1875 0 L 1.390625 -3.78125 L 1.1875 -12.890625 L 10.4375 -12.890625 L 10.65625 -12.609375 L 10.40625 -9.703125 L 7.234375 -9.828125 L 5.171875 -9.828125 L 5.140625 -8.015625 L 7.109375 -8.015625 L 9.1875 -8.0625 L 9.40625 -7.796875 L 9.15625 -4.875 L 6.859375 -4.9375 L 5.0625 -4.9375 L 5.046875 -4.1875 L 5.078125 -3.0625 L 7 -3.0625 Z M 10.296875 -3.1875 "/></g></g></g><g fill="#612e18" fill-opacity="1"><g transform="translate(111.799937, 34.540973)"><g><path d="M 7.3125 -12.90625 C 8.757812 -12.90625 9.867188 -12.550781 10.640625 -11.84375 C 11.421875 -11.132812 11.8125 -10.125 11.8125 -8.8125 C 11.8125 -7.78125 11.570312 -6.875 11.09375 -6.09375 C 10.613281 -5.320312 9.9375 -4.71875 9.0625 -4.28125 C 8.1875 -3.851562 7.175781 -3.640625 6.03125 -3.640625 L 5.0625 -3.640625 L 5.203125 0 L 1.1875 0 L 1.390625 -3.78125 L 1.1875 -12.890625 Z M 6.59375 -6.4375 C 6.945312 -6.632812 7.207031 -6.890625 7.375 -7.203125 C 7.539062 -7.515625 7.625 -7.914062 7.625 -8.40625 C 7.625 -8.988281 7.484375 -9.414062 7.203125 -9.6875 C 6.929688 -9.957031 6.492188 -10.109375 5.890625 -10.140625 L 5.171875 -10.078125 L 5.09375 -6.515625 Z M 6.59375 -6.4375 "/></g></g></g><g fill="#612e18" fill-opacity="1"><g transform="translate(123.61675, 34.540973)"><g><path d="M 10.21875 -12.609375 L 10 -9.703125 L 7.375 -9.828125 L 7.125 -9.828125 L 7.03125 -4.1875 L 7.1875 0 L 3.203125 0 L 3.40625 -3.78125 L 3.3125 -9.828125 L 3.046875 -9.828125 L 0.390625 -9.703125 L 0.15625 -9.984375 L 0.375 -12.890625 L 10 -12.890625 Z M 10.21875 -12.609375 "/></g></g></g><g fill="#612e18" fill-opacity="1"><g transform="translate(133.95896, 34.540973)"><g/></g></g><g fill="#612e18" fill-opacity="1"><g transform="translate(136.649134, 34.540973)"><g><path d="M 10.21875 -12.609375 L 10 -9.703125 L 7.375 -9.828125 L 7.125 -9.828125 L 7.03125 -4.1875 L 7.1875 0 L 3.203125 0 L 3.40625 -3.78125 L 3.3125 -9.828125 L 3.046875 -9.828125 L 0.390625 -9.703125 L 0.15625 -9.984375 L 0.375 -12.890625 L 10 -12.890625 Z M 10.21875 -12.609375 "/></g></g></g><g fill="#612e18" fill-opacity="1"><g transform="translate(146.991344, 34.540973)"><g><path d="M 12.90625 -4.1875 L 13.0625 0 L 9.0625 0 L 9.265625 -3.78125 L 9.25 -4.78125 L 7.09375 -4.828125 L 5.234375 -4.765625 L 5.21875 -4.1875 L 5.375 0 L 1.375 0 L 1.578125 -3.78125 L 1.375 -12.890625 L 5.4375 -12.890625 L 5.3125 -8.015625 L 7.328125 -7.96875 L 9.15625 -8.015625 L 9.0625 -12.890625 L 13.125 -12.890625 Z M 12.90625 -4.1875 "/></g></g></g><g fill="#612e18" fill-opacity="1"><g transform="translate(161.159573, 34.540973)"><g><path d="M 10.296875 -3.1875 L 10.515625 -2.90625 L 10.28125 0 L 1.1875 0 L 1.390625 -3.78125 L 1.1875 -12.890625 L 10.4375 -12.890625 L 10.65625 -12.609375 L 10.40625 -9.703125 L 7.234375 -9.828125 L 5.171875 -9.828125 L 5.140625 -8.015625 L 7.109375 -8.015625 L 9.1875 -8.0625 L 9.40625 -7.796875 L 9.15625 -4.875 L 6.859375 -4.9375 L 5.0625 -4.9375 L 5.046875 -4.1875 L 5.078125 -3.0625 L 7 -3.0625 Z M 10.296875 -3.1875 "/></g></g></g><g fill="#612e18" fill-opacity="1"><g transform="translate(68.733367, 51.555372)"><g><path d="M 7.015625 -13.109375 C 8.148438 -13.109375 9.222656 -12.929688 10.234375 -12.578125 L 9.5625 -9.40625 L 9.296875 -9.25 C 8.953125 -9.425781 8.554688 -9.570312 8.109375 -9.6875 C 7.660156 -9.800781 7.242188 -9.859375 6.859375 -9.859375 C 6.046875 -9.859375 5.457031 -9.625 5.09375 -9.15625 C 4.738281 -8.6875 4.5625 -7.898438 4.5625 -6.796875 C 4.5625 -5.503906 4.765625 -4.5625 5.171875 -3.96875 C 5.585938 -3.382812 6.234375 -3.09375 7.109375 -3.09375 C 7.484375 -3.09375 7.898438 -3.128906 8.359375 -3.203125 C 8.816406 -3.273438 9.21875 -3.375 9.5625 -3.5 L 9.875 -3.3125 L 9.5625 -0.15625 C 8.757812 0.09375 7.835938 0.21875 6.796875 0.21875 C 4.648438 0.21875 3.035156 -0.335938 1.953125 -1.453125 C 0.878906 -2.566406 0.34375 -4.191406 0.34375 -6.328125 C 0.34375 -8.484375 0.921875 -10.148438 2.078125 -11.328125 C 3.242188 -12.515625 4.890625 -13.109375 7.015625 -13.109375 Z M 7.015625 -13.109375 "/></g></g></g><g fill="#612e18" fill-opacity="1"><g transform="translate(78.97594, 51.555372)"><g><path d="M 12.90625 -4.1875 L 13.0625 0 L 9.0625 0 L 9.265625 -3.78125 L 9.25 -4.78125 L 7.09375 -4.828125 L 5.234375 -4.765625 L 5.21875 -4.1875 L 5.375 0 L 1.375 0 L 1.578125 -3.78125 L 1.375 -12.890625 L 5.4375 -12.890625 L 5.3125 -8.015625 L 7.328125 -7.96875 L 9.15625 -8.015625 L 9.0625 -12.890625 L 13.125 -12.890625 Z M 12.90625 -4.1875 "/></g></g></g><g fill="#612e18" fill-opacity="1"><g transform="translate(93.144168, 51.555372)"><g><path d="M 12.296875 0 L 8.25 0 L 7.890625 -2.125 L 7.875 -2.1875 L 5.921875 -2.234375 L 4.28125 -2.15625 L 3.9375 0 L 0.046875 0 L 3.9375 -12.890625 L 8.765625 -12.890625 Z M 7.265625 -5.09375 L 6.390625 -9.328125 L 6.15625 -9.328125 L 5.046875 -5.09375 L 6.15625 -5.078125 Z M 7.265625 -5.09375 "/></g></g></g><g fill="#612e18" fill-opacity="1"><g transform="translate(105.638508, 51.555372)"><g><path d="M 9 -2.984375 L 8.765625 0 L 1.09375 0 L 1.296875 -3.78125 L 1.09375 -12.890625 L 5.15625 -12.890625 L 4.9375 -4.1875 L 4.984375 -3.265625 L 8.78125 -3.265625 Z M 9 -2.984375 "/></g></g></g><g fill="#612e18" fill-opacity="1"><g transform="translate(114.645599, 51.555372)"><g><path d="M 9 -2.984375 L 8.765625 0 L 1.09375 0 L 1.296875 -3.78125 L 1.09375 -12.890625 L 5.15625 -12.890625 L 4.9375 -4.1875 L 4.984375 -3.265625 L 8.78125 -3.265625 Z M 9 -2.984375 "/></g></g></g><g fill="#612e18" fill-opacity="1"><g transform="translate(123.65269, 51.555372)"><g><path d="M 10.296875 -3.1875 L 10.515625 -2.90625 L 10.28125 0 L 1.1875 0 L 1.390625 -3.78125 L 1.1875 -12.890625 L 10.4375 -12.890625 L 10.65625 -12.609375 L 10.40625 -9.703125 L 7.234375 -9.828125 L 5.171875 -9.828125 L 5.140625 -8.015625 L 7.109375 -8.015625 L 9.1875 -8.0625 L 9.40625 -7.796875 L 9.15625 -4.875 L 6.859375 -4.9375 L 5.0625 -4.9375 L 5.046875 -4.1875 L 5.078125 -3.0625 L 7 -3.0625 Z M 10.296875 -3.1875 "/></g></g></g><g fill="#612e18" fill-opacity="1"><g transform="translate(134.433295, 51.555372)"><g><path d="M 12.734375 -4.203125 L 12.890625 0 L 8.546875 0 L 4.921875 -6.890625 L 4.6875 -6.890625 L 4.65625 -4.65625 L 4.828125 0 L 1.1875 0 L 1.390625 -3.78125 L 1.1875 -12.890625 L 5.53125 -12.890625 L 9.15625 -6 L 9.40625 -6 L 9.28125 -12.75 L 12.953125 -12.96875 Z M 12.734375 -4.203125 "/></g></g></g><g fill="#612e18" fill-opacity="1"><g transform="translate(148.58159, 51.555372)"><g><path d="M 7.609375 -13.109375 C 9.046875 -13.109375 10.285156 -12.910156 11.328125 -12.515625 L 10.484375 -8.984375 L 10.15625 -8.984375 C 9.488281 -9.316406 8.910156 -9.554688 8.421875 -9.703125 C 7.941406 -9.847656 7.421875 -9.921875 6.859375 -9.921875 C 6.242188 -9.921875 5.769531 -9.820312 5.4375 -9.625 C 5.113281 -9.425781 4.878906 -9.070312 4.734375 -8.5625 C 4.585938 -8.0625 4.515625 -7.332031 4.515625 -6.375 C 4.515625 -5.40625 4.585938 -4.664062 4.734375 -4.15625 C 4.878906 -3.644531 5.128906 -3.285156 5.484375 -3.078125 C 5.835938 -2.867188 6.347656 -2.765625 7.015625 -2.765625 C 7.203125 -2.765625 7.441406 -2.789062 7.734375 -2.84375 L 7.734375 -3.484375 L 7.671875 -5.65625 L 11.3125 -5.921875 L 11.25 -4.15625 L 11.25 -0.640625 C 9.707031 -0.0546875 8.175781 0.234375 6.65625 0.234375 C 4.570312 0.234375 3 -0.316406 1.9375 -1.421875 C 0.875 -2.535156 0.34375 -4.117188 0.34375 -6.171875 C 0.34375 -8.429688 0.96875 -10.148438 2.21875 -11.328125 C 3.476562 -12.515625 5.273438 -13.109375 7.609375 -13.109375 Z M 7.609375 -13.109375 "/></g></g></g><g fill="#612e18" fill-opacity="1"><g transform="translate(160.458194, 51.555372)"><g><path d="M 10.296875 -3.1875 L 10.515625 -2.90625 L 10.28125 0 L 1.1875 0 L 1.390625 -3.78125 L 1.1875 -12.890625 L 10.4375 -12.890625 L 10.65625 -12.609375 L 10.40625 -9.703125 L 7.234375 -9.828125 L 5.171875 -9.828125 L 5.140625 -8.015625 L 7.109375 -8.015625 L 9.1875 -8.0625 L 9.40625 -7.796875 L 9.15625 -4.875 L 6.859375 -4.9375 L 5.0625 -4.9375 L 5.046875 -4.1875 L 5.078125 -3.0625 L 7 -3.0625 Z M 10.296875 -3.1875 "/></g></g></g><g clip-path="url(#dc69073209)"><path fill="#612e18" d="M 60.417969 19.628906 C 60.539062 19.960938 60.8125 20.75 61.1875 21.84375 C 61.375 22.386719 61.585938 23.007812 61.816406 23.679688 C 61.992188 24.191406 62.179688 24.734375 62.371094 25.300781 C 62.574219 25.890625 62.785156 26.503906 63 27.136719 C 65.28125 33.785156 68.253906 42.328125 68.5625 42.222656 C 68.875 42.121094 66.050781 33.546875 63.816406 26.859375 C 63.605469 26.226562 63.398438 25.609375 63.203125 25.019531 C 63.011719 24.453125 62.828125 23.90625 62.65625 23.394531 C 62.433594 22.722656 62.226562 22.101562 62.042969 21.554688 C 61.640625 20.351562 61.359375 19.5 61.265625 19.183594 C 61.203125 18.917969 61.117188 18.65625 61.003906 18.40625 C 60.871094 18.125 60.664062 17.472656 60.371094 17.394531 C 60.347656 17.386719 60.179688 17.296875 60.105469 17.457031 C 60.082031 17.5 59.933594 17.855469 60.152344 18.734375 C 60.25 19.113281 60.296875 19.300781 60.417969 19.628906 Z M 60.417969 19.628906 " fill-opacity="1" fill-rule="nonzero"/></g><path fill="#f4a766" d="M 61.1875 21.84375 C 61.375 22.386719 61.585938 23.007812 61.816406 23.679688 L 62.65625 23.394531 C 62.429688 22.722656 62.222656 22.101562 62.042969 21.554688 Z M 61.1875 21.84375 " fill-opacity="1" fill-rule="nonzero"/><path fill="#f4a766" d="M 62.371094 25.300781 C 62.574219 25.890625 62.785156 26.503906 63 27.136719 L 63.816406 26.859375 C 63.605469 26.226562 63.398438 25.613281 63.203125 25.019531 Z M 62.371094 25.300781 " fill-opacity="1" fill-rule="nonzero"/><g clip-path="url(#6f5d31e1df)"><path fill="#612e18" d="M 52.875 23.535156 C 53.089844 23.816406 53.582031 24.492188 54.257812 25.433594 C 54.59375 25.898438 54.976562 26.425781 55.394531 27.007812 C 55.710938 27.445312 56.046875 27.910156 56.394531 28.394531 C 56.757812 28.898438 57.140625 29.425781 57.53125 29.96875 C 61.648438 35.664062 66.976562 42.972656 67.238281 42.785156 C 67.503906 42.597656 62.308594 35.214844 58.230469 29.464844 L 57.105469 27.882812 L 56.113281 26.488281 C 55.699219 25.910156 55.320312 25.378906 54.988281 24.90625 C 54.253906 23.875 53.738281 23.140625 53.554688 22.867188 C 53.417969 22.628906 53.261719 22.402344 53.078125 22.195312 C 52.871094 21.96875 52.480469 21.402344 52.179688 21.410156 C 52.152344 21.410156 51.964844 21.375 51.941406 21.546875 C 51.933594 21.597656 51.894531 21.980469 52.363281 22.757812 C 52.5625 23.089844 52.664062 23.257812 52.875 23.535156 Z M 52.875 23.535156 " fill-opacity="1" fill-rule="nonzero"/></g><path fill="#f4a766" d="M 54.257812 25.433594 C 54.59375 25.898438 54.976562 26.425781 55.390625 27.007812 L 56.113281 26.488281 C 55.703125 25.910156 55.324219 25.378906 54.988281 24.90625 Z M 54.257812 25.433594 " fill-opacity="1" fill-rule="nonzero"/><path fill="#f4a766" d="M 56.394531 28.394531 C 56.757812 28.898438 57.136719 29.425781 57.527344 29.96875 L 58.230469 29.464844 L 57.105469 27.882812 Z M 56.394531 28.394531 " fill-opacity="1" fill-rule="nonzero"/><g clip-path="url(#2949029f0f)"><path fill="#612e18" d="M 179.578125 19.628906 C 179.453125 19.960938 179.183594 20.75 178.804688 21.84375 C 178.617188 22.386719 178.40625 23.007812 178.175781 23.679688 C 178.003906 24.191406 177.816406 24.734375 177.625 25.300781 C 177.421875 25.890625 177.210938 26.503906 176.996094 27.136719 C 174.710938 33.785156 171.738281 42.328125 171.429688 42.222656 C 171.121094 42.121094 173.945312 33.546875 176.175781 26.859375 C 176.390625 26.226562 176.59375 25.609375 176.792969 25.019531 C 176.984375 24.453125 177.164062 23.90625 177.335938 23.394531 C 177.5625 22.722656 177.769531 22.101562 177.953125 21.554688 C 178.351562 20.351562 178.636719 19.5 178.730469 19.183594 C 178.789062 18.917969 178.878906 18.65625 178.992188 18.40625 C 179.125 18.125 179.332031 17.472656 179.625 17.394531 C 179.648438 17.386719 179.816406 17.296875 179.890625 17.457031 C 179.910156 17.5 180.058594 17.855469 179.839844 18.734375 C 179.746094 19.113281 179.699219 19.300781 179.578125 19.628906 Z M 179.578125 19.628906 " fill-opacity="1" fill-rule="nonzero"/></g><path fill="#f4a766" d="M 178.804688 21.84375 C 178.617188 22.386719 178.40625 23.007812 178.175781 23.679688 L 177.335938 23.394531 C 177.5625 22.722656 177.769531 22.101562 177.953125 21.554688 Z M 178.804688 21.84375 " fill-opacity="1" fill-rule="nonzero"/><path fill="#f4a766" d="M 177.621094 25.300781 C 177.421875 25.890625 177.210938 26.503906 176.996094 27.136719 L 176.175781 26.859375 C 176.390625 26.226562 176.59375 25.613281 176.792969 25.019531 Z M 177.621094 25.300781 " fill-opacity="1" fill-rule="nonzero"/><g clip-path="url(#358068796a)"><path fill="#612e18" d="M 187.117188 23.535156 C 186.90625 23.816406 186.414062 24.492188 185.734375 25.433594 C 185.398438 25.898438 185.015625 26.425781 184.601562 27.007812 C 184.285156 27.445312 183.949219 27.910156 183.597656 28.394531 C 183.234375 28.898438 182.855469 29.425781 182.460938 29.96875 C 178.347656 35.664062 173.019531 42.972656 172.753906 42.785156 C 172.488281 42.597656 177.683594 35.214844 181.765625 29.464844 L 182.890625 27.882812 L 183.882812 26.488281 C 184.292969 25.910156 184.671875 25.378906 185.003906 24.90625 C 185.738281 23.875 186.257812 23.140625 186.4375 22.867188 C 186.574219 22.628906 186.734375 22.402344 186.914062 22.195312 C 187.125 21.96875 187.511719 21.402344 187.816406 21.410156 C 187.839844 21.410156 188.027344 21.375 188.050781 21.546875 C 188.058594 21.597656 188.097656 21.980469 187.632812 22.757812 C 187.429688 23.089844 187.332031 23.257812 187.117188 23.535156 Z M 187.117188 23.535156 " fill-opacity="1" fill-rule="nonzero"/></g><path fill="#f4a766" d="M 185.738281 25.433594 C 185.402344 25.898438 185.019531 26.425781 184.601562 27.007812 L 183.878906 26.488281 C 184.292969 25.910156 184.671875 25.378906 185.003906 24.90625 Z M 185.738281 25.433594 " fill-opacity="1" fill-rule="nonzero"/><path fill="#f4a766" d="M 183.601562 28.394531 C 183.238281 28.898438 182.855469 29.425781 182.464844 29.96875 L 181.765625 29.464844 L 182.890625 27.882812 Z M 183.601562 28.394531 " fill-opacity="1" fill-rule="nonzero"/></svg>