<svg xmlns="http://www.w3.org/2000/svg" xmlns:xlink="http://www.w3.org/1999/xlink" width="320" zoomAndPan="magnify" viewBox="0 0 240 74.999997" height="100" preserveAspectRatio="xMidYMid meet" version="1.0"><defs><g/><clipPath id="ad66937fc8"><path d="M 12.308594 1.886719 L 226.796875 1.886719 L 226.796875 74.824219 L 12.308594 74.824219 Z M 12.308594 1.886719 " clip-rule="nonzero"/></clipPath><clipPath id="c76610eac5"><path d="M 59 24.714844 L 68.285156 24.714844 L 68.285156 50 L 59 50 Z M 59 24.714844 " clip-rule="nonzero"/></clipPath><clipPath id="e37f09d22a"><path d="M 52.039062 28 L 67 28 L 67 50.355469 L 52.039062 50.355469 Z M 52.039062 28 " clip-rule="nonzero"/></clipPath><clipPath id="6ce8f483b0"><path d="M 170.367188 24.714844 L 180 24.714844 L 180 50 L 170.367188 50 Z M 170.367188 24.714844 " clip-rule="nonzero"/></clipPath><clipPath id="fb13b5af00"><path d="M 172 28 L 186.960938 28 L 186.960938 50.355469 L 172 50.355469 Z M 172 28 " clip-rule="nonzero"/></clipPath></defs><g clip-path="url(#ad66937fc8)"><path fill="#612e18" d="M 226.152344 51.460938 C 226.140625 51.191406 226.121094 50.914062 226.085938 50.628906 L 226.023438 50.125 L 226.164062 49.636719 C 226.601562 48.152344 226.8125 46.421875 226.792969 44.503906 C 226.777344 42.582031 226.585938 40.429688 226.460938 38.996094 C 226.421875 38.59375 226.394531 38.261719 226.375 38.039062 C 226.316406 36.84375 226.089844 35.714844 225.691406 34.679688 L 225.496094 34.175781 L 225.554688 33.304688 C 226.800781 10.074219 223.054688 7.429688 219.886719 6.035156 C 217.421875 4.949219 210.890625 1.886719 167.804688 1.886719 C 111.402344 1.886719 21.074219 5.757812 20.191406 5.789062 L 13.378906 9.195312 L 13.199219 12.851562 C 13.15625 13.539062 12.125 29.898438 12.335938 44.09375 C 12.355469 45.503906 12.621094 46.792969 13.117188 47.921875 L 13.417969 48.59375 L 12.847656 52.070312 C 12.734375 52.757812 12.59375 53.652344 12.425781 54.726562 C 12.304688 59.117188 14.554688 67.105469 15.167969 68.273438 L 17.628906 72.949219 L 22.875 73.105469 C 23.40625 73.125 79.835938 74.824219 131.089844 74.824219 C 196.121094 74.824219 211.113281 72.171875 216.738281 70.179688 C 220.558594 68.824219 224.308594 66.347656 226.144531 52.613281 L 226.191406 52.398438 C 226.179688 52.085938 226.167969 51.765625 226.152344 51.460938 " fill-opacity="1" fill-rule="nonzero"/></g><path fill="#8c5130" d="M 45.992188 45.75 L 59.164062 50.417969 L 19.914062 47.609375 L 15.375 49.484375 C 15.09375 51.210938 14.820312 52.96875 14.558594 54.753906 C 14.15625 55.839844 14.3125 58.984375 15.648438 63.042969 C 16 64.109375 16.769531 66.160156 17.273438 67.082031 C 18.308594 69.003906 19.101562 70.550781 19.101562 70.550781 C 19.101562 70.550781 30.40625 70.910156 35.382812 70.996094 C 39.710938 71.066406 52.578125 71.519531 58.445312 71.457031 C 65.097656 71.378906 76.4375 71.8125 95.03125 72.070312 C 105.746094 72.21875 116.035156 72.320312 127.480469 72.375 C 131.910156 72.390625 136.316406 72.347656 140.648438 72.300781 C 145.484375 72.25 150.226562 72.199219 154.804688 72.242188 C 164.59375 72.328125 192.867188 71.261719 202.609375 70.269531 C 204.914062 70.039062 209.578125 69.410156 212.902344 68.675781 C 215.097656 68.195312 216.230469 67.8125 217.585938 67.085938 C 218.203125 66.757812 219.363281 65.828125 220.585938 63.851562 C 220.675781 63.757812 220.789062 63.335938 220.867188 63.203125 C 222.5 60.410156 223.699219 52.671875 223.6875 52.425781 C 223.675781 52.21875 223.652344 51.148438 223.625 50.929688 L 223.503906 49.917969 L 217.691406 45.910156 C 217.871094 45.3125 212.457031 45.675781 206.742188 46.039062 C 200.464844 46.4375 193.824219 46.835938 193.816406 45.960938 C 193.800781 44.722656 206.183594 43.035156 210.96875 44.351562 C 214.074219 45.203125 223.753906 44.953125 223.878906 44.523438 C 224 44.105469 223.957031 38.425781 223.90625 38.167969 C 223.355469 35.386719 223.890625 34.136719 222.304688 33.03125 C 220.507812 31.769531 218.378906 31.058594 216.808594 30.53125 L 207.582031 29.933594 L 222.050781 28.011719 C 223.515625 4.875 218.808594 7.492188 216.355469 6.410156 C 214.222656 5.472656 210.25 3.71875 167.6875 3.71875 C 111.671875 3.71875 21.253906 6.492188 20.371094 6.53125 L 15.917969 9.148438 L 15.671875 13.007812 C 15.625 13.695312 14.5625 28.042969 14.773438 42.121094 C 14.773438 42.121094 42.015625 44.949219 45.992188 45.75 " fill-opacity="1" fill-rule="nonzero"/><path fill="#f4a766" d="M 218.257812 51.542969 C 218.210938 49.175781 218.117188 47.902344 217.691406 45.910156 C 217.402344 44.519531 198.261719 42.601562 198.261719 42.601562 C 198.261719 42.601562 212.011719 43.082031 217.722656 41.53125 C 218.925781 41.203125 217.703125 32.703125 217.410156 31.121094 C 216.847656 28.070312 181.371094 28.242188 181.371094 28.242188 L 217.09375 26.308594 C 217.09375 26.308594 218.28125 7.316406 214.3125 5.554688 C 202.230469 0.175781 20.371094 6.53125 20.371094 6.53125 C 20.371094 6.53125 18.023438 26.585938 19.511719 37.804688 C 19.667969 38.960938 64.507812 43.292969 64.507812 43.292969 L 19.914062 47.609375 C 19.914062 47.609375 19.480469 50.253906 18.890625 54.578125 C 18.886719 54.632812 18.878906 54.6875 18.867188 54.746094 C 18.878906 54.746094 18.9375 56.34375 18.890625 54.746094 C 18.855469 55.414062 19.082031 56.769531 19.1875 57.839844 C 19.398438 59.960938 20.578125 60.980469 20.578125 60.980469 C 20.578125 60.980469 194.035156 66.277344 215.863281 58.523438 C 216.925781 58.144531 217.566406 55.621094 218.257812 52.535156 C 218.195312 52.542969 218.226562 52.289062 218.257812 52.039062 C 218.285156 51.789062 218.316406 51.535156 218.257812 51.542969 " fill-opacity="1" fill-rule="nonzero"/><path fill="#ffcc9c" d="M 20.371094 6.53125 C 20.371094 6.53125 19.425781 14.808594 19.128906 22.933594 C 18.867188 30.253906 19.242188 37.484375 19.511719 37.804688 C 20.542969 39.027344 64.507812 43.292969 64.507812 43.292969 C 64.507812 43.292969 23.617188 37.914062 22.625 36.511719 C 21.632812 35.105469 22.707031 6.445312 22.707031 6.445312 L 20.371094 6.53125 " fill-opacity="1" fill-rule="nonzero"/><path fill="#ffcc9c" d="M 22.707031 6.445312 L 22.636719 8.515625 C 22.636719 8.515625 28.984375 7.253906 33.441406 7.480469 C 35.242188 7.574219 35.851562 7.453125 36.640625 7.332031 C 37.800781 7.152344 39.355469 6.976562 45.699219 7.480469 C 51.578125 7.949219 57.527344 7.34375 61.933594 6.742188 C 65.511719 6.253906 68.070312 5.765625 68.734375 5.851562 C 70.222656 6.039062 98.167969 6.523438 99.984375 6.246094 C 101.800781 5.972656 128.515625 3.746094 130.101562 3.71875 C 130.882812 3.707031 108.691406 4.042969 87.25 4.550781 C 65.210938 5.070312 43.886719 5.769531 43.886719 5.769531 L 22.707031 6.445312 " fill-opacity="1" fill-rule="nonzero"/><path fill="#ffcc9c" d="M 218.253906 52.59375 L 218.257812 52.535156 L 218.253906 52.535156 C 218.175781 48.835938 217.980469 46.160156 217.578125 45.726562 C 216.277344 44.320312 198.261719 42.601562 198.261719 42.601562 C 198.261719 42.601562 214.238281 45.515625 215.917969 46.933594 C 216.777344 47.660156 216.757812 50.746094 216.652344 52.796875 C 216.023438 56.28125 214.40625 58.964844 214.40625 58.964844 C 214.40625 58.964844 215.582031 58.640625 215.863281 58.523438 C 216.097656 58.429688 216.457031 58.125 216.457031 58.125 C 216.457031 58.125 217.316406 57.261719 217.84375 55.457031 C 218.035156 54.792969 218.226562 53.847656 218.246094 52.710938 L 218.257812 52.710938 C 218.253906 52.671875 218.253906 52.632812 218.253906 52.59375 " fill-opacity="1" fill-rule="nonzero"/><path fill="#ffcc9c" d="M 215.785156 41.9375 C 215.785156 41.9375 216.777344 33.714844 215.113281 32.3125 C 213.457031 30.910156 181.371094 28.242188 181.371094 28.242188 C 181.371094 28.242188 209.757812 28.070312 216.3125 30.320312 C 216.886719 30.511719 217.375 30.53125 217.484375 31.582031 C 217.5625 32.339844 218.957031 41.117188 217.722656 41.53125 C 216.988281 41.773438 215.785156 41.9375 215.785156 41.9375 " fill-opacity="1" fill-rule="nonzero"/><path fill="#ffcc9c" d="M 20.578125 60.980469 C 21.125 60.96875 19.945312 54.71875 20.496094 54.707031 C 21.070312 51.484375 22.027344 47.402344 23.40625 47.269531 C 22.359375 47.371094 19.914062 47.609375 19.914062 47.609375 C 19.914062 47.609375 19.328125 51.554688 18.867188 54.746094 C 18.835938 54.988281 19.167969 58.410156 19.277344 58.792969 C 19.386719 59.175781 19.765625 60.105469 20.578125 60.980469 " fill-opacity="1" fill-rule="nonzero"/><path fill="#582612" d="M 15.027344 60.980469 C 15.019531 60.933594 14.996094 60.816406 14.972656 60.679688 C 14.996094 60.777344 15.019531 60.875 15.046875 60.972656 C 15.039062 60.976562 15.035156 60.976562 15.027344 60.980469 " fill-opacity="1" fill-rule="nonzero"/><path fill="#7f4325" d="M 15.046875 60.972656 C 15.019531 60.875 14.996094 60.777344 14.972656 60.679688 C 14.921875 60.425781 14.859375 60.09375 14.84375 60 C 14.894531 59.890625 15 59.785156 15.191406 59.703125 C 15.929688 59.390625 16.566406 59.078125 17.15625 58.773438 C 17.371094 58.742188 17.914062 58.503906 19.183594 58.179688 C 19.222656 58.484375 19.253906 58.710938 19.277344 58.792969 C 19.308594 58.894531 19.355469 59.039062 19.429688 59.214844 C 17.78125 59.738281 16.476562 60.332031 15.828125 60.605469 C 15.476562 60.75 15.21875 60.917969 15.046875 60.972656 " fill-opacity="1" fill-rule="nonzero"/><path fill="#de8b4e" d="M 20.636719 58.863281 C 20.605469 58.539062 20.574219 58.203125 20.539062 57.867188 C 22.019531 57.554688 24.117188 57.207031 27.070312 56.890625 C 33.917969 56.167969 46.300781 55.667969 47.855469 55.398438 C 51.886719 54.695312 61.3125 51.636719 62.382812 51.53125 C 61.378906 51.777344 53.316406 55.417969 50.214844 56.253906 C 43.257812 58.132812 27.347656 58.070312 24.324219 58.25 C 23.03125 58.324219 21.777344 58.5625 20.636719 58.863281 " fill-opacity="1" fill-rule="nonzero"/><path fill="#e8aa78" d="M 19.429688 59.214844 C 19.355469 59.039062 19.308594 58.894531 19.277344 58.792969 C 19.253906 58.710938 19.222656 58.484375 19.183594 58.179688 C 19.5625 58.082031 20.011719 57.976562 20.539062 57.867188 C 20.574219 58.203125 20.605469 58.539062 20.636719 58.863281 C 20.21875 58.972656 19.8125 59.089844 19.429688 59.214844 " fill-opacity="1" fill-rule="nonzero"/><path fill="#582612" d="M 114.035156 72.289062 C 112.617188 72.277344 111.195312 72.269531 109.78125 72.257812 C 109.703125 72.253906 109.628906 72.25 109.550781 72.242188 C 111.042969 72.257812 112.542969 72.269531 114.050781 72.285156 C 114.046875 72.285156 114.039062 72.289062 114.035156 72.289062 " fill-opacity="1" fill-rule="nonzero"/><path fill="#7f4325" d="M 114.050781 72.285156 C 112.542969 72.269531 111.042969 72.257812 109.550781 72.242188 C 94.453125 71.238281 88.519531 65.636719 78.867188 62.285156 C 79.859375 62.300781 80.855469 62.316406 81.859375 62.332031 C 92.628906 66.207031 103.050781 71.046875 114.480469 72.148438 C 114.308594 72.203125 114.164062 72.25 114.050781 72.285156 " fill-opacity="1" fill-rule="nonzero"/><path fill="#de8b4e" d="M 81.859375 62.332031 C 80.855469 62.316406 79.859375 62.300781 78.867188 62.285156 C 75.933594 61.265625 72.660156 60.453125 68.675781 60.039062 C 63.980469 59.554688 58.617188 58.210938 53.90625 57.839844 C 59.476562 58.101562 65.039062 58.472656 70.589844 58.875 C 74.421875 59.785156 78.160156 61 81.859375 62.332031 " fill-opacity="1" fill-rule="nonzero"/><path fill="#582612" d="M 130.359375 72.386719 C 128.605469 72.386719 127.269531 72.382812 127.480469 72.375 C 128.210938 72.375 128.941406 72.375 129.664062 72.375 C 132.296875 72.375 134.917969 72.359375 137.515625 72.332031 C 137.484375 72.335938 137.449219 72.335938 137.414062 72.339844 C 137.375 72.339844 137.328125 72.34375 137.285156 72.347656 C 136.542969 72.375 132.984375 72.386719 130.359375 72.386719 " fill-opacity="1" fill-rule="nonzero"/><path fill="#7f4325" d="M 129.664062 72.375 C 128.941406 72.375 128.210938 72.375 127.480469 72.375 C 127.632812 72.367188 127.792969 72.351562 127.941406 72.34375 C 136.511719 71.867188 150.039062 67.238281 162.496094 62.503906 C 163.304688 62.488281 164.109375 62.476562 164.910156 62.457031 C 155.664062 66.757812 145.285156 71.933594 137.515625 72.332031 C 134.917969 72.359375 132.296875 72.375 129.664062 72.375 " fill-opacity="1" fill-rule="nonzero"/><path fill="#de8b4e" d="M 162.496094 62.503906 C 168.023438 60.402344 173.34375 58.277344 177.925781 56.488281 C 178.78125 56.441406 179.640625 56.398438 180.5 56.355469 C 179.21875 56.796875 177.933594 57.226562 176.640625 57.625 C 173.21875 58.675781 169.183594 60.472656 164.910156 62.457031 C 164.109375 62.476562 163.304688 62.488281 162.496094 62.503906 " fill-opacity="1" fill-rule="nonzero"/><path fill="#de8b4e" d="M 37.25 52.804688 C 35.734375 52.804688 34.296875 52.707031 32.964844 52.480469 C 32.929688 52.472656 32.882812 52.472656 32.835938 52.460938 C 31.636719 52.25 23.125 50.410156 23.230469 50.410156 C 23.230469 50.410156 23.238281 50.410156 23.25 50.414062 C 23.398438 50.441406 23.558594 50.460938 23.707031 50.480469 C 25.851562 50.824219 28.363281 50.972656 31.132812 50.972656 C 44.160156 50.972656 62.894531 47.667969 75.917969 45.582031 C 76.765625 45.71875 77.613281 45.855469 78.464844 45.992188 C 77.117188 46.15625 75.769531 46.304688 74.417969 46.414062 C 64.441406 47.257812 48.558594 52.804688 37.25 52.804688 " fill-opacity="1" fill-rule="nonzero"/><path fill="#582612" d="M 115.027344 72.324219 C 114.53125 72.324219 114.148438 72.316406 113.984375 72.304688 C 114 72.300781 114.019531 72.292969 114.035156 72.289062 C 114.039062 72.289062 114.046875 72.285156 114.050781 72.285156 C 115.078125 72.292969 116.113281 72.300781 117.15625 72.308594 C 117.011719 72.3125 116.867188 72.3125 116.722656 72.3125 C 116.125 72.316406 115.523438 72.324219 115.027344 72.324219 " fill-opacity="1" fill-rule="nonzero"/><path fill="#7f4325" d="M 119.257812 72.316406 C 119.117188 72.308594 118.792969 72.304688 118.378906 72.304688 C 118.023438 72.304688 117.597656 72.304688 117.15625 72.308594 C 116.113281 72.300781 115.078125 72.292969 114.050781 72.285156 C 114.164062 72.25 114.308594 72.203125 114.480469 72.148438 C 115.972656 71.664062 119.386719 70.457031 120.273438 70.242188 C 124.199219 69.285156 129.277344 66.066406 134.738281 62.746094 C 135.96875 62.742188 137.203125 62.742188 138.421875 62.734375 C 132.03125 66.28125 125.140625 70.296875 119.257812 72.316406 " fill-opacity="1" fill-rule="nonzero"/><path fill="#de8b4e" d="M 134.738281 62.746094 C 141.035156 58.917969 147.84375 54.953125 153.980469 54.175781 C 154.742188 54.074219 156.75 54.042969 159.132812 54.042969 C 161.539062 54.042969 164.328125 54.078125 166.605469 54.109375 C 168.878906 54.144531 170.644531 54.175781 170.996094 54.175781 C 171 54.175781 171.007812 54.175781 171.011719 54.175781 C 170.191406 54.253906 156.785156 55.902344 154.644531 55.96875 C 150.761719 56.085938 144.84375 59.175781 138.421875 62.734375 C 137.203125 62.742188 135.96875 62.742188 134.738281 62.746094 M 171.011719 54.175781 C 171.035156 54.175781 171.046875 54.175781 171.050781 54.175781 C 171.050781 54.175781 171.050781 54.175781 171.054688 54.175781 C 171.070312 54.175781 171.058594 54.175781 171.011719 54.175781 " fill-opacity="1" fill-rule="nonzero"/><path fill="#582612" d="M 170.542969 71.996094 C 170.179688 71.996094 169.828125 71.992188 169.519531 71.984375 C 170.699219 71.949219 171.898438 71.910156 173.117188 71.867188 C 172.523438 71.960938 171.488281 71.996094 170.542969 71.996094 " fill-opacity="1" fill-rule="nonzero"/><path fill="#7f4325" d="M 169.519531 71.984375 C 169.324219 71.976562 169.148438 71.972656 168.996094 71.960938 C 168.527344 71.933594 168.292969 71.898438 168.511719 71.851562 C 172.875 71.035156 181.523438 66.226562 189.757812 61.628906 C 190.527344 61.589844 191.277344 61.546875 192.019531 61.507812 C 185.304688 65.59375 176.679688 71.203125 173.222656 71.847656 C 173.191406 71.855469 173.15625 71.859375 173.117188 71.867188 C 171.898438 71.910156 170.699219 71.949219 169.519531 71.984375 " fill-opacity="1" fill-rule="nonzero"/><path fill="#de8b4e" d="M 189.757812 61.628906 C 194.222656 59.140625 198.566406 56.710938 202.039062 55.019531 C 204.800781 54.714844 207.554688 54.335938 210.296875 53.953125 C 206.738281 54.992188 202.960938 56.175781 199.53125 57.402344 C 197.964844 57.96875 195.207031 59.566406 192.019531 61.507812 C 191.277344 61.546875 190.527344 61.589844 189.757812 61.628906 " fill-opacity="1" fill-rule="nonzero"/><path fill="#de8b4e" d="M 48.910156 16.746094 C 48.214844 16.746094 47.515625 16.730469 46.816406 16.707031 C 41.886719 16.511719 36.253906 15.164062 31.378906 14.351562 C 28.667969 13.902344 25.492188 12.726562 22.503906 12.683594 C 22.515625 12.226562 22.53125 11.785156 22.542969 11.363281 C 22.628906 11.363281 22.714844 11.363281 22.804688 11.363281 C 26.3125 11.363281 30.074219 12.75 33.933594 13.171875 C 39.746094 13.804688 45.769531 14.339844 51.765625 14.339844 C 57.117188 14.339844 62.449219 13.914062 67.585938 12.75 C 73.710938 11.371094 79.042969 8.042969 84.941406 6.230469 C 86.691406 6.257812 88.433594 6.277344 90.082031 6.296875 C 88.632812 6.628906 87.222656 7.042969 85.867188 7.574219 C 80.8125 9.554688 75.945312 12.078125 70.65625 13.421875 C 63.402344 15.269531 56.3125 16.746094 48.910156 16.746094 " fill-opacity="1" fill-rule="nonzero"/><path fill="#582612" d="M 15.445312 16.042969 C 15.484375 15.464844 15.523438 14.960938 15.554688 14.539062 C 15.558594 14.53125 15.566406 14.527344 15.570312 14.523438 C 15.542969 14.945312 15.507812 15.449219 15.472656 16.023438 L 15.472656 16.027344 L 15.445312 16.042969 " fill-opacity="1" fill-rule="nonzero"/><path fill="#7f4325" d="M 15.472656 16.023438 C 15.507812 15.449219 15.542969 14.945312 15.570312 14.523438 C 16.929688 13.054688 18.359375 12.199219 19.851562 11.761719 C 19.816406 12.167969 19.78125 12.597656 19.742188 13.039062 C 18.574219 13.394531 17.46875 14.046875 16.476562 15.132812 L 15.472656 16.023438 " fill-opacity="1" fill-rule="nonzero"/><path fill="#de8b4e" d="M 19.742188 13.039062 C 19.78125 12.597656 19.816406 12.167969 19.851562 11.761719 C 19.855469 11.757812 19.855469 11.757812 19.855469 11.757812 C 19.820312 12.167969 19.78125 12.597656 19.746094 13.039062 C 19.746094 13.039062 19.742188 13.039062 19.742188 13.039062 " fill-opacity="1" fill-rule="nonzero"/><path fill="#582612" d="M 101.996094 4.226562 C 102.773438 4.191406 103.574219 4.152344 104.402344 4.109375 C 105.113281 4.074219 106.238281 4.035156 106.957031 4.035156 C 107.515625 4.035156 107.828125 4.058594 107.496094 4.117188 C 105.714844 4.152344 103.875 4.1875 101.996094 4.226562 " fill-opacity="1" fill-rule="nonzero"/><path fill="#e8aa78" d="M 19.746094 13.039062 C 19.78125 12.597656 19.820312 12.167969 19.855469 11.757812 C 20.730469 11.5 21.628906 11.382812 22.542969 11.363281 C 22.53125 11.785156 22.515625 12.226562 22.503906 12.683594 C 22.445312 12.683594 22.390625 12.683594 22.332031 12.683594 C 21.449219 12.683594 20.578125 12.785156 19.746094 13.039062 " fill-opacity="1" fill-rule="nonzero"/><path fill="#e8aa78" d="M 90.082031 6.296875 C 88.433594 6.277344 86.691406 6.257812 84.941406 6.230469 C 85.742188 5.984375 86.550781 5.769531 87.378906 5.585938 C 89.566406 5.105469 91.738281 4.835938 94.042969 4.65625 C 96.484375 4.460938 99.074219 4.363281 101.996094 4.226562 C 103.875 4.1875 105.714844 4.152344 107.496094 4.117188 C 107.464844 4.125 107.433594 4.128906 107.394531 4.132812 C 106.621094 4.246094 105.832031 4.347656 105.035156 4.433594 C 100.164062 4.992188 94.917969 5.183594 90.082031 6.296875 " fill-opacity="1" fill-rule="nonzero"/><path fill="#582612" d="M 150.261719 3.421875 C 149.34375 3.421875 148.742188 3.414062 149.355469 3.394531 C 149.707031 3.378906 150.054688 3.371094 150.402344 3.371094 C 150.957031 3.371094 151.511719 3.386719 152.0625 3.414062 C 151.476562 3.417969 150.816406 3.421875 150.261719 3.421875 " fill-opacity="1" fill-rule="nonzero"/><path fill="#582612" d="M 152.734375 3.453125 C 152.511719 3.4375 152.289062 3.425781 152.0625 3.414062 C 152.59375 3.40625 153.0625 3.402344 153.316406 3.394531 C 153.878906 3.371094 154.433594 3.359375 154.980469 3.359375 C 155.78125 3.359375 156.570312 3.382812 157.347656 3.421875 C 155.828125 3.429688 154.285156 3.441406 152.734375 3.453125 " fill-opacity="1" fill-rule="nonzero"/><path fill="#7f4325" d="M 222.28125 17.675781 C 220.75 16.34375 218.992188 15.503906 217.109375 14.964844 C 217.074219 14.445312 217.035156 13.925781 216.988281 13.417969 C 218.753906 13.84375 220.226562 14.65625 222.214844 16.324219 C 222.242188 16.753906 222.265625 17.203125 222.28125 17.675781 " fill-opacity="1" fill-rule="nonzero"/><path fill="#de8b4e" d="M 217.109375 14.964844 C 213.066406 13.808594 208.464844 14.050781 204.355469 13.851562 C 198.914062 13.582031 193.171875 14.019531 187.785156 13.1875 C 176.882812 11.511719 166.527344 5.339844 155.503906 3.757812 C 154.585938 3.628906 153.664062 3.519531 152.734375 3.453125 C 154.285156 3.441406 155.828125 3.429688 157.347656 3.421875 C 158.53125 3.484375 159.6875 3.59375 160.820312 3.734375 C 171.792969 5.101562 180.691406 9.878906 192.515625 11.148438 C 198.925781 11.839844 205.347656 12.652344 211.792969 12.898438 C 213.984375 12.980469 215.578125 13.078125 216.988281 13.417969 C 217.035156 13.925781 217.074219 14.445312 217.109375 14.964844 " fill-opacity="1" fill-rule="nonzero"/><path fill="#de8b4e" d="M 151.101562 16.292969 C 148.550781 16.292969 145.910156 16.082031 143.296875 15.871094 C 140.683594 15.65625 138.097656 15.445312 135.648438 15.445312 C 135.425781 15.445312 135.203125 15.449219 134.984375 15.453125 C 128.695312 15.558594 122.410156 16.050781 116.117188 16.050781 C 115.21875 16.050781 114.320312 16.039062 113.425781 16.015625 C 108.070312 15.882812 104.742188 15.3125 100.191406 12.472656 C 100.015625 12.363281 98.46875 11.515625 98.519531 11.390625 C 98.484375 11.242188 100.148438 11.046875 100.59375 10.890625 C 110.601562 7.492188 121.476562 6.84375 131.972656 6.335938 C 133.105469 6.277344 134.230469 6.25 135.351562 6.25 C 139.519531 6.25 143.609375 6.667969 147.710938 7.757812 C 153.410156 9.273438 159.359375 9.160156 165.046875 10.726562 C 165.5625 10.871094 165.367188 11.152344 165.046875 11.5 C 161.480469 15.351562 156.484375 16.292969 151.101562 16.292969 M 135.492188 7.230469 C 135.207031 7.230469 134.917969 7.238281 134.628906 7.246094 C 123.988281 7.597656 113.035156 8.234375 102.832031 11.480469 C 107.164062 14.0625 110.519531 14.984375 115.898438 14.984375 C 115.9375 14.984375 115.980469 14.984375 116.019531 14.984375 C 120.910156 14.976562 125.785156 14.757812 130.671875 14.5625 C 131.625 14.527344 132.589844 14.511719 133.566406 14.511719 C 135.539062 14.511719 137.550781 14.574219 139.578125 14.632812 C 141.605469 14.695312 143.644531 14.757812 145.675781 14.757812 C 150.304688 14.757812 154.878906 14.433594 159.117188 13.054688 C 164.996094 11.136719 159.960938 10.757812 157.050781 10.445312 C 154.707031 10.191406 152.3125 10.042969 149.996094 9.578125 C 145.140625 8.601562 140.484375 7.230469 135.492188 7.230469 " fill-opacity="1" fill-rule="nonzero"/><path fill="#582612" d="M 14.980469 24.871094 C 15 24.359375 15.019531 23.859375 15.039062 23.375 C 15.058594 23.351562 15.074219 23.324219 15.09375 23.300781 C 15.074219 23.796875 15.050781 24.304688 15.03125 24.820312 L 14.980469 24.871094 " fill-opacity="1" fill-rule="nonzero"/><path fill="#7f4325" d="M 15.03125 24.820312 C 15.050781 24.304688 15.074219 23.796875 15.09375 23.300781 C 16.050781 22.042969 17.574219 21.328125 19.21875 20.917969 C 19.203125 21.179688 19.191406 21.4375 19.179688 21.699219 C 18.089844 22.097656 17.082031 22.726562 16.257812 23.691406 L 15.03125 24.820312 M 222.230469 24.570312 C 220.734375 23.5 219.027344 22.769531 217.242188 22.238281 C 217.246094 21.84375 217.253906 21.433594 217.257812 21.003906 C 219.046875 21.566406 220.742188 22.304688 222.273438 23.285156 C 222.261719 23.703125 222.246094 24.132812 222.230469 24.570312 " fill-opacity="1" fill-rule="nonzero"/><path fill="#de8b4e" d="M 142.839844 22.75 C 134.902344 22.75 126.953125 22.113281 119.269531 21.0625 C 111.148438 19.953125 102.648438 16.839844 94.429688 16.839844 C 94.261719 16.839844 94.09375 16.839844 93.925781 16.84375 C 84.1875 16.992188 74.597656 20.65625 64.898438 21.246094 C 63.175781 21.347656 61.453125 21.390625 59.734375 21.390625 C 56.578125 21.390625 53.425781 21.25 50.273438 21.113281 C 47.121094 20.976562 43.964844 20.839844 40.808594 20.839844 C 39.617188 20.839844 38.425781 20.859375 37.230469 20.90625 C 34.457031 21.015625 31.746094 21.160156 29.003906 21.160156 C 28.351562 21.160156 27.691406 21.152344 27.035156 21.132812 C 26.074219 21.105469 24.964844 21.03125 23.800781 21.03125 C 23.304688 21.03125 22.800781 21.046875 22.292969 21.082031 C 22.296875 20.871094 22.300781 20.660156 22.304688 20.453125 C 22.882812 20.410156 23.441406 20.390625 23.957031 20.378906 C 32.066406 20.1875 40.199219 20.070312 48.316406 19.976562 C 60.46875 19.839844 72.164062 18.660156 84.191406 17.097656 C 87.296875 16.695312 90.183594 16.503906 92.996094 16.503906 C 98.285156 16.503906 103.308594 17.175781 109.046875 18.363281 C 119.332031 20.484375 129.878906 21.707031 140.390625 21.707031 C 140.949219 21.707031 141.503906 21.703125 142.058594 21.695312 C 153.175781 21.558594 163.484375 18.277344 174.371094 16.503906 C 176.457031 16.164062 178.570312 16.023438 180.695312 16.023438 C 187.300781 16.023438 194.019531 17.382812 200.476562 18.351562 C 205.71875 19.140625 211.914062 19.316406 217.257812 21.003906 C 217.253906 21.433594 217.246094 21.84375 217.242188 22.238281 C 214.972656 21.5625 212.570312 21.210938 210.289062 20.898438 C 205.910156 20.300781 201.578125 19.402344 197.199219 18.824219 C 193.53125 18.339844 190.050781 18.105469 186.628906 18.105469 C 180.558594 18.105469 174.671875 18.839844 168.242188 20.230469 C 160.027344 22.003906 151.441406 22.75 142.839844 22.75 " fill-opacity="1" fill-rule="nonzero"/><path fill="#e8aa78" d="M 19.179688 21.699219 C 19.191406 21.4375 19.203125 21.179688 19.21875 20.917969 C 20.238281 20.660156 21.300781 20.527344 22.304688 20.453125 C 22.300781 20.660156 22.296875 20.871094 22.292969 21.082031 C 21.234375 21.15625 20.171875 21.335938 19.179688 21.699219 " fill-opacity="1" fill-rule="nonzero"/><path fill="#de8b4e" d="M 125.835938 13.191406 C 121.738281 13.191406 116.898438 13 114.164062 11.707031 C 113.40625 11.34375 116.859375 11.222656 117.109375 11.175781 C 121.859375 10.289062 126.765625 10.074219 131.695312 10.074219 C 134.015625 10.074219 136.339844 10.121094 138.65625 10.167969 C 140.972656 10.21875 143.277344 10.265625 145.558594 10.265625 C 146.417969 10.265625 147.273438 10.257812 148.125 10.242188 L 148.132812 10.242188 C 148.152344 10.242188 148.167969 10.242188 148.1875 10.242188 C 148.253906 10.242188 148.3125 10.246094 148.363281 10.257812 C 148.734375 10.304688 151.878906 10.710938 151.679688 10.925781 C 151.511719 11.167969 148.003906 11.199219 147.609375 11.265625 C 144.546875 11.765625 141.691406 13.132812 138.5625 13.132812 C 138.464844 13.132812 138.359375 13.132812 138.257812 13.128906 C 137.59375 13.109375 136.929688 13.101562 136.265625 13.101562 C 135.339844 13.101562 134.410156 13.117188 133.484375 13.128906 C 132.558594 13.144531 131.632812 13.160156 130.703125 13.160156 C 130.625 13.160156 130.546875 13.160156 130.464844 13.15625 C 130.417969 13.15625 130.371094 13.15625 130.320312 13.15625 C 129.703125 13.15625 129.003906 13.164062 128.25 13.175781 C 127.492188 13.183594 126.679688 13.191406 125.835938 13.191406 M 131.179688 11.117188 C 127.183594 11.117188 123.199219 11.257812 119.3125 11.796875 C 120.957031 12.230469 122.890625 12.355469 124.84375 12.355469 C 127.382812 12.355469 129.953125 12.140625 131.953125 12.113281 L 139.015625 12.085938 C 139.070312 12.085938 139.125 12.085938 139.179688 12.085938 C 140.730469 12.085938 142.234375 11.714844 143.730469 11.300781 C 139.589844 11.273438 135.378906 11.117188 131.179688 11.117188 " fill-opacity="1" fill-rule="nonzero"/><path fill="#de8b4e" d="M 99.882812 54.765625 C 95.78125 54.765625 90.929688 54.574219 88.195312 53.277344 C 87.433594 52.917969 90.886719 52.792969 91.140625 52.75 C 95.894531 51.859375 100.808594 51.648438 105.746094 51.648438 C 108.058594 51.648438 110.375 51.695312 112.6875 51.742188 C 114.996094 51.789062 117.296875 51.835938 119.574219 51.835938 C 120.4375 51.835938 121.296875 51.828125 122.152344 51.8125 L 122.160156 51.8125 C 122.179688 51.8125 122.199219 51.8125 122.214844 51.8125 C 122.28125 51.8125 122.339844 51.816406 122.390625 51.824219 C 122.761719 51.875 125.90625 52.285156 125.707031 52.496094 C 125.546875 52.738281 122.03125 52.773438 121.636719 52.839844 C 118.574219 53.339844 115.726562 54.707031 112.597656 54.707031 C 112.496094 54.707031 112.394531 54.703125 112.289062 54.699219 C 111.625 54.683594 110.964844 54.675781 110.304688 54.675781 C 109.371094 54.675781 108.4375 54.6875 107.507812 54.703125 C 106.574219 54.71875 105.640625 54.730469 104.707031 54.730469 C 104.636719 54.730469 104.5625 54.730469 104.492188 54.730469 C 104.453125 54.730469 104.410156 54.730469 104.367188 54.730469 C 103.75 54.730469 103.050781 54.738281 102.296875 54.746094 C 101.539062 54.753906 100.726562 54.765625 99.882812 54.765625 M 105.210938 52.6875 C 101.214844 52.6875 97.230469 52.832031 93.34375 53.367188 C 94.988281 53.800781 96.925781 53.929688 98.878906 53.929688 C 101.417969 53.929688 103.984375 53.714844 105.984375 53.691406 L 113.042969 53.65625 C 113.097656 53.660156 113.152344 53.660156 113.207031 53.660156 C 114.761719 53.660156 116.261719 53.292969 117.761719 52.871094 C 113.621094 52.84375 109.410156 52.6875 105.210938 52.6875 " fill-opacity="1" fill-rule="nonzero"/><path fill="#582612" d="M 223.179688 55.730469 C 223.167969 55.722656 223.152344 55.714844 223.132812 55.707031 C 223.375 54.496094 223.542969 53.472656 223.628906 52.902344 C 223.644531 52.9375 223.648438 52.96875 223.640625 52.992188 C 223.5625 53.476562 223.265625 55.28125 223.179688 55.730469 " fill-opacity="1" fill-rule="nonzero"/><path fill="#7f4325" d="M 223.132812 55.707031 C 222.136719 55.117188 221.183594 53.070312 220.066406 52.609375 C 219.472656 52.398438 218.867188 52.210938 218.253906 52.054688 C 218.253906 52.050781 218.257812 52.042969 218.257812 52.039062 C 218.285156 51.789062 218.316406 51.542969 218.257812 51.542969 C 218.253906 51.355469 218.25 51.175781 218.246094 51 C 219.964844 51.304688 221.632812 51.773438 223.207031 52.472656 C 223.40625 52.625 223.578125 52.789062 223.628906 52.902344 C 223.542969 53.472656 223.375 54.496094 223.132812 55.707031 M 223.207031 52.472656 C 222.945312 52.484375 222.882812 52.492188 222.9375 52.492188 C 222.972656 52.492188 223.074219 52.484375 223.207031 52.472656 " fill-opacity="1" fill-rule="nonzero"/><path fill="#de8b4e" d="M 193.03125 52.210938 C 192.589844 52.210938 192.152344 52.203125 191.71875 52.1875 C 186.789062 52.023438 181.859375 51.464844 177.277344 49.53125 C 173.058594 47.742188 169.058594 45.445312 164.8125 43.742188 C 155.71875 40.09375 145.960938 38.109375 136.292969 36.757812 C 129.867188 35.855469 122.878906 34.808594 118.242188 29.839844 C 117.867188 29.4375 119.109375 29.117188 119.300781 29.078125 C 129.378906 26.972656 140.007812 27.710938 150.234375 26.625 C 153.074219 26.320312 156 26.035156 158.898438 26.035156 C 160.222656 26.035156 161.539062 26.09375 162.84375 26.238281 C 167.414062 26.75 171.539062 28.3125 175.871094 29.777344 C 185.007812 32.851562 193.621094 33.394531 203.140625 33.726562 C 207.082031 33.863281 211.644531 33.816406 215.9375 34.527344 C 215.992188 34.949219 216.03125 35.410156 216.054688 35.882812 C 213.710938 35.523438 211.238281 35.417969 208.777344 35.417969 C 207.21875 35.417969 205.671875 35.460938 204.160156 35.5 C 202.648438 35.542969 201.179688 35.582031 199.789062 35.582031 C 199.230469 35.582031 198.683594 35.574219 198.152344 35.558594 C 190.65625 35.34375 183.011719 33.511719 175.859375 31.097656 C 171.238281 29.546875 166.546875 27.429688 161.628906 27.117188 C 160.519531 27.046875 159.414062 27.015625 158.3125 27.015625 C 153.8125 27.015625 149.367188 27.542969 144.867188 28.011719 C 136.773438 28.859375 132.007812 29.121094 123.984375 30.515625 C 129.699219 36.140625 134.925781 35.34375 142.417969 36.554688 C 151.554688 38.03125 161.125 40.308594 169.488281 44.339844 C 174.664062 46.839844 179.871094 49.824219 185.640625 50.671875 C 188.644531 51.113281 191.644531 51.273438 194.648438 51.273438 C 196.988281 51.273438 199.335938 51.175781 201.695312 51.035156 C 204.917969 50.84375 208.417969 50.507812 211.90625 50.507812 C 213.515625 50.507812 215.128906 50.582031 216.703125 50.773438 C 216.703125 51.089844 216.703125 51.402344 216.691406 51.710938 C 214.664062 51.332031 212.550781 51.195312 210.394531 51.195312 C 207.476562 51.195312 204.488281 51.449219 201.554688 51.703125 C 198.617188 51.957031 195.738281 52.210938 193.03125 52.210938 M 218.253906 52.054688 C 218.25 52.054688 218.246094 52.054688 218.242188 52.050781 C 218.234375 51.6875 218.222656 51.335938 218.210938 50.996094 C 218.222656 50.996094 218.234375 51 218.246094 51 C 218.25 51.175781 218.253906 51.355469 218.257812 51.542969 C 218.316406 51.542969 218.285156 51.789062 218.257812 52.039062 C 218.257812 52.042969 218.253906 52.050781 218.253906 52.054688 " fill-opacity="1" fill-rule="nonzero"/><path fill="#582612" d="M 223.933594 38.777344 C 223.929688 38.75 223.929688 38.722656 223.929688 38.695312 C 223.929688 38.722656 223.929688 38.75 223.933594 38.777344 M 223.90625 38.167969 C 223.832031 37.796875 223.78125 37.457031 223.734375 37.140625 C 223.738281 37.140625 223.738281 37.140625 223.738281 37.140625 C 223.78125 37.457031 223.832031 37.796875 223.90625 38.167969 " fill-opacity="1" fill-rule="nonzero"/><path fill="#7f4325" d="M 223.933594 38.777344 C 222.222656 37.570312 220.230469 36.785156 218.082031 36.277344 C 218.042969 35.820312 217.996094 35.367188 217.945312 34.921875 C 220.011719 35.402344 221.976562 36.105469 223.734375 37.140625 C 223.78125 37.457031 223.832031 37.796875 223.90625 38.167969 C 223.914062 38.207031 223.921875 38.402344 223.929688 38.695312 C 223.929688 38.722656 223.929688 38.75 223.933594 38.777344 " fill-opacity="1" fill-rule="nonzero"/><path fill="#de8b4e" d="M 218.082031 36.277344 C 218.074219 36.273438 218.066406 36.273438 218.058594 36.269531 C 218.011719 35.808594 217.964844 35.355469 217.914062 34.914062 C 217.925781 34.917969 217.933594 34.921875 217.945312 34.921875 C 217.996094 35.367188 218.042969 35.820312 218.082031 36.277344 " fill-opacity="1" fill-rule="nonzero"/><path fill="#e8aa78" d="M 218.242188 52.050781 C 217.730469 51.921875 217.214844 51.808594 216.691406 51.710938 C 216.703125 51.402344 216.703125 51.089844 216.703125 50.773438 C 217.210938 50.832031 217.714844 50.90625 218.210938 50.996094 C 218.222656 51.335938 218.234375 51.6875 218.242188 52.050781 " fill-opacity="1" fill-rule="nonzero"/><path fill="#e8aa78" d="M 218.058594 36.269531 C 217.402344 36.117188 216.734375 35.988281 216.054688 35.882812 C 216.03125 35.410156 215.992188 34.949219 215.9375 34.527344 C 216.605469 34.636719 217.261719 34.765625 217.914062 34.914062 C 217.964844 35.355469 218.011719 35.808594 218.058594 36.269531 " fill-opacity="1" fill-rule="nonzero"/><path fill="#de8b4e" d="M 212.308594 47.507812 C 212.304688 47.507812 212.300781 47.507812 212.296875 47.507812 C 205.003906 47.203125 191.355469 46.898438 184.253906 45.035156 C 180.179688 43.960938 177.171875 41.550781 173.464844 39.714844 C 170.363281 38.175781 166.789062 37.289062 164.300781 34.765625 C 163.964844 34.421875 163.070312 33.054688 163.28125 33.054688 C 163.28125 33.054688 163.285156 33.054688 163.285156 33.054688 C 172.835938 34.257812 184.28125 39.488281 194.09375 39.488281 C 194.265625 39.488281 194.433594 39.484375 194.597656 39.480469 C 194.605469 39.480469 194.609375 39.480469 194.617188 39.480469 C 195.546875 39.480469 198.910156 40.976562 198.542969 40.988281 C 198.363281 40.992188 198.183594 40.992188 198 40.992188 C 189.054688 40.992188 176.023438 36.957031 167.5625 35.3125 C 169.929688 36.941406 172.78125 37.566406 175.273438 39.082031 C 179.054688 41.375 182.546875 43.734375 186.980469 44.582031 C 193.796875 45.890625 200.328125 46.445312 207.253906 46.734375 C 208.164062 46.773438 212.574219 47.507812 212.308594 47.507812 " fill-opacity="1" fill-rule="nonzero"/><path fill="#de8b4e" d="M 173.347656 51.820312 C 171.542969 51.820312 164.191406 51.070312 162.992188 50.472656 C 155.179688 46.578125 147.726562 47.648438 140.722656 46.136719 C 135.050781 44.910156 129.226562 43.304688 123.902344 40.96875 C 118.847656 38.75 114.347656 35.855469 109.792969 32.761719 C 103.652344 28.59375 97.996094 26.800781 90.789062 26.800781 C 90.167969 26.800781 89.53125 26.816406 88.886719 26.839844 C 74.269531 27.433594 59.621094 28.4375 45.042969 29.617188 C 41.210938 29.933594 37.574219 30.269531 33.808594 30.269531 C 33.082031 30.269531 32.355469 30.257812 31.621094 30.230469 C 30.023438 30.171875 28.234375 30.0625 26.414062 30.0625 C 25.007812 30.0625 23.582031 30.125 22.210938 30.335938 C 22.207031 29.855469 22.207031 29.355469 22.207031 28.84375 C 23.488281 28.664062 24.8125 28.597656 26.15625 28.597656 C 28.035156 28.597656 29.949219 28.726562 31.832031 28.859375 C 33.710938 28.992188 35.5625 29.121094 37.308594 29.121094 C 38.050781 29.121094 38.773438 29.097656 39.472656 29.039062 C 55.335938 27.746094 71.273438 26.15625 87.179688 25.515625 C 90.253906 25.390625 93.53125 24.941406 96.730469 24.941406 C 99.605469 24.941406 102.417969 25.304688 104.960938 26.585938 C 110.484375 29.378906 114.941406 34.644531 120.4375 37.5 C 127.855469 41.351562 136.398438 44.097656 144.671875 45.316406 C 150.785156 46.21875 164.339844 48.136719 170.191406 50.242188 L 173.660156 51.71875 C 173.855469 51.789062 173.714844 51.820312 173.347656 51.820312 " fill-opacity="1" fill-rule="nonzero"/><path fill="#582612" d="M 14.773438 33.472656 C 14.777344 33.167969 14.777344 32.398438 14.785156 32.101562 L 14.8125 32.074219 C 14.804688 32.535156 14.796875 33 14.785156 33.46875 C 14.785156 33.46875 14.777344 33.46875 14.773438 33.472656 " fill-opacity="1" fill-rule="nonzero"/><path fill="#7f4325" d="M 14.785156 33.46875 C 14.796875 33 14.804688 32.535156 14.8125 32.074219 L 14.835938 32.042969 C 16.09375 30.910156 17.503906 30.125 19.023438 29.597656 C 19.027344 30.117188 19.035156 30.636719 19.046875 31.144531 C 17.964844 31.566406 16.96875 32.140625 16.109375 32.921875 C 15.726562 33.265625 15.546875 33.226562 14.785156 33.46875 " fill-opacity="1" fill-rule="nonzero"/><path fill="#de8b4e" d="M 19.046875 31.144531 C 19.035156 30.636719 19.027344 30.117188 19.023438 29.597656 C 19.03125 29.59375 19.039062 29.59375 19.050781 29.589844 C 19.054688 30.121094 19.0625 30.636719 19.070312 31.136719 C 19.0625 31.140625 19.054688 31.144531 19.046875 31.144531 " fill-opacity="1" fill-rule="nonzero"/><path fill="#e8aa78" d="M 19.070312 31.136719 C 19.0625 30.636719 19.054688 30.121094 19.050781 29.589844 C 20.058594 29.238281 21.117188 29 22.207031 28.84375 C 22.207031 29.355469 22.207031 29.855469 22.210938 30.335938 C 21.117188 30.5 20.058594 30.753906 19.070312 31.136719 " fill-opacity="1" fill-rule="nonzero"/><path fill="#de8b4e" d="M 92.402344 42.839844 C 88.109375 42.839844 83.808594 42.613281 79.457031 42.058594 C 67.53125 40.546875 55.6875 38.394531 44.042969 35.40625 C 43.636719 35.300781 44.125 35.019531 44.289062 34.949219 C 52.589844 31.511719 65.507812 31.046875 74.3125 30.855469 C 75.320312 30.835938 76.308594 30.824219 77.285156 30.824219 C 88.226562 30.824219 97.175781 32.3125 107.164062 38.546875 C 108.875 39.335938 110.542969 40.066406 112.121094 41.0625 C 112.472656 41.285156 110.917969 41.726562 110.789062 41.738281 C 104.59375 42.378906 98.503906 42.839844 92.402344 42.839844 M 78.042969 32.644531 C 77.847656 32.644531 77.652344 32.648438 77.457031 32.648438 C 68.714844 32.691406 59.859375 32.8125 51.179688 33.953125 C 50.355469 34.0625 45.050781 34.570312 47.328125 35.132812 C 50.761719 35.984375 54.207031 36.785156 57.671875 37.488281 C 63.597656 38.691406 69.550781 39.757812 75.535156 40.609375 C 81.996094 41.527344 88.257812 41.941406 94.546875 41.941406 C 99.472656 41.941406 104.417969 41.6875 109.492188 41.21875 C 108.167969 40.464844 106.777344 39.835938 105.355469 39.179688 C 96.863281 33.882812 87.769531 32.644531 78.042969 32.644531 " fill-opacity="1" fill-rule="nonzero"/><path fill="#de8b4e" d="M 98.457031 39.980469 C 88.917969 39.980469 74.859375 37.847656 66.703125 36.046875 C 66.476562 36.03125 66.371094 35.96875 66.347656 35.882812 C 66.207031 35.6875 66.585938 35.394531 67.023438 35.214844 C 67.234375 35.105469 67.457031 35.039062 67.628906 35.035156 C 71.144531 35 74.902344 34.792969 78.695312 34.792969 C 84.933594 34.792969 91.273438 35.351562 96.820312 38.160156 C 97.625 38.574219 101.78125 39.878906 101.492188 39.894531 C 100.546875 39.953125 99.53125 39.980469 98.457031 39.980469 M 75.945312 35.90625 C 74.617188 35.90625 73.292969 35.925781 71.988281 35.957031 C 77.800781 37.191406 83.765625 38.914062 89.804688 38.914062 C 90.910156 38.914062 92.011719 38.855469 93.121094 38.726562 C 87.917969 36.351562 81.875 35.90625 75.945312 35.90625 " fill-opacity="1" fill-rule="nonzero"/><path fill="#de8b4e" d="M 72.492188 51.53125 C 82.800781 49.660156 93.070312 46.640625 103.535156 46.578125 C 103.652344 46.578125 103.773438 46.578125 103.890625 46.578125 C 114.273438 46.578125 124.785156 49.171875 135.167969 49.226562 C 136.460938 49.230469 145.597656 50.417969 144.53125 50.417969 C 144.527344 50.417969 144.527344 50.417969 144.527344 50.417969 C 134.960938 50.371094 116.492188 49.609375 106.359375 49.609375 C 106.027344 49.609375 105.699219 49.609375 105.386719 49.613281 C 98.625 49.648438 91.9375 50.289062 85.265625 51.152344 C 81.007812 51.242188 76.75 51.367188 72.492188 51.53125 " fill-opacity="1" fill-rule="nonzero"/><path fill="#de8b4e" d="M 92.144531 58.71875 C 92.027344 58.71875 91.910156 58.71875 91.789062 58.71875 C 81.328125 58.6875 71.054688 57.003906 60.746094 55.96875 C 65.003906 56.058594 69.261719 56.128906 73.519531 56.179688 C 80.191406 56.65625 86.878906 57.015625 93.640625 57.035156 C 93.980469 57.035156 94.328125 57.039062 94.691406 57.039062 C 104.839844 57.039062 123.238281 56.613281 132.78125 56.585938 C 132.78125 56.585938 132.785156 56.585938 132.785156 56.585938 C 133.851562 56.585938 124.71875 57.25 123.425781 57.25 C 113.039062 57.277344 102.53125 58.71875 92.144531 58.71875 " fill-opacity="1" fill-rule="nonzero"/><path fill="#612e18" d="M 151.960938 14.601562 L 160.683594 13.195312 L 170.328125 13.515625 L 177.640625 13.109375 L 194.558594 14.089844 L 178.066406 14.890625 L 165.441406 14.445312 L 151.960938 14.601562 " fill-opacity="1" fill-rule="nonzero"/><path fill="#ffcc9c" d="M 151.960938 14.601562 L 159.003906 11.761719 L 163.976562 12.023438 L 171.195312 12.230469 L 176.8125 11.484375 L 182.375 12.261719 L 189.808594 12.445312 L 194.558594 14.089844 L 177.640625 13.109375 L 170.328125 13.515625 L 160.679688 13.199219 L 151.960938 14.601562 " fill-opacity="1" fill-rule="nonzero"/><path fill="#612e18" d="M 18.289062 17.09375 L 22.84375 15.785156 L 27.699219 16.550781 L 31.441406 16.363281 L 39.929688 18.199219 L 31.496094 18.472656 L 25.136719 17.449219 L 18.289062 17.09375 " fill-opacity="1" fill-rule="nonzero"/><path fill="#ffcc9c" d="M 18.289062 17.09375 L 22.125 14.03125 L 24.625 14.542969 L 28.257812 15.074219 L 31.171875 14.421875 L 33.917969 15.554688 L 37.671875 16.070312 L 39.929688 18.199219 L 31.441406 16.363281 L 27.699219 16.550781 L 22.835938 15.792969 L 18.289062 17.09375 " fill-opacity="1" fill-rule="nonzero"/><g clip-path="url(#c76610eac5)"><path fill="#612e18" d="M 60.195312 27.039062 C 60.316406 27.367188 60.585938 28.152344 60.960938 29.246094 C 61.148438 29.785156 61.359375 30.398438 61.585938 31.070312 C 61.761719 31.578125 61.945312 32.117188 62.136719 32.683594 C 62.339844 33.269531 62.550781 33.882812 62.765625 34.511719 C 65.035156 41.128906 67.996094 49.632812 68.304688 49.53125 C 68.609375 49.425781 65.800781 40.890625 63.578125 34.234375 C 63.367188 33.605469 63.160156 32.992188 62.964844 32.402344 C 62.777344 31.839844 62.59375 31.296875 62.425781 30.789062 C 62.199219 30.117188 61.992188 29.5 61.8125 28.957031 C 61.414062 27.757812 61.132812 26.910156 61.039062 26.597656 C 60.976562 26.328125 60.890625 26.070312 60.777344 25.820312 C 60.644531 25.542969 60.4375 24.894531 60.148438 24.8125 C 60.125 24.808594 59.957031 24.714844 59.882812 24.875 C 59.863281 24.917969 59.714844 25.273438 59.933594 26.148438 C 60.027344 26.523438 60.074219 26.710938 60.195312 27.039062 Z M 60.195312 27.039062 " fill-opacity="1" fill-rule="nonzero"/></g><path fill="#f4a766" d="M 60.960938 29.242188 C 61.148438 29.785156 61.359375 30.398438 61.585938 31.070312 L 62.421875 30.789062 C 62.199219 30.117188 61.992188 29.5 61.808594 28.957031 Z M 60.960938 29.242188 " fill-opacity="1" fill-rule="nonzero"/><path fill="#f4a766" d="M 62.140625 32.683594 C 62.339844 33.269531 62.550781 33.882812 62.765625 34.511719 L 63.578125 34.238281 C 63.367188 33.605469 63.160156 32.992188 62.964844 32.40625 Z M 62.140625 32.683594 " fill-opacity="1" fill-rule="nonzero"/><g clip-path="url(#e37f09d22a)"><path fill="#612e18" d="M 52.6875 30.929688 C 52.898438 31.207031 53.390625 31.878906 54.0625 32.816406 C 54.398438 33.277344 54.777344 33.804688 55.195312 34.382812 C 55.507812 34.816406 55.84375 35.28125 56.191406 35.761719 C 56.554688 36.265625 56.933594 36.789062 57.320312 37.328125 C 61.417969 43 66.722656 50.273438 66.984375 50.089844 C 67.25 49.902344 62.078125 42.554688 58.015625 36.828125 L 56.898438 35.253906 L 55.910156 33.867188 C 55.5 33.289062 55.121094 32.761719 54.789062 32.292969 C 54.058594 31.261719 53.546875 30.53125 53.363281 30.261719 C 53.226562 30.023438 53.070312 29.800781 52.890625 29.59375 C 52.683594 29.367188 52.292969 28.804688 51.992188 28.8125 C 51.96875 28.8125 51.78125 28.773438 51.757812 28.949219 C 51.75 28.996094 51.710938 29.378906 52.175781 30.152344 C 52.375 30.484375 52.476562 30.648438 52.6875 30.929688 Z M 52.6875 30.929688 " fill-opacity="1" fill-rule="nonzero"/></g><path fill="#f4a766" d="M 54.0625 32.816406 C 54.394531 33.277344 54.777344 33.804688 55.191406 34.382812 L 55.910156 33.867188 C 55.5 33.289062 55.125 32.761719 54.792969 32.292969 Z M 54.0625 32.816406 " fill-opacity="1" fill-rule="nonzero"/><path fill="#f4a766" d="M 56.1875 35.761719 C 56.550781 36.265625 56.929688 36.789062 57.320312 37.328125 L 58.015625 36.828125 L 56.898438 35.253906 Z M 56.1875 35.761719 " fill-opacity="1" fill-rule="nonzero"/><g clip-path="url(#6ce8f483b0)"><path fill="#612e18" d="M 178.804688 27.039062 C 178.679688 27.367188 178.410156 28.152344 178.035156 29.246094 C 177.847656 29.785156 177.640625 30.398438 177.410156 31.070312 C 177.238281 31.578125 177.050781 32.117188 176.859375 32.683594 C 176.65625 33.269531 176.445312 33.882812 176.230469 34.511719 C 173.960938 41.128906 171 49.632812 170.695312 49.53125 C 170.386719 49.425781 173.195312 40.890625 175.417969 34.234375 C 175.628906 33.605469 175.835938 32.992188 176.03125 32.402344 C 176.222656 31.839844 176.402344 31.296875 176.574219 30.789062 C 176.796875 30.117188 177.003906 29.5 177.183594 28.957031 C 177.585938 27.757812 177.863281 26.910156 177.957031 26.597656 C 178.019531 26.328125 178.105469 26.070312 178.21875 25.820312 C 178.351562 25.542969 178.558594 24.894531 178.847656 24.8125 C 178.875 24.808594 179.039062 24.714844 179.113281 24.875 C 179.132812 24.917969 179.28125 25.273438 179.066406 26.148438 C 178.96875 26.523438 178.925781 26.710938 178.804688 27.039062 Z M 178.804688 27.039062 " fill-opacity="1" fill-rule="nonzero"/></g><path fill="#f4a766" d="M 178.035156 29.242188 C 177.847656 29.785156 177.640625 30.398438 177.410156 31.070312 L 176.574219 30.789062 C 176.796875 30.117188 177.003906 29.5 177.1875 28.957031 Z M 178.035156 29.242188 " fill-opacity="1" fill-rule="nonzero"/><path fill="#f4a766" d="M 176.855469 32.683594 C 176.65625 33.269531 176.445312 33.882812 176.230469 34.511719 L 175.417969 34.238281 C 175.628906 33.605469 175.835938 32.992188 176.03125 32.40625 Z M 176.855469 32.683594 " fill-opacity="1" fill-rule="nonzero"/><g clip-path="url(#fb13b5af00)"><path fill="#612e18" d="M 186.308594 30.929688 C 186.097656 31.207031 185.609375 31.878906 184.933594 32.816406 C 184.597656 33.277344 184.21875 33.804688 183.800781 34.382812 C 183.488281 34.816406 183.15625 35.28125 182.804688 35.761719 C 182.445312 36.265625 182.066406 36.789062 181.675781 37.328125 C 177.578125 43 172.277344 50.273438 172.011719 50.089844 C 171.75 49.902344 176.917969 42.554688 180.980469 36.828125 L 182.101562 35.253906 L 183.085938 33.867188 C 183.496094 33.289062 183.875 32.761719 184.207031 32.292969 C 184.9375 31.261719 185.453125 30.53125 185.632812 30.261719 C 185.769531 30.023438 185.925781 29.800781 186.109375 29.59375 C 186.316406 29.367188 186.703125 28.804688 187.003906 28.8125 C 187.027344 28.8125 187.214844 28.773438 187.238281 28.949219 C 187.246094 28.996094 187.285156 29.378906 186.820312 30.152344 C 186.621094 30.484375 186.523438 30.648438 186.308594 30.929688 Z M 186.308594 30.929688 " fill-opacity="1" fill-rule="nonzero"/></g><path fill="#f4a766" d="M 184.933594 32.816406 C 184.601562 33.277344 184.21875 33.804688 183.804688 34.382812 L 183.085938 33.867188 C 183.496094 33.289062 183.871094 32.761719 184.207031 32.292969 Z M 184.933594 32.816406 " fill-opacity="1" fill-rule="nonzero"/><path fill="#f4a766" d="M 182.808594 35.761719 C 182.445312 36.265625 182.066406 36.789062 181.679688 37.328125 L 180.980469 36.828125 L 182.101562 35.253906 Z M 182.808594 35.761719 " fill-opacity="1" fill-rule="nonzero"/><g fill="#612e18" fill-opacity="1"><g transform="translate(69.025766, 40.421409)"><g><path d="M 7.078125 -12.5 C 8.472656 -12.5 9.546875 -12.15625 10.296875 -11.46875 C 11.054688 -10.78125 11.4375 -9.796875 11.4375 -8.515625 C 11.4375 -7.523438 11.203125 -6.65625 10.734375 -5.90625 C 10.273438 -5.15625 9.617188 -4.570312 8.765625 -4.15625 C 7.921875 -3.738281 6.945312 -3.53125 5.84375 -3.53125 L 4.890625 -3.53125 L 5.03125 0 L 1.15625 0 L 1.34375 -3.65625 L 1.15625 -12.46875 Z M 6.375 -6.234375 C 6.726562 -6.421875 6.984375 -6.664062 7.140625 -6.96875 C 7.304688 -7.269531 7.390625 -7.660156 7.390625 -8.140625 C 7.390625 -8.703125 7.253906 -9.113281 6.984375 -9.375 C 6.710938 -9.644531 6.285156 -9.789062 5.703125 -9.8125 L 5.015625 -9.75 L 4.9375 -6.3125 Z M 6.375 -6.234375 "/></g></g></g><g fill="#612e18" fill-opacity="1"><g transform="translate(80.457257, 40.421409)"><g><path d="M 8.71875 -2.890625 L 8.484375 0 L 1.0625 0 L 1.25 -3.65625 L 1.0625 -12.46875 L 5 -12.46875 L 4.78125 -4.046875 L 4.8125 -3.15625 L 8.5 -3.15625 Z M 8.71875 -2.890625 "/></g></g></g><g fill="#612e18" fill-opacity="1"><g transform="translate(89.170639, 40.421409)"><g><path d="M 11.890625 0 L 7.984375 0 L 7.640625 -2.0625 L 7.609375 -2.125 L 5.71875 -2.15625 L 4.140625 -2.078125 L 3.8125 0 L 0.03125 0 L 3.8125 -12.46875 L 8.484375 -12.46875 Z M 7.03125 -4.9375 L 6.1875 -9.03125 L 5.953125 -9.03125 L 4.875 -4.9375 L 5.953125 -4.921875 Z M 7.03125 -4.9375 "/></g></g></g><g fill="#612e18" fill-opacity="1"><g transform="translate(101.257568, 40.421409)"><g><path d="M 7.359375 -3.28125 L 7.515625 0 L 3.65625 0 L 3.859375 -3.28125 L 3.84375 -3.875 L -0.15625 -12.46875 L 3.890625 -12.46875 L 4.203125 -11.4375 L 5.609375 -7.671875 L 5.84375 -7.671875 L 7.46875 -11.296875 L 7.90625 -12.46875 L 11.84375 -12.46875 L 7.40625 -4.015625 Z M 7.359375 -3.28125 "/></g></g></g><g fill="#612e18" fill-opacity="1"><g transform="translate(112.708342, 40.421409)"><g/></g></g><g fill="#612e18" fill-opacity="1"><g transform="translate(115.310785, 40.421409)"><g><path d="M 11.890625 0 L 7.984375 0 L 7.640625 -2.0625 L 7.609375 -2.125 L 5.71875 -2.15625 L 4.140625 -2.078125 L 3.8125 0 L 0.03125 0 L 3.8125 -12.46875 L 8.484375 -12.46875 Z M 7.03125 -4.9375 L 6.1875 -9.03125 L 5.953125 -9.03125 L 4.875 -4.9375 L 5.953125 -4.921875 Z M 7.03125 -4.9375 "/></g></g></g><g fill="#612e18" fill-opacity="1"><g transform="translate(127.397714, 40.421409)"><g><path d="M 7.359375 -12.6875 C 8.753906 -12.6875 9.957031 -12.492188 10.96875 -12.109375 L 10.140625 -8.703125 L 9.828125 -8.703125 C 9.191406 -9.015625 8.640625 -9.242188 8.171875 -9.390625 C 7.703125 -9.535156 7.1875 -9.609375 6.625 -9.609375 C 6.039062 -9.609375 5.585938 -9.507812 5.265625 -9.3125 C 4.953125 -9.125 4.722656 -8.785156 4.578125 -8.296875 C 4.441406 -7.804688 4.375 -7.097656 4.375 -6.171875 C 4.375 -5.234375 4.441406 -4.515625 4.578125 -4.015625 C 4.722656 -3.523438 4.96875 -3.179688 5.3125 -2.984375 C 5.65625 -2.785156 6.144531 -2.6875 6.78125 -2.6875 C 6.96875 -2.6875 7.203125 -2.707031 7.484375 -2.75 L 7.484375 -3.375 L 7.421875 -5.46875 L 10.953125 -5.71875 L 10.890625 -4.03125 L 10.890625 -0.609375 C 9.398438 -0.046875 7.914062 0.234375 6.4375 0.234375 C 4.414062 0.234375 2.890625 -0.300781 1.859375 -1.375 C 0.835938 -2.445312 0.328125 -3.984375 0.328125 -5.984375 C 0.328125 -8.160156 0.929688 -9.820312 2.140625 -10.96875 C 3.359375 -12.113281 5.097656 -12.6875 7.359375 -12.6875 Z M 7.359375 -12.6875 "/></g></g></g><g fill="#612e18" fill-opacity="1"><g transform="translate(138.887043, 40.421409)"><g><path d="M 11.890625 0 L 7.984375 0 L 7.640625 -2.0625 L 7.609375 -2.125 L 5.71875 -2.15625 L 4.140625 -2.078125 L 3.8125 0 L 0.03125 0 L 3.8125 -12.46875 L 8.484375 -12.46875 Z M 7.03125 -4.9375 L 6.1875 -9.03125 L 5.953125 -9.03125 L 4.875 -4.9375 L 5.953125 -4.921875 Z M 7.03125 -4.9375 "/></g></g></g><g fill="#612e18" fill-opacity="1"><g transform="translate(150.973971, 40.421409)"><g><path d="M 4.875 -4.046875 L 5.03125 0 L 1.15625 0 L 1.34375 -3.65625 L 1.15625 -12.46875 L 5.09375 -12.46875 Z M 4.875 -4.046875 "/></g></g></g><g fill="#612e18" fill-opacity="1"><g transform="translate(157.277674, 40.421409)"><g><path d="M 12.328125 -4.0625 L 12.46875 0 L 8.265625 0 L 4.765625 -6.671875 L 4.53125 -6.671875 L 4.515625 -4.515625 L 4.671875 0 L 1.15625 0 L 1.34375 -3.65625 L 1.15625 -12.46875 L 5.359375 -12.46875 L 8.875 -5.796875 L 9.09375 -5.796875 L 8.984375 -12.34375 L 12.53125 -12.546875 Z M 12.328125 -4.0625 "/></g></g></g></svg>