<svg xmlns="http://www.w3.org/2000/svg" xmlns:xlink="http://www.w3.org/1999/xlink" width="320" zoomAndPan="magnify" viewBox="0 0 240 74.999997" height="100" preserveAspectRatio="xMidYMid meet" version="1.0"><defs><g/><clipPath id="b840ccdf30"><path d="M 0.183594 8.453125 L 175.316406 8.453125 L 175.316406 67.796875 L 0.183594 67.796875 Z M 0.183594 8.453125 " clip-rule="nonzero"/></clipPath><clipPath id="bfeec121d8"><path d="M 178.511719 7.054688 L 239.980469 7.054688 L 239.980469 67.804688 L 178.511719 67.804688 Z M 178.511719 7.054688 " clip-rule="nonzero"/></clipPath><clipPath id="c73682bf8c"><path d="M 181 7.054688 L 238 7.054688 L 238 64 L 181 64 Z M 181 7.054688 " clip-rule="nonzero"/></clipPath></defs><g clip-path="url(#b840ccdf30)"><path fill="#612e18" d="M 174.789062 48.789062 C 174.78125 48.570312 174.765625 48.34375 174.734375 48.113281 L 174.683594 47.699219 L 174.800781 47.300781 C 175.15625 46.09375 175.328125 44.6875 175.3125 43.128906 C 175.300781 41.5625 175.144531 39.8125 175.042969 38.644531 C 175.011719 38.320312 174.988281 38.046875 174.972656 37.867188 C 174.925781 36.894531 174.738281 35.976562 174.414062 35.132812 L 174.253906 34.722656 L 174.300781 34.015625 C 175.316406 15.113281 172.261719 12.960938 169.671875 11.824219 C 167.660156 10.941406 162.328125 8.453125 127.152344 8.453125 C 81.097656 8.453125 7.34375 11.597656 6.621094 11.625 L 1.058594 14.394531 L 0.914062 17.371094 C 0.878906 17.929688 0.0351562 31.242188 0.207031 42.792969 C 0.222656 43.941406 0.441406 44.988281 0.847656 45.90625 L 1.089844 46.457031 L 0.625 49.285156 C 0.535156 49.84375 0.417969 50.570312 0.28125 51.445312 C 0.183594 55.015625 2.019531 61.519531 2.519531 62.46875 L 4.53125 66.273438 L 8.8125 66.402344 C 9.246094 66.414062 55.324219 67.796875 97.171875 67.796875 C 150.269531 67.796875 162.511719 65.640625 167.105469 64.019531 C 170.222656 62.917969 173.285156 60.902344 174.785156 49.722656 L 174.824219 49.550781 C 174.8125 49.296875 174.804688 49.039062 174.789062 48.789062 " fill-opacity="1" fill-rule="nonzero"/></g><path fill="#8c5130" d="M 27.6875 44.144531 L 38.445312 47.9375 L 6.394531 45.652344 L 2.691406 47.179688 C 2.460938 48.585938 2.238281 50.015625 2.023438 51.46875 C 1.695312 52.351562 1.820312 54.910156 2.914062 58.214844 C 3.199219 59.078125 3.828125 60.746094 4.238281 61.5 C 5.082031 63.0625 5.734375 64.320312 5.734375 64.320312 C 5.734375 64.320312 14.964844 64.613281 19.023438 64.683594 C 22.558594 64.738281 33.066406 65.109375 37.855469 65.058594 C 43.289062 64.996094 52.546875 65.347656 67.730469 65.558594 C 76.480469 65.675781 84.878906 65.761719 94.226562 65.804688 C 97.839844 65.820312 101.4375 65.78125 104.976562 65.746094 C 108.921875 65.703125 112.796875 65.664062 116.535156 65.695312 C 124.527344 65.765625 147.613281 64.898438 155.566406 64.09375 C 157.449219 63.902344 161.257812 63.394531 163.972656 62.796875 C 165.765625 62.402344 166.6875 62.09375 167.792969 61.5 C 168.300781 61.234375 169.246094 60.480469 170.246094 58.871094 C 170.320312 58.792969 170.410156 58.449219 170.476562 58.339844 C 171.808594 56.070312 172.789062 49.773438 172.777344 49.574219 C 172.769531 49.402344 172.75 48.53125 172.726562 48.355469 L 172.628906 47.53125 L 167.882812 44.269531 C 168.027344 43.785156 163.609375 44.078125 158.941406 44.375 C 153.816406 44.699219 148.394531 45.023438 148.386719 44.3125 C 148.375 43.304688 158.484375 41.933594 162.390625 43 C 164.929688 43.695312 172.832031 43.492188 172.933594 43.144531 C 173.035156 42.800781 172.996094 38.183594 172.957031 37.972656 C 172.507812 35.707031 172.941406 34.691406 171.648438 33.792969 C 170.179688 32.765625 168.441406 32.1875 167.164062 31.757812 L 159.628906 31.273438 L 171.441406 29.707031 C 172.636719 10.878906 168.792969 13.007812 166.789062 12.132812 C 165.050781 11.367188 161.804688 9.941406 127.054688 9.941406 C 81.316406 9.941406 7.488281 12.199219 6.769531 12.230469 L 3.132812 14.359375 L 2.933594 17.496094 C 2.894531 18.058594 2.027344 29.734375 2.199219 41.1875 C 2.199219 41.1875 24.441406 43.488281 27.6875 44.144531 " fill-opacity="1" fill-rule="nonzero"/><path fill="#f4a766" d="M 168.34375 48.855469 C 168.308594 46.929688 168.230469 45.894531 167.882812 44.269531 C 167.644531 43.140625 152.019531 41.578125 152.019531 41.578125 C 152.019531 41.578125 163.242188 41.972656 167.90625 40.707031 C 168.890625 40.441406 167.894531 33.523438 167.652344 32.238281 C 167.195312 29.753906 138.226562 29.894531 138.226562 29.894531 L 167.394531 28.320312 C 167.394531 28.320312 168.363281 12.871094 165.125 11.433594 C 155.257812 7.058594 6.769531 12.230469 6.769531 12.230469 C 6.769531 12.230469 4.851562 28.546875 6.066406 37.675781 C 6.195312 38.617188 42.808594 42.140625 42.808594 42.140625 L 6.394531 45.652344 C 6.394531 45.652344 6.042969 47.804688 5.5625 51.324219 C 5.558594 51.371094 5.550781 51.414062 5.542969 51.460938 C 5.550781 51.460938 5.597656 52.761719 5.558594 51.460938 C 5.53125 52.003906 5.714844 53.109375 5.800781 53.976562 C 5.972656 55.703125 6.9375 56.53125 6.9375 56.53125 C 6.9375 56.53125 148.566406 60.84375 166.390625 54.535156 C 167.257812 54.226562 167.78125 52.171875 168.34375 49.660156 C 168.292969 49.667969 168.320312 49.460938 168.34375 49.257812 C 168.367188 49.054688 168.390625 48.847656 168.34375 48.855469 " fill-opacity="1" fill-rule="nonzero"/><path fill="#ffcc9c" d="M 6.769531 12.230469 C 6.769531 12.230469 5.996094 18.964844 5.753906 25.578125 C 5.542969 31.535156 5.847656 37.414062 6.066406 37.675781 C 6.90625 38.671875 42.808594 42.140625 42.808594 42.140625 C 42.808594 42.140625 9.417969 37.765625 8.609375 36.621094 C 7.800781 35.480469 8.675781 12.160156 8.675781 12.160156 L 6.769531 12.230469 " fill-opacity="1" fill-rule="nonzero"/><path fill="#ffcc9c" d="M 8.675781 12.160156 L 8.621094 13.84375 C 8.621094 13.84375 13.800781 12.820312 17.441406 13 C 18.914062 13.078125 19.410156 12.976562 20.050781 12.878906 C 21 12.734375 22.269531 12.589844 27.449219 13 C 32.25 13.382812 37.109375 12.890625 40.707031 12.402344 C 43.625 12.003906 45.714844 11.605469 46.257812 11.675781 C 47.472656 11.828125 70.289062 12.222656 71.773438 12 C 73.257812 11.773438 95.070312 9.964844 96.367188 9.941406 C 97.003906 9.933594 78.882812 10.203125 61.375 10.617188 C 43.378906 11.042969 25.96875 11.609375 25.96875 11.609375 L 8.675781 12.160156 " fill-opacity="1" fill-rule="nonzero"/><path fill="#ffcc9c" d="M 168.34375 49.710938 L 168.34375 49.660156 L 168.339844 49.660156 C 168.277344 46.652344 168.117188 44.472656 167.789062 44.121094 C 166.726562 42.976562 152.019531 41.578125 152.019531 41.578125 C 152.019531 41.578125 165.0625 43.953125 166.433594 45.105469 C 167.136719 45.695312 167.121094 48.207031 167.03125 49.875 C 166.519531 52.710938 165.199219 54.894531 165.199219 54.894531 C 165.199219 54.894531 166.160156 54.628906 166.390625 54.535156 C 166.578125 54.457031 166.875 54.210938 166.875 54.210938 C 166.875 54.210938 167.578125 53.507812 168.003906 52.039062 C 168.160156 51.5 168.320312 50.730469 168.335938 49.804688 L 168.34375 49.804688 C 168.34375 49.773438 168.34375 49.742188 168.34375 49.710938 " fill-opacity="1" fill-rule="nonzero"/><path fill="#ffcc9c" d="M 166.324219 41.039062 C 166.324219 41.039062 167.136719 34.347656 165.777344 33.207031 C 164.421875 32.066406 138.226562 29.894531 138.226562 29.894531 C 138.226562 29.894531 161.40625 29.753906 166.757812 31.585938 C 167.222656 31.742188 167.625 31.757812 167.710938 32.613281 C 167.777344 33.230469 168.914062 40.371094 167.90625 40.707031 C 167.308594 40.90625 166.324219 41.039062 166.324219 41.039062 " fill-opacity="1" fill-rule="nonzero"/><path fill="#ffcc9c" d="M 6.9375 56.53125 C 7.386719 56.523438 6.421875 51.441406 6.871094 51.429688 C 7.339844 48.804688 8.121094 45.484375 9.246094 45.378906 C 8.394531 45.460938 6.394531 45.652344 6.394531 45.652344 C 6.394531 45.652344 5.917969 48.863281 5.542969 51.460938 C 5.515625 51.65625 5.789062 54.441406 5.875 54.753906 C 5.964844 55.066406 6.277344 55.824219 6.9375 56.53125 " fill-opacity="1" fill-rule="nonzero"/><path fill="#582612" d="M 2.40625 56.53125 C 2.398438 56.496094 2.378906 56.402344 2.359375 56.289062 C 2.378906 56.367188 2.398438 56.449219 2.421875 56.527344 C 2.414062 56.53125 2.410156 56.53125 2.40625 56.53125 " fill-opacity="1" fill-rule="nonzero"/><path fill="#7f4325" d="M 2.421875 56.527344 C 2.398438 56.449219 2.378906 56.367188 2.359375 56.289062 C 2.320312 56.082031 2.269531 55.8125 2.257812 55.734375 C 2.296875 55.648438 2.382812 55.5625 2.539062 55.496094 C 3.144531 55.242188 3.664062 54.984375 4.144531 54.738281 C 4.320312 54.710938 4.761719 54.519531 5.796875 54.253906 C 5.828125 54.503906 5.855469 54.6875 5.875 54.753906 C 5.902344 54.835938 5.941406 54.957031 6 55.097656 C 4.652344 55.523438 3.589844 56.003906 3.058594 56.226562 C 2.773438 56.347656 2.5625 56.480469 2.421875 56.527344 " fill-opacity="1" fill-rule="nonzero"/><path fill="#de8b4e" d="M 6.984375 54.808594 C 6.960938 54.546875 6.933594 54.273438 6.90625 54 C 8.113281 53.746094 9.828125 53.464844 12.238281 53.207031 C 17.832031 52.617188 27.941406 52.210938 29.210938 51.992188 C 32.503906 51.421875 40.195312 48.929688 41.070312 48.847656 C 40.253906 49.042969 33.667969 52.007812 31.136719 52.6875 C 25.457031 54.21875 12.464844 54.167969 9.996094 54.3125 C 8.941406 54.371094 7.917969 54.566406 6.984375 54.808594 " fill-opacity="1" fill-rule="nonzero"/><path fill="#e8aa78" d="M 6 55.097656 C 5.941406 54.957031 5.902344 54.835938 5.875 54.753906 C 5.855469 54.6875 5.828125 54.503906 5.796875 54.253906 C 6.109375 54.175781 6.476562 54.089844 6.90625 54 C 6.933594 54.273438 6.960938 54.546875 6.984375 54.808594 C 6.644531 54.898438 6.3125 54.996094 6 55.097656 " fill-opacity="1" fill-rule="nonzero"/><path fill="#582612" d="M 83.246094 65.734375 C 82.085938 65.726562 80.929688 65.71875 79.773438 65.710938 C 79.710938 65.707031 79.648438 65.703125 79.585938 65.699219 C 80.800781 65.710938 82.027344 65.722656 83.257812 65.730469 C 83.253906 65.734375 83.25 65.734375 83.246094 65.734375 " fill-opacity="1" fill-rule="nonzero"/><path fill="#7f4325" d="M 83.257812 65.730469 C 82.027344 65.722656 80.800781 65.710938 79.585938 65.699219 C 67.257812 64.878906 62.414062 60.324219 54.53125 57.59375 C 55.339844 57.609375 56.15625 57.621094 56.972656 57.632812 C 65.765625 60.785156 74.277344 64.722656 83.609375 65.621094 C 83.46875 65.667969 83.351562 65.703125 83.257812 65.730469 " fill-opacity="1" fill-rule="nonzero"/><path fill="#de8b4e" d="M 56.972656 57.632812 C 56.15625 57.621094 55.339844 57.609375 54.53125 57.59375 C 52.136719 56.765625 49.464844 56.105469 46.210938 55.769531 C 42.378906 55.375 37.996094 54.28125 34.148438 53.976562 C 38.699219 54.191406 43.242188 54.496094 47.773438 54.820312 C 50.902344 55.5625 53.957031 56.550781 56.972656 57.632812 " fill-opacity="1" fill-rule="nonzero"/><path fill="#582612" d="M 96.578125 65.816406 C 95.140625 65.816406 94.050781 65.8125 94.226562 65.804688 C 94.820312 65.808594 95.417969 65.808594 96.007812 65.808594 C 98.15625 65.808594 100.296875 65.792969 102.417969 65.769531 C 102.390625 65.773438 102.363281 65.773438 102.335938 65.777344 C 102.304688 65.777344 102.265625 65.78125 102.230469 65.78125 C 101.621094 65.804688 98.71875 65.816406 96.578125 65.816406 " fill-opacity="1" fill-rule="nonzero"/><path fill="#7f4325" d="M 96.007812 65.808594 C 95.417969 65.808594 94.820312 65.808594 94.226562 65.804688 C 94.347656 65.800781 94.480469 65.789062 94.601562 65.78125 C 101.597656 65.390625 112.640625 61.625 122.8125 57.773438 C 123.476562 57.761719 124.128906 57.75 124.785156 57.734375 C 117.234375 61.234375 108.761719 65.445312 102.417969 65.769531 C 100.296875 65.792969 98.15625 65.808594 96.007812 65.808594 " fill-opacity="1" fill-rule="nonzero"/><path fill="#de8b4e" d="M 122.8125 57.773438 C 127.328125 56.0625 131.671875 54.335938 135.414062 52.878906 C 136.113281 52.839844 136.8125 52.804688 137.515625 52.769531 C 136.46875 53.128906 135.417969 53.480469 134.363281 53.804688 C 131.570312 54.660156 128.273438 56.121094 124.785156 57.734375 C 124.128906 57.75 123.476562 57.761719 122.8125 57.773438 " fill-opacity="1" fill-rule="nonzero"/><path fill="#de8b4e" d="M 20.550781 49.882812 C 19.3125 49.882812 18.136719 49.800781 17.054688 49.617188 C 17.023438 49.613281 16.984375 49.609375 16.945312 49.601562 C 15.964844 49.429688 9.015625 47.933594 9.101562 47.933594 C 9.105469 47.933594 9.109375 47.933594 9.121094 47.933594 C 9.238281 47.957031 9.371094 47.972656 9.492188 47.992188 C 11.242188 48.269531 13.292969 48.390625 15.554688 48.390625 C 26.195312 48.390625 41.488281 45.699219 52.121094 44.003906 C 52.816406 44.117188 53.507812 44.226562 54.203125 44.339844 C 53.101562 44.472656 52 44.589844 50.898438 44.683594 C 42.75 45.371094 29.785156 49.882812 20.550781 49.882812 " fill-opacity="1" fill-rule="nonzero"/><path fill="#582612" d="M 84.054688 65.761719 C 83.652344 65.761719 83.335938 65.757812 83.203125 65.75 C 83.21875 65.742188 83.230469 65.738281 83.246094 65.734375 C 83.25 65.734375 83.253906 65.734375 83.257812 65.730469 C 84.097656 65.738281 84.945312 65.746094 85.792969 65.753906 C 85.675781 65.753906 85.558594 65.753906 85.441406 65.753906 C 84.953125 65.757812 84.460938 65.761719 84.054688 65.761719 " fill-opacity="1" fill-rule="nonzero"/><path fill="#7f4325" d="M 87.511719 65.757812 C 87.394531 65.75 87.132812 65.75 86.792969 65.75 C 86.503906 65.75 86.15625 65.75 85.792969 65.753906 C 84.945312 65.746094 84.097656 65.738281 83.257812 65.730469 C 83.351562 65.703125 83.46875 65.667969 83.609375 65.621094 C 84.828125 65.226562 87.613281 64.246094 88.339844 64.070312 C 91.546875 63.289062 95.691406 60.671875 100.152344 57.96875 C 101.15625 57.96875 102.160156 57.964844 103.160156 57.960938 C 97.941406 60.847656 92.3125 64.113281 87.511719 65.757812 " fill-opacity="1" fill-rule="nonzero"/><path fill="#de8b4e" d="M 100.152344 57.96875 C 105.292969 54.855469 110.851562 51.632812 115.863281 50.996094 C 116.484375 50.914062 118.121094 50.890625 120.070312 50.890625 C 122.035156 50.890625 124.3125 50.917969 126.167969 50.941406 C 128.027344 50.96875 129.46875 50.996094 129.753906 50.996094 C 129.757812 50.996094 129.765625 50.996094 129.769531 50.996094 C 129.097656 51.058594 118.152344 52.402344 116.40625 52.457031 C 113.234375 52.550781 108.402344 55.066406 103.160156 57.960938 C 102.160156 57.964844 101.15625 57.96875 100.152344 57.96875 M 129.769531 50.996094 C 129.785156 50.996094 129.796875 50.996094 129.800781 50.996094 C 129.816406 50.996094 129.804688 50.996094 129.769531 50.996094 " fill-opacity="1" fill-rule="nonzero"/><path fill="#582612" d="M 129.382812 65.5 C 129.085938 65.5 128.800781 65.496094 128.550781 65.488281 C 129.511719 65.457031 130.492188 65.425781 131.488281 65.390625 C 131 65.46875 130.15625 65.5 129.382812 65.5 " fill-opacity="1" fill-rule="nonzero"/><path fill="#7f4325" d="M 128.550781 65.488281 C 128.390625 65.480469 128.246094 65.476562 128.121094 65.46875 C 127.738281 65.445312 127.546875 65.417969 127.726562 65.378906 C 131.289062 64.714844 138.351562 60.800781 145.074219 57.0625 C 145.703125 57.03125 146.3125 56.996094 146.921875 56.960938 C 141.4375 60.289062 134.394531 64.851562 131.574219 65.378906 C 131.546875 65.382812 131.519531 65.386719 131.488281 65.390625 C 130.492188 65.425781 129.511719 65.457031 128.550781 65.488281 " fill-opacity="1" fill-rule="nonzero"/><path fill="#de8b4e" d="M 145.074219 57.0625 C 148.71875 55.035156 152.265625 53.0625 155.101562 51.683594 C 157.359375 51.4375 159.605469 51.128906 161.84375 50.816406 C 158.9375 51.664062 155.855469 52.625 153.054688 53.625 C 151.777344 54.082031 149.523438 55.382812 146.921875 56.960938 C 146.3125 56.996094 145.703125 57.03125 145.074219 57.0625 " fill-opacity="1" fill-rule="nonzero"/><path fill="#de8b4e" d="M 30.070312 20.539062 C 29.503906 20.539062 28.933594 20.53125 28.363281 20.507812 C 24.335938 20.351562 19.734375 19.253906 15.757812 18.59375 C 13.542969 18.226562 10.949219 17.269531 8.511719 17.234375 C 8.519531 16.863281 8.53125 16.503906 8.542969 16.164062 C 8.613281 16.160156 8.683594 16.160156 8.753906 16.160156 C 11.621094 16.160156 14.691406 17.289062 17.84375 17.632812 C 22.585938 18.148438 27.507812 18.582031 32.402344 18.582031 C 36.773438 18.582031 41.125 18.238281 45.320312 17.289062 C 50.320312 16.167969 54.671875 13.460938 59.492188 11.984375 C 60.921875 12.007812 62.34375 12.023438 63.6875 12.039062 C 62.503906 12.308594 61.351562 12.644531 60.246094 13.078125 C 56.121094 14.691406 52.144531 16.742188 47.828125 17.835938 C 41.902344 19.339844 36.117188 20.539062 30.070312 20.539062 " fill-opacity="1" fill-rule="nonzero"/><path fill="#582612" d="M 2.75 19.96875 C 2.78125 19.5 2.8125 19.085938 2.835938 18.742188 C 2.839844 18.738281 2.84375 18.734375 2.847656 18.734375 C 2.824219 19.078125 2.800781 19.488281 2.769531 19.953125 L 2.769531 19.957031 L 2.75 19.96875 " fill-opacity="1" fill-rule="nonzero"/><path fill="#7f4325" d="M 2.769531 19.953125 C 2.800781 19.488281 2.824219 19.078125 2.847656 18.734375 C 3.957031 17.535156 5.128906 16.84375 6.34375 16.484375 C 6.316406 16.816406 6.285156 17.164062 6.257812 17.523438 C 5.300781 17.8125 4.398438 18.347656 3.589844 19.230469 L 2.769531 19.953125 " fill-opacity="1" fill-rule="nonzero"/><path fill="#de8b4e" d="M 6.257812 17.523438 C 6.285156 17.164062 6.316406 16.816406 6.34375 16.484375 C 6.347656 16.484375 6.347656 16.484375 6.347656 16.484375 C 6.316406 16.816406 6.289062 17.164062 6.257812 17.523438 " fill-opacity="1" fill-rule="nonzero"/><path fill="#582612" d="M 73.417969 10.355469 C 74.050781 10.324219 74.707031 10.292969 75.382812 10.257812 C 75.960938 10.230469 76.882812 10.199219 77.464844 10.199219 C 77.921875 10.199219 78.175781 10.214844 77.90625 10.265625 C 76.453125 10.292969 74.949219 10.324219 73.417969 10.355469 " fill-opacity="1" fill-rule="nonzero"/><path fill="#e8aa78" d="M 6.257812 17.523438 C 6.289062 17.164062 6.316406 16.816406 6.347656 16.484375 C 7.0625 16.269531 7.796875 16.175781 8.542969 16.164062 C 8.53125 16.503906 8.519531 16.863281 8.511719 17.234375 C 8.464844 17.234375 8.417969 17.234375 8.371094 17.234375 C 7.648438 17.234375 6.9375 17.316406 6.257812 17.523438 " fill-opacity="1" fill-rule="nonzero"/><path fill="#e8aa78" d="M 63.6875 12.039062 C 62.34375 12.023438 60.921875 12.007812 59.492188 11.984375 C 60.144531 11.785156 60.804688 11.609375 61.480469 11.460938 C 63.265625 11.070312 65.039062 10.851562 66.921875 10.703125 C 68.917969 10.542969 71.03125 10.464844 73.417969 10.355469 C 74.949219 10.324219 76.453125 10.292969 77.90625 10.265625 C 77.882812 10.269531 77.855469 10.273438 77.824219 10.277344 C 77.191406 10.371094 76.546875 10.449219 75.898438 10.523438 C 71.921875 10.976562 67.636719 11.132812 63.6875 12.039062 " fill-opacity="1" fill-rule="nonzero"/><path fill="#582612" d="M 112.828125 9.699219 C 112.074219 9.699219 111.585938 9.691406 112.085938 9.675781 C 112.371094 9.664062 112.65625 9.660156 112.9375 9.660156 C 113.394531 9.660156 113.847656 9.671875 114.296875 9.691406 C 113.820312 9.699219 113.277344 9.699219 112.828125 9.699219 " fill-opacity="1" fill-rule="nonzero"/><path fill="#582612" d="M 114.84375 9.726562 C 114.660156 9.710938 114.480469 9.703125 114.296875 9.691406 C 114.730469 9.6875 115.113281 9.683594 115.320312 9.675781 C 115.777344 9.65625 116.230469 9.648438 116.679688 9.648438 C 117.332031 9.648438 117.976562 9.667969 118.609375 9.699219 C 117.371094 9.707031 116.109375 9.714844 114.84375 9.726562 " fill-opacity="1" fill-rule="nonzero"/><path fill="#7f4325" d="M 171.632812 21.296875 C 170.378906 20.214844 168.941406 19.527344 167.40625 19.089844 C 167.378906 18.667969 167.347656 18.246094 167.308594 17.832031 C 168.75 18.179688 169.949219 18.84375 171.578125 20.195312 C 171.597656 20.546875 171.617188 20.914062 171.632812 21.296875 " fill-opacity="1" fill-rule="nonzero"/><path fill="#de8b4e" d="M 167.40625 19.089844 C 164.105469 18.152344 160.347656 18.347656 156.992188 18.183594 C 152.550781 17.96875 147.859375 18.324219 143.464844 17.648438 C 134.5625 16.28125 126.105469 11.261719 117.105469 9.972656 C 116.355469 9.867188 115.601562 9.777344 114.84375 9.726562 C 116.109375 9.714844 117.371094 9.707031 118.609375 9.699219 C 119.578125 9.75 120.519531 9.835938 121.445312 9.953125 C 130.40625 11.066406 137.671875 14.953125 147.324219 15.988281 C 152.5625 16.550781 157.800781 17.210938 163.066406 17.410156 C 164.855469 17.476562 166.15625 17.554688 167.308594 17.832031 C 167.347656 18.246094 167.378906 18.667969 167.40625 19.089844 " fill-opacity="1" fill-rule="nonzero"/><path fill="#de8b4e" d="M 113.511719 20.171875 C 111.425781 20.171875 109.269531 20 107.136719 19.828125 C 105.003906 19.65625 102.890625 19.484375 100.894531 19.484375 C 100.710938 19.484375 100.527344 19.484375 100.351562 19.488281 C 95.214844 19.574219 90.085938 19.976562 84.945312 19.976562 C 84.214844 19.976562 83.480469 19.964844 82.746094 19.949219 C 78.375 19.835938 75.65625 19.375 71.941406 17.066406 C 71.800781 16.976562 70.535156 16.285156 70.578125 16.183594 C 70.550781 16.0625 71.90625 15.902344 72.269531 15.777344 C 80.441406 13.007812 89.324219 12.484375 97.890625 12.070312 C 98.816406 12.023438 99.734375 12 100.648438 12 C 104.054688 12 107.390625 12.339844 110.742188 13.226562 C 115.394531 14.460938 120.253906 14.367188 124.898438 15.644531 C 125.316406 15.761719 125.160156 15.992188 124.898438 16.273438 C 121.988281 19.40625 117.90625 20.171875 113.511719 20.171875 M 100.765625 12.800781 C 100.53125 12.800781 100.296875 12.804688 100.058594 12.8125 C 91.375 13.09375 82.429688 13.613281 74.097656 16.257812 C 77.636719 18.359375 80.375 19.109375 84.765625 19.109375 C 84.800781 19.109375 84.835938 19.109375 84.867188 19.109375 C 88.859375 19.101562 92.839844 18.921875 96.828125 18.765625 C 97.609375 18.734375 98.394531 18.722656 99.191406 18.722656 C 100.804688 18.722656 102.449219 18.773438 104.101562 18.824219 C 105.757812 18.875 107.421875 18.921875 109.082031 18.921875 C 112.859375 18.921875 116.597656 18.660156 120.054688 17.535156 C 124.855469 15.976562 120.746094 15.667969 118.367188 15.414062 C 116.457031 15.207031 114.5 15.089844 112.609375 14.710938 C 108.644531 13.914062 104.839844 12.800781 100.765625 12.800781 " fill-opacity="1" fill-rule="nonzero"/><path fill="#582612" d="M 2.367188 27.152344 C 2.382812 26.734375 2.398438 26.328125 2.414062 25.933594 C 2.429688 25.914062 2.445312 25.894531 2.460938 25.875 C 2.441406 26.277344 2.425781 26.691406 2.410156 27.113281 L 2.367188 27.152344 " fill-opacity="1" fill-rule="nonzero"/><path fill="#7f4325" d="M 2.410156 27.113281 C 2.425781 26.691406 2.441406 26.277344 2.460938 25.875 C 3.242188 24.851562 4.484375 24.269531 5.828125 23.933594 C 5.816406 24.148438 5.804688 24.359375 5.796875 24.570312 C 4.90625 24.898438 4.082031 25.40625 3.410156 26.191406 L 2.410156 27.113281 M 171.585938 26.910156 C 170.367188 26.039062 168.972656 25.441406 167.515625 25.007812 C 167.519531 24.6875 167.523438 24.355469 167.527344 24.003906 C 168.988281 24.464844 170.375 25.0625 171.625 25.863281 C 171.613281 26.203125 171.601562 26.550781 171.585938 26.910156 " fill-opacity="1" fill-rule="nonzero"/><path fill="#de8b4e" d="M 106.765625 25.425781 C 100.285156 25.425781 93.792969 24.910156 87.519531 24.054688 C 80.890625 23.152344 73.949219 20.617188 67.238281 20.617188 C 67.101562 20.617188 66.960938 20.617188 66.824219 20.621094 C 58.875 20.742188 51.042969 23.722656 43.125 24.203125 C 41.71875 24.285156 40.3125 24.320312 38.910156 24.320312 C 36.332031 24.320312 33.757812 24.207031 31.183594 24.09375 C 28.609375 23.984375 26.035156 23.871094 23.453125 23.871094 C 22.480469 23.871094 21.507812 23.886719 20.535156 23.925781 C 18.269531 24.015625 16.058594 24.132812 13.816406 24.132812 C 13.285156 24.132812 12.746094 24.125 12.210938 24.113281 C 11.425781 24.089844 10.519531 24.027344 9.570312 24.027344 C 9.164062 24.027344 8.753906 24.039062 8.335938 24.070312 C 8.339844 23.898438 8.34375 23.726562 8.347656 23.558594 C 8.820312 23.523438 9.273438 23.503906 9.699219 23.496094 C 16.316406 23.339844 22.960938 23.246094 29.585938 23.171875 C 39.507812 23.058594 49.058594 22.097656 58.878906 20.828125 C 61.414062 20.5 63.769531 20.34375 66.066406 20.34375 C 70.382812 20.34375 74.488281 20.890625 79.171875 21.855469 C 87.570312 23.582031 96.183594 24.578125 104.765625 24.578125 C 105.222656 24.578125 105.671875 24.574219 106.128906 24.566406 C 115.207031 24.457031 123.621094 21.789062 132.507812 20.34375 C 134.214844 20.066406 135.941406 19.953125 137.675781 19.953125 C 143.066406 19.953125 148.554688 21.058594 153.824219 21.847656 C 158.105469 22.492188 163.164062 22.632812 167.527344 24.003906 C 167.523438 24.355469 167.519531 24.6875 167.515625 25.007812 C 165.660156 24.460938 163.699219 24.175781 161.839844 23.921875 C 158.261719 23.433594 154.726562 22.703125 151.148438 22.230469 C 148.152344 21.839844 145.3125 21.648438 142.519531 21.648438 C 137.5625 21.648438 132.757812 22.246094 127.507812 23.375 C 120.796875 24.820312 113.785156 25.425781 106.765625 25.425781 " fill-opacity="1" fill-rule="nonzero"/><path fill="#e8aa78" d="M 5.796875 24.570312 C 5.804688 24.359375 5.816406 24.148438 5.828125 23.933594 C 6.660156 23.726562 7.527344 23.617188 8.347656 23.558594 C 8.34375 23.726562 8.339844 23.898438 8.335938 24.070312 C 7.472656 24.128906 6.605469 24.273438 5.796875 24.570312 " fill-opacity="1" fill-rule="nonzero"/><path fill="#de8b4e" d="M 92.878906 17.648438 C 89.535156 17.648438 85.582031 17.492188 83.351562 16.441406 C 82.730469 16.144531 85.550781 16.046875 85.757812 16.007812 C 89.632812 15.289062 93.640625 15.113281 97.667969 15.113281 C 99.558594 15.113281 101.457031 15.152344 103.347656 15.1875 C 105.238281 15.230469 107.121094 15.265625 108.984375 15.265625 C 109.6875 15.265625 110.382812 15.261719 111.078125 15.246094 L 111.085938 15.246094 C 111.101562 15.246094 111.117188 15.246094 111.132812 15.246094 C 111.183594 15.246094 111.234375 15.25 111.273438 15.261719 C 111.578125 15.300781 114.144531 15.628906 113.984375 15.804688 C 113.847656 16 110.980469 16.027344 110.660156 16.082031 C 108.160156 16.488281 105.828125 17.601562 103.273438 17.601562 C 103.191406 17.601562 103.109375 17.601562 103.023438 17.597656 C 102.480469 17.582031 101.9375 17.574219 101.398438 17.574219 C 100.640625 17.574219 99.882812 17.585938 99.125 17.597656 C 98.371094 17.609375 97.613281 17.621094 96.855469 17.621094 C 96.792969 17.621094 96.726562 17.621094 96.664062 17.621094 C 96.621094 17.621094 96.582031 17.621094 96.542969 17.621094 C 96.039062 17.621094 95.46875 17.628906 94.851562 17.632812 C 94.234375 17.640625 93.570312 17.648438 92.878906 17.648438 M 97.246094 15.960938 C 93.980469 15.960938 90.730469 16.074219 87.554688 16.511719 C 88.898438 16.867188 90.476562 16.96875 92.070312 16.96875 C 94.144531 16.96875 96.242188 16.792969 97.878906 16.773438 L 103.640625 16.75 C 103.6875 16.75 103.730469 16.75 103.777344 16.75 C 105.042969 16.75 106.269531 16.449219 107.492188 16.109375 C 104.113281 16.085938 100.671875 15.960938 97.246094 15.960938 " fill-opacity="1" fill-rule="nonzero"/><path fill="#de8b4e" d="M 71.691406 51.476562 C 68.34375 51.476562 64.378906 51.320312 62.148438 50.265625 C 61.527344 49.972656 64.347656 49.871094 64.550781 49.835938 C 68.433594 49.113281 72.445312 48.9375 76.476562 48.9375 C 78.367188 48.9375 80.257812 48.980469 82.144531 49.015625 C 84.03125 49.054688 85.910156 49.09375 87.769531 49.09375 C 88.472656 49.09375 89.175781 49.085938 89.875 49.074219 L 89.882812 49.074219 C 89.898438 49.074219 89.910156 49.074219 89.925781 49.074219 C 89.980469 49.074219 90.027344 49.078125 90.070312 49.085938 C 90.371094 49.125 92.9375 49.460938 92.777344 49.632812 C 92.644531 49.828125 89.777344 49.855469 89.453125 49.910156 C 86.953125 50.316406 84.628906 51.429688 82.074219 51.429688 C 81.988281 51.429688 81.90625 51.425781 81.820312 51.425781 C 81.277344 51.410156 80.738281 51.402344 80.199219 51.402344 C 79.4375 51.402344 78.675781 51.414062 77.914062 51.425781 C 77.152344 51.4375 76.390625 51.449219 75.628906 51.449219 C 75.570312 51.449219 75.511719 51.449219 75.457031 51.449219 C 75.421875 51.449219 75.386719 51.449219 75.351562 51.449219 C 74.847656 51.449219 74.277344 51.457031 73.660156 51.460938 C 73.042969 51.46875 72.378906 51.476562 71.691406 51.476562 M 76.042969 49.785156 C 72.777344 49.785156 69.527344 49.902344 66.351562 50.335938 C 67.695312 50.695312 69.273438 50.796875 70.871094 50.796875 C 72.941406 50.796875 75.039062 50.621094 76.671875 50.601562 L 82.4375 50.574219 C 82.480469 50.578125 82.527344 50.578125 82.570312 50.578125 C 83.839844 50.578125 85.066406 50.277344 86.289062 49.9375 C 82.90625 49.914062 79.46875 49.785156 76.042969 49.785156 " fill-opacity="1" fill-rule="nonzero"/><path fill="#582612" d="M 172.363281 52.261719 C 172.351562 52.257812 172.339844 52.25 172.324219 52.242188 C 172.523438 51.257812 172.660156 50.425781 172.730469 49.960938 C 172.742188 49.988281 172.746094 50.015625 172.742188 50.035156 C 172.675781 50.429688 172.433594 51.898438 172.363281 52.261719 " fill-opacity="1" fill-rule="nonzero"/><path fill="#7f4325" d="M 172.324219 52.242188 C 171.511719 51.761719 170.734375 50.097656 169.820312 49.722656 C 169.335938 49.550781 168.84375 49.398438 168.34375 49.273438 C 168.34375 49.269531 168.34375 49.261719 168.34375 49.257812 C 168.367188 49.054688 168.390625 48.855469 168.347656 48.855469 C 168.34375 48.855469 168.34375 48.855469 168.34375 48.855469 C 168.339844 48.703125 168.335938 48.554688 168.332031 48.414062 C 169.738281 48.660156 171.101562 49.042969 172.386719 49.613281 C 172.546875 49.734375 172.6875 49.867188 172.730469 49.960938 C 172.660156 50.425781 172.523438 51.257812 172.324219 52.242188 M 172.386719 49.613281 C 172.171875 49.621094 172.121094 49.625 172.164062 49.625 C 172.195312 49.625 172.277344 49.621094 172.386719 49.613281 " fill-opacity="1" fill-rule="nonzero"/><path fill="#de8b4e" d="M 147.746094 49.398438 C 147.386719 49.398438 147.027344 49.390625 146.675781 49.378906 C 142.648438 49.246094 138.625 48.792969 134.882812 47.214844 C 131.4375 45.761719 128.175781 43.894531 124.707031 42.507812 C 117.28125 39.539062 109.3125 37.925781 101.417969 36.824219 C 96.175781 36.089844 90.464844 35.238281 86.679688 31.195312 C 86.375 30.867188 87.390625 30.605469 87.542969 30.574219 C 95.773438 28.863281 104.453125 29.464844 112.804688 28.578125 C 115.121094 28.332031 117.511719 28.097656 119.878906 28.097656 C 120.957031 28.097656 122.035156 28.144531 123.097656 28.265625 C 126.832031 28.683594 130.199219 29.953125 133.738281 31.144531 C 141.195312 33.648438 148.226562 34.089844 156 34.359375 C 159.21875 34.46875 162.945312 34.429688 166.449219 35.007812 C 166.496094 35.355469 166.527344 35.726562 166.546875 36.113281 C 164.632812 35.820312 162.613281 35.734375 160.601562 35.734375 C 159.332031 35.734375 158.066406 35.769531 156.832031 35.800781 C 155.601562 35.835938 154.398438 35.867188 153.265625 35.867188 C 152.808594 35.867188 152.359375 35.863281 151.925781 35.847656 C 145.804688 35.675781 139.5625 34.183594 133.726562 32.21875 C 129.953125 30.957031 126.121094 29.234375 122.105469 28.980469 C 121.199219 28.921875 120.296875 28.894531 119.398438 28.894531 C 115.722656 28.894531 112.09375 29.324219 108.417969 29.707031 C 101.8125 30.398438 97.921875 30.613281 91.367188 31.746094 C 96.035156 36.324219 100.300781 35.675781 106.417969 36.660156 C 113.878906 37.863281 121.695312 39.710938 128.523438 42.992188 C 132.75 45.027344 137 47.457031 141.710938 48.144531 C 144.164062 48.503906 146.613281 48.636719 149.066406 48.636719 C 150.980469 48.636719 152.894531 48.554688 154.820312 48.441406 C 157.449219 48.285156 160.308594 48.015625 163.15625 48.015625 C 164.472656 48.015625 165.789062 48.074219 167.074219 48.226562 C 167.078125 48.484375 167.074219 48.742188 167.066406 48.992188 C 165.410156 48.683594 163.683594 48.574219 161.925781 48.574219 C 159.542969 48.574219 157.101562 48.777344 154.703125 48.984375 C 152.308594 49.191406 149.957031 49.398438 147.746094 49.398438 M 168.34375 49.273438 C 168.335938 49.269531 168.335938 49.269531 168.332031 49.269531 C 168.324219 48.972656 168.316406 48.6875 168.304688 48.410156 C 168.316406 48.410156 168.324219 48.410156 168.332031 48.414062 C 168.335938 48.554688 168.339844 48.703125 168.34375 48.855469 C 168.34375 48.855469 168.34375 48.855469 168.347656 48.855469 C 168.390625 48.855469 168.367188 49.054688 168.34375 49.257812 C 168.34375 49.261719 168.34375 49.269531 168.34375 49.273438 " fill-opacity="1" fill-rule="nonzero"/><path fill="#582612" d="M 172.976562 38.46875 C 172.976562 38.445312 172.976562 38.421875 172.976562 38.398438 C 172.976562 38.421875 172.976562 38.445312 172.976562 38.46875 M 172.957031 37.972656 C 172.898438 37.671875 172.851562 37.394531 172.816406 37.136719 C 172.820312 37.136719 172.820312 37.136719 172.820312 37.136719 C 172.851562 37.394531 172.898438 37.671875 172.957031 37.972656 " fill-opacity="1" fill-rule="nonzero"/><path fill="#7f4325" d="M 172.976562 38.46875 C 171.582031 37.484375 169.957031 36.84375 168.203125 36.433594 C 168.167969 36.0625 168.128906 35.691406 168.089844 35.332031 C 169.777344 35.722656 171.382812 36.292969 172.816406 37.136719 C 172.851562 37.394531 172.898438 37.671875 172.957031 37.972656 C 172.960938 38.003906 172.96875 38.160156 172.976562 38.398438 C 172.976562 38.421875 172.976562 38.445312 172.976562 38.46875 " fill-opacity="1" fill-rule="nonzero"/><path fill="#de8b4e" d="M 168.203125 36.433594 C 168.195312 36.429688 168.1875 36.429688 168.179688 36.429688 C 168.144531 36.054688 168.105469 35.683594 168.0625 35.324219 C 168.074219 35.328125 168.082031 35.328125 168.089844 35.332031 C 168.128906 35.691406 168.167969 36.0625 168.203125 36.433594 " fill-opacity="1" fill-rule="nonzero"/><path fill="#e8aa78" d="M 168.332031 49.269531 C 167.914062 49.164062 167.492188 49.070312 167.066406 48.992188 C 167.074219 48.742188 167.078125 48.484375 167.074219 48.226562 C 167.488281 48.277344 167.898438 48.335938 168.304688 48.410156 C 168.316406 48.6875 168.324219 48.972656 168.332031 49.269531 " fill-opacity="1" fill-rule="nonzero"/><path fill="#e8aa78" d="M 168.179688 36.429688 C 167.644531 36.300781 167.097656 36.199219 166.546875 36.113281 C 166.527344 35.726562 166.496094 35.355469 166.449219 35.007812 C 166.996094 35.097656 167.53125 35.203125 168.0625 35.324219 C 168.105469 35.683594 168.144531 36.054688 168.179688 36.429688 " fill-opacity="1" fill-rule="nonzero"/><path fill="#de8b4e" d="M 163.484375 45.574219 C 163.484375 45.574219 163.480469 45.574219 163.476562 45.574219 C 157.523438 45.324219 146.378906 45.078125 140.578125 43.558594 C 137.25 42.6875 134.796875 40.726562 131.773438 39.230469 C 129.238281 37.976562 126.320312 37.253906 124.289062 35.203125 C 124.011719 34.925781 123.28125 33.8125 123.453125 33.8125 C 123.457031 33.8125 123.460938 33.8125 123.460938 33.8125 C 131.257812 34.789062 140.601562 39.046875 148.613281 39.046875 C 148.753906 39.046875 148.890625 39.042969 149.027344 39.039062 C 149.03125 39.039062 149.035156 39.039062 149.039062 39.039062 C 149.800781 39.039062 152.546875 40.257812 152.246094 40.265625 C 152.101562 40.269531 151.953125 40.269531 151.804688 40.269531 C 144.5 40.269531 133.859375 36.988281 126.949219 35.648438 C 128.882812 36.972656 131.214844 37.484375 133.25 38.714844 C 136.335938 40.582031 139.183594 42.5 142.804688 43.191406 C 148.371094 44.253906 153.703125 44.707031 159.359375 44.941406 C 160.101562 44.972656 163.703125 45.574219 163.484375 45.574219 " fill-opacity="1" fill-rule="nonzero"/><path fill="#de8b4e" d="M 131.675781 49.078125 C 130.203125 49.078125 124.199219 48.472656 123.21875 47.980469 C 116.839844 44.816406 110.753906 45.6875 105.039062 44.457031 C 100.40625 43.457031 95.652344 42.148438 91.304688 40.25 C 87.175781 38.445312 83.5 36.089844 79.78125 33.574219 C 74.765625 30.179688 70.148438 28.722656 64.265625 28.722656 C 63.757812 28.722656 63.238281 28.734375 62.714844 28.753906 C 50.777344 29.238281 38.816406 30.054688 26.914062 31.015625 C 23.785156 31.269531 20.8125 31.546875 17.738281 31.546875 C 17.148438 31.546875 16.554688 31.535156 15.953125 31.511719 C 14.652344 31.464844 13.191406 31.375 11.703125 31.375 C 10.554688 31.375 9.390625 31.429688 8.273438 31.597656 C 8.269531 31.207031 8.265625 30.800781 8.265625 30.386719 C 9.316406 30.238281 10.394531 30.183594 11.492188 30.183594 C 13.027344 30.183594 14.589844 30.289062 16.125 30.394531 C 17.660156 30.503906 19.171875 30.609375 20.597656 30.609375 C 21.203125 30.609375 21.792969 30.589844 22.363281 30.546875 C 35.320312 29.492188 48.332031 28.195312 61.320312 27.675781 C 63.828125 27.574219 66.503906 27.210938 69.117188 27.210938 C 71.464844 27.210938 73.761719 27.503906 75.835938 28.546875 C 80.34375 30.820312 83.988281 35.105469 88.472656 37.425781 C 94.53125 40.5625 101.503906 42.796875 108.257812 43.789062 C 113.253906 44.523438 124.320312 46.082031 129.097656 47.796875 L 131.929688 48.996094 C 132.089844 49.054688 131.976562 49.078125 131.675781 49.078125 " fill-opacity="1" fill-rule="nonzero"/><path fill="#582612" d="M 2.199219 34.148438 C 2.203125 33.902344 2.203125 33.277344 2.210938 33.035156 L 2.230469 33.011719 C 2.222656 33.386719 2.214844 33.765625 2.210938 34.148438 C 2.207031 34.148438 2.203125 34.148438 2.199219 34.148438 " fill-opacity="1" fill-rule="nonzero"/><path fill="#7f4325" d="M 2.210938 34.148438 C 2.214844 33.765625 2.222656 33.386719 2.230469 33.011719 L 2.25 32.988281 C 3.277344 32.066406 4.429688 31.429688 5.667969 30.996094 C 5.671875 31.421875 5.679688 31.84375 5.6875 32.257812 C 4.804688 32.601562 3.992188 33.066406 3.289062 33.703125 C 2.976562 33.984375 2.832031 33.949219 2.210938 34.148438 " fill-opacity="1" fill-rule="nonzero"/><path fill="#de8b4e" d="M 5.6875 32.257812 C 5.679688 31.84375 5.671875 31.421875 5.667969 30.996094 C 5.675781 30.996094 5.683594 30.992188 5.691406 30.992188 C 5.695312 31.421875 5.699219 31.84375 5.707031 32.25 C 5.699219 32.253906 5.695312 32.253906 5.6875 32.257812 " fill-opacity="1" fill-rule="nonzero"/><path fill="#e8aa78" d="M 5.707031 32.25 C 5.699219 31.84375 5.695312 31.421875 5.691406 30.992188 C 6.515625 30.707031 7.378906 30.511719 8.265625 30.386719 C 8.265625 30.800781 8.269531 31.207031 8.273438 31.597656 C 7.378906 31.730469 6.515625 31.9375 5.707031 32.25 " fill-opacity="1" fill-rule="nonzero"/><path fill="#de8b4e" d="M 65.582031 41.773438 C 62.078125 41.773438 58.566406 41.589844 55.011719 41.136719 C 45.273438 39.90625 35.605469 38.15625 26.097656 35.722656 C 25.765625 35.640625 26.164062 35.410156 26.296875 35.355469 C 33.078125 32.558594 43.621094 32.175781 50.8125 32.023438 C 51.632812 32.003906 52.441406 31.996094 53.238281 31.996094 C 62.175781 31.996094 69.480469 33.207031 77.636719 38.277344 C 79.03125 38.921875 80.394531 39.515625 81.683594 40.328125 C 81.96875 40.507812 80.703125 40.867188 80.59375 40.878906 C 75.535156 41.398438 70.566406 41.773438 65.582031 41.773438 M 53.859375 33.476562 C 53.699219 33.476562 53.539062 33.480469 53.378906 33.480469 C 46.242188 33.515625 39.011719 33.613281 31.925781 34.542969 C 31.25 34.628906 26.917969 35.042969 28.777344 35.5 C 31.582031 36.195312 34.394531 36.847656 37.226562 37.421875 C 42.0625 38.394531 46.925781 39.265625 51.808594 39.957031 C 57.085938 40.707031 62.195312 41.042969 67.332031 41.042969 C 71.355469 41.042969 75.394531 40.835938 79.535156 40.457031 C 78.453125 39.839844 77.320312 39.328125 76.160156 38.796875 C 69.222656 34.484375 61.800781 33.476562 53.859375 33.476562 " fill-opacity="1" fill-rule="nonzero"/><path fill="#de8b4e" d="M 70.527344 39.445312 C 62.738281 39.445312 51.257812 37.710938 44.597656 36.246094 C 44.414062 36.234375 44.328125 36.183594 44.308594 36.113281 C 44.191406 35.953125 44.503906 35.714844 44.859375 35.566406 C 45.035156 35.480469 45.214844 35.425781 45.355469 35.421875 C 48.226562 35.394531 51.292969 35.222656 54.390625 35.222656 C 59.484375 35.222656 64.660156 35.679688 69.1875 37.964844 C 69.847656 38.300781 73.242188 39.363281 73.003906 39.378906 C 72.230469 39.425781 71.402344 39.445312 70.527344 39.445312 M 52.144531 36.128906 C 51.058594 36.128906 49.980469 36.148438 48.914062 36.171875 C 53.660156 37.175781 58.53125 38.578125 63.460938 38.578125 C 64.363281 38.578125 65.265625 38.53125 66.167969 38.425781 C 61.921875 36.492188 56.984375 36.128906 52.144531 36.128906 " fill-opacity="1" fill-rule="nonzero"/><path fill="#de8b4e" d="M 49.328125 48.847656 C 57.742188 47.324219 66.128906 44.863281 74.671875 44.816406 C 74.769531 44.816406 74.867188 44.816406 74.964844 44.816406 C 83.441406 44.816406 92.023438 46.925781 100.5 46.96875 C 101.558594 46.972656 109.015625 47.9375 108.144531 47.9375 C 108.144531 47.9375 108.144531 47.9375 108.140625 47.9375 C 100.332031 47.902344 85.25 47.28125 76.980469 47.28125 C 76.707031 47.28125 76.441406 47.28125 76.183594 47.28125 C 70.664062 47.316406 65.203125 47.835938 59.753906 48.535156 C 56.277344 48.609375 52.800781 48.710938 49.328125 48.847656 " fill-opacity="1" fill-rule="nonzero"/><path fill="#de8b4e" d="M 65.371094 54.695312 C 65.277344 54.695312 65.179688 54.695312 65.082031 54.695312 C 56.542969 54.667969 48.152344 53.300781 39.738281 52.457031 C 43.210938 52.53125 46.6875 52.585938 50.164062 52.628906 C 55.613281 53.015625 61.074219 53.308594 66.59375 53.324219 C 66.871094 53.324219 67.15625 53.324219 67.453125 53.324219 C 75.738281 53.324219 90.761719 52.980469 98.550781 52.957031 C 98.554688 52.957031 98.554688 52.957031 98.554688 52.957031 C 99.425781 52.957031 91.96875 53.496094 90.910156 53.5 C 82.433594 53.523438 73.851562 54.695312 65.371094 54.695312 " fill-opacity="1" fill-rule="nonzero"/><path fill="#612e18" d="M 114.210938 18.796875 L 121.335938 17.652344 L 129.207031 17.914062 L 135.183594 17.582031 L 148.996094 18.378906 L 135.53125 19.03125 L 125.21875 18.671875 L 114.210938 18.796875 " fill-opacity="1" fill-rule="nonzero"/><path fill="#ffcc9c" d="M 114.210938 18.796875 L 119.964844 16.484375 L 124.023438 16.699219 L 129.917969 16.867188 L 134.503906 16.261719 L 139.046875 16.890625 L 145.113281 17.039062 L 148.996094 18.378906 L 135.183594 17.582031 L 129.207031 17.914062 L 121.328125 17.65625 L 114.210938 18.796875 " fill-opacity="1" fill-rule="nonzero"/><path fill="#612e18" d="M 5.070312 20.824219 L 8.785156 19.757812 L 12.75 20.382812 L 15.808594 20.230469 L 22.738281 21.722656 L 15.851562 21.945312 L 10.660156 21.113281 L 5.070312 20.824219 " fill-opacity="1" fill-rule="nonzero"/><path fill="#ffcc9c" d="M 5.070312 20.824219 L 8.199219 18.332031 L 10.242188 18.746094 L 13.207031 19.179688 L 15.589844 18.648438 L 17.832031 19.570312 L 20.894531 19.992188 L 22.738281 21.722656 L 15.808594 20.230469 L 12.75 20.382812 L 8.78125 19.765625 L 5.070312 20.824219 " fill-opacity="1" fill-rule="nonzero"/><g clip-path="url(#bfeec121d8)"><path fill="#612e18" d="M 209.246094 67.804688 C 207.15625 67.804688 205.078125 67.601562 203.058594 67.199219 C 201.082031 66.808594 199.144531 66.222656 197.292969 65.464844 C 196.863281 65.289062 196.453125 65.125 196.0625 64.96875 C 194.484375 64.339844 193.125 63.792969 191.953125 63.027344 L 191.128906 62.492188 C 190.355469 61.988281 189.558594 61.46875 188.109375 60.488281 C 187.75 60.25 187.332031 59.179688 187.3125 59.003906 C 187.03125 58.957031 186.953125 58.871094 186.742188 58.839844 C 186.441406 58.796875 186.160156 58.648438 185.957031 58.425781 C 183.359375 55.652344 180.710938 49.710938 180.6875 49.652344 C 179.984375 48.046875 179.632812 46.367188 179.261719 44.585938 L 179.136719 43.992188 C 178.722656 42.019531 178.511719 39.996094 178.511719 37.972656 C 178.511719 36.304688 178.796875 34.746094 179.035156 33.730469 C 179.15625 33.230469 179.675781 29.925781 180.957031 29.730469 C 180.894531 29.527344 181.027344 28.238281 181.015625 28.027344 C 180.960938 27.140625 181.285156 26.628906 181.519531 26.113281 C 182.035156 24.988281 182.484375 24.011719 183.347656 22.511719 C 183.808594 21.648438 184.328125 20.789062 184.875 19.988281 C 185.921875 18.4375 187.132812 16.972656 188.460938 15.644531 C 189.792969 14.316406 191.257812 13.113281 192.8125 12.0625 C 194.386719 11.003906 196.0625 10.09375 197.804688 9.359375 C 199.578125 8.609375 201.433594 8.035156 203.320312 7.652344 C 205.253906 7.253906 207.25 7.054688 209.246094 7.054688 C 211.246094 7.054688 213.238281 7.253906 215.167969 7.652344 C 217.054688 8.035156 218.914062 8.609375 220.6875 9.359375 L 220.851562 9.429688 C 221.554688 9.722656 223.671875 10.613281 225.144531 11.390625 C 225.441406 11.511719 226.0625 11.839844 226.324219 11.988281 C 226.675781 12.1875 226.570312 12.335938 226.636719 12.734375 C 226.714844 13.183594 227.0625 13.820312 227.0625 13.816406 C 227.027344 13.761719 227.28125 13.839844 227.609375 13.917969 C 227.898438 13.984375 228.25 14.054688 228.511719 14.03125 C 228.933594 13.992188 229.007812 13.863281 229.320312 14.015625 C 229.425781 14.070312 229.800781 14.328125 229.890625 14.40625 C 230.808594 15.207031 232.042969 16.964844 233.566406 19.632812 C 233.597656 19.667969 233.625 19.699219 233.648438 19.738281 C 234.804688 21.402344 236.808594 24.628906 237.558594 26.347656 C 238.351562 28.160156 238.953125 30.046875 239.355469 31.953125 C 239.773438 33.917969 239.980469 35.945312 239.980469 37.972656 C 239.980469 40 239.773438 42.027344 239.355469 43.992188 C 238.953125 45.902344 238.351562 47.785156 237.558594 49.597656 C 236.789062 51.367188 235.832031 53.070312 234.722656 54.664062 C 233.621094 56.25 232.355469 57.730469 230.964844 59.082031 C 229.585938 60.417969 228.0625 61.636719 226.449219 62.699219 C 226.425781 62.710938 226.402344 62.726562 226.378906 62.738281 C 224.722656 63.683594 222.066406 65.019531 221.953125 65.074219 C 221.761719 65.171875 221.558594 65.21875 221.351562 65.21875 C 220.953125 65.21875 220.550781 65.167969 220.289062 64.839844 C 220.285156 64.835938 219.722656 64.421875 219.722656 64.523438 C 219.824219 65.148438 219.292969 65.910156 218.707031 66.140625 C 217.574219 66.589844 216.582031 66.941406 215.433594 67.199219 C 213.402344 67.605469 211.332031 67.804688 209.246094 67.804688 " fill-opacity="1" fill-rule="nonzero"/></g><path fill="#8c5130" d="M 209.246094 65.765625 C 207.25 65.765625 205.253906 65.570312 203.320312 65.1875 C 201.433594 64.8125 199.578125 64.253906 197.804688 63.527344 C 195.664062 62.648438 194.019531 62.078125 192.6875 61.207031 C 191.566406 60.472656 190.808594 59.996094 188.859375 58.679688 C 188.839844 58.003906 188.550781 56.359375 188.742188 56.359375 C 189.363281 56.359375 193.46875 56.839844 194.808594 56.347656 L 195.710938 58.304688 C 191.90625 57.824219 188.484375 57.039062 186.9375 56.8125 C 184.667969 54.390625 182.183594 49.027344 181.917969 48.421875 C 181.273438 46.941406 180.933594 45.324219 180.578125 43.613281 L 180.453125 43.015625 C 180.054688 41.136719 179.855469 39.203125 179.855469 37.273438 C 179.855469 35.6875 180.027344 33.136719 180.230469 32.289062 C 180.691406 31.386719 181.199219 31.433594 181.6875 30.875 L 186.789062 32.386719 L 184.328125 30.421875 C 182.820312 29.46875 183.234375 29.820312 182.351562 29.308594 C 182.46875 28.875 182.195312 27.640625 182.417969 27.136719 C 183.152344 25.445312 184.195312 22.8125 185.257812 21.292969 C 186.308594 19.785156 187.132812 18.417969 188.460938 17.128906 C 189.792969 15.839844 191.253906 14.667969 192.8125 13.648438 C 194.386719 12.617188 196.066406 11.734375 197.804688 11.019531 C 199.578125 10.292969 201.433594 9.734375 203.320312 9.359375 C 205.253906 8.976562 207.25 8.78125 209.246094 8.78125 C 211.242188 8.78125 213.238281 8.976562 215.167969 9.359375 C 217.058594 9.734375 218.914062 10.292969 220.6875 11.019531 C 221.875 11.507812 223.4375 11.28125 225.3125 12.328125 C 225.386719 12.742188 225.316406 13.339844 225.332031 14.1875 L 219.9375 16.65625 L 222.457031 18.578125 C 222.617188 18.714844 222.40625 18.414062 222.320312 18.117188 C 222.238281 17.835938 222.273438 17.554688 222.84375 17.636719 C 230.523438 18.730469 232.1875 19.503906 232.542969 19.800781 C 233.652344 21.398438 235.617188 24.554688 236.328125 26.183594 C 237.078125 27.910156 237.65625 29.707031 238.039062 31.53125 C 238.4375 33.40625 238.636719 35.335938 238.636719 37.273438 C 238.636719 39.207031 238.4375 41.140625 238.039062 43.015625 C 237.65625 44.839844 237.078125 46.640625 236.328125 48.363281 C 235.589844 50.054688 234.679688 51.683594 233.617188 53.203125 C 232.5625 54.714844 231.359375 56.132812 230.03125 57.421875 C 228.710938 58.699219 227.257812 59.863281 225.710938 60.878906 C 224.066406 61.820312 221.351562 63.179688 221.351562 63.179688 C 221.351562 63.179688 220.484375 62.082031 218.90625 60.835938 L 216.476562 58.125 L 218.390625 61.925781 C 218.550781 62.484375 218.125 63.679688 218.210938 64.195312 C 217.203125 64.597656 216.253906 64.941406 215.132812 65.195312 C 213.238281 65.570312 211.242188 65.765625 209.246094 65.765625 " fill-opacity="1" fill-rule="nonzero"/><g clip-path="url(#c73682bf8c)"><path fill="#f4a766" d="M 209.246094 63.675781 C 207.339844 63.675781 205.4375 63.484375 203.589844 63.105469 C 201.789062 62.738281 200.019531 62.191406 198.332031 61.476562 C 196.265625 60.605469 194.65625 59.773438 193.398438 58.925781 C 192.726562 58.472656 189.871094 57.121094 188.742188 56.242188 C 189.945312 56.007812 192.925781 56.269531 194.152344 55.800781 L 190.421875 55.558594 C 190.421875 55.558594 188.632812 55.132812 186.890625 54.480469 C 185.085938 51.945312 183.320312 47.027344 183.15625 46.640625 C 182.5625 45.238281 182.234375 43.640625 181.894531 41.945312 L 181.769531 41.328125 C 181.390625 39.484375 181.199219 37.582031 181.199219 35.683594 C 181.199219 34.597656 181.542969 31.664062 181.6875 30.875 C 182.753906 30.648438 190.101562 31.640625 190.101562 31.640625 C 190.101562 31.640625 182.890625 27.625 182.417969 27.136719 C 182.519531 26.824219 183.296875 25.039062 183.402344 24.789062 C 184.105469 23.132812 184.972656 21.535156 185.988281 20.039062 C 186.988281 18.558594 188.140625 17.164062 189.410156 15.894531 C 190.683594 14.625 192.082031 13.476562 193.566406 12.476562 C 195.0625 11.464844 196.667969 10.597656 198.332031 9.894531 C 200.019531 9.183594 201.789062 8.632812 203.589844 8.265625 C 205.4375 7.886719 207.339844 7.695312 209.246094 7.695312 C 211.15625 7.695312 213.058594 7.886719 214.898438 8.265625 C 216.703125 8.632812 218.472656 9.183594 220.164062 9.894531 C 220.71875 10.128906 223.925781 11.449219 225.3125 12.328125 C 224.183594 12.703125 220.375 16.023438 220.375 16.023438 C 223.003906 15.054688 228.558594 14.5 229.007812 14.71875 C 230.910156 16.378906 234.449219 23.277344 235.089844 24.792969 C 235.808594 26.488281 236.359375 28.253906 236.722656 30.039062 C 237.101562 31.882812 237.292969 33.785156 237.292969 35.683594 C 237.292969 37.585938 237.101562 39.484375 236.722656 41.328125 C 236.359375 43.117188 235.808594 44.886719 235.089844 46.578125 C 234.386719 48.238281 233.515625 49.835938 232.503906 51.332031 C 231.5 52.816406 230.347656 54.210938 229.078125 55.476562 C 227.828125 56.726562 226.457031 57.859375 224.992188 58.851562 C 223.761719 59.570312 221.890625 60.609375 221.546875 60.738281 C 221.523438 60.714844 216.398438 56.882812 216.398438 56.882812 C 216.398438 56.882812 218.34375 61.707031 218.390625 61.914062 C 217.335938 62.3125 215.425781 62.984375 214.828125 63.121094 C 213.042969 63.484375 211.15625 63.675781 209.246094 63.675781 " fill-opacity="1" fill-rule="nonzero"/></g><path fill="#ffcc9c" d="M 190.101562 31.640625 C 190.101562 31.640625 182.304688 30.667969 181.6875 30.875 C 181.359375 30.988281 180.949219 34.082031 181.292969 37.992188 C 181.65625 42.121094 182.707031 45.78125 183.605469 47.796875 C 183.851562 48.351562 184.9375 51.078125 185.046875 51.171875 C 185.214844 51.308594 184.640625 49.871094 184.546875 49.390625 C 184.34375 48.308594 183.605469 46.8125 183.140625 44.773438 C 182.882812 43.632812 182.996094 41.785156 182.804688 40.640625 C 182.554688 39.144531 181.980469 37.773438 181.910156 36.335938 C 181.796875 34.015625 181.921875 32.097656 182.429688 31.980469 C 184.324219 31.542969 190.101562 31.640625 190.101562 31.640625 " fill-opacity="1" fill-rule="nonzero"/><path fill="#ffcc9c" d="M 216.398438 56.882812 L 218.390625 61.914062 C 218.390625 61.914062 215.71875 62.957031 214.828125 63.121094 C 214.34375 63.210938 211.535156 63.800781 207.5625 63.625 C 203.515625 63.445312 199.453125 62 198.417969 61.511719 C 198.1875 61.40625 197.683594 61.230469 197.507812 61.121094 C 197.351562 61.023438 196.1875 60.507812 196.1875 60.507812 C 196.273438 60.40625 197.417969 60.777344 197.417969 60.777344 C 197.417969 60.777344 205.582031 63.363281 210.9375 62.648438 C 212.753906 62.410156 215.285156 62.320312 216.101562 61.792969 C 217.296875 61.015625 216.398438 56.882812 216.398438 56.882812 " fill-opacity="1" fill-rule="nonzero"/><path fill="#ffcc9c" d="M 220.375 16.023438 C 220.375 16.023438 221.78125 15.503906 223.9375 15.164062 C 225.742188 14.875 227.617188 14.597656 228.855469 14.675781 C 229.277344 14.703125 229.824219 15.664062 230.351562 16.320312 C 231.480469 17.714844 232.785156 20.300781 232.980469 20.632812 C 233.167969 20.949219 234.101562 22.601562 234.894531 24.355469 C 235.671875 26.070312 236.285156 28.199219 236.304688 28.292969 C 236.355469 28.511719 236.425781 28.707031 236.425781 28.757812 C 236.429688 28.828125 235.886719 28.007812 235.542969 27.078125 C 235.121094 25.945312 232.40625 22.027344 231.914062 20.542969 C 231.433594 19.105469 229.539062 16.433594 228.949219 16.144531 C 228.363281 15.847656 220.375 16.023438 220.375 16.023438 " fill-opacity="1" fill-rule="nonzero"/><path fill="#5a2612" d="M 218.207031 63.871094 C 218.214844 63.777344 218.226562 63.671875 218.246094 63.566406 C 218.230469 63.675781 218.21875 63.773438 218.210938 63.871094 C 218.210938 63.871094 218.207031 63.871094 218.207031 63.871094 " fill-opacity="1" fill-rule="nonzero"/><path fill="#824324" d="M 205.101562 65.480469 C 204.503906 65.398438 203.910156 65.304688 203.320312 65.1875 C 201.589844 64.84375 199.890625 64.339844 198.253906 63.699219 C 201.351562 64.15625 204.460938 64.496094 207.652344 64.496094 C 207.886719 64.496094 208.121094 64.496094 208.351562 64.492188 C 211.691406 64.4375 214.980469 64.09375 218.246094 63.566406 C 218.226562 63.671875 218.214844 63.777344 218.207031 63.871094 C 213.660156 64.648438 209.507812 65.394531 205.101562 65.480469 " fill-opacity="1" fill-rule="nonzero"/><path fill="#824324" d="M 185.007812 54.214844 C 184.910156 54.058594 184.8125 53.898438 184.714844 53.742188 C 184.753906 53.738281 184.789062 53.730469 184.828125 53.726562 C 185.332031 53.6875 185.835938 53.652344 186.335938 53.625 C 186.429688 53.78125 186.527344 53.933594 186.621094 54.082031 C 186.074219 54.101562 185.535156 54.140625 185.007812 54.214844 M 234.292969 52.179688 C 233.53125 52.136719 232.765625 52.09375 232.003906 52.046875 C 232.175781 51.8125 232.34375 51.574219 232.503906 51.332031 C 232.558594 51.253906 232.613281 51.175781 232.664062 51.09375 C 233.386719 51.164062 234.105469 51.234375 234.824219 51.300781 C 234.652344 51.59375 234.480469 51.890625 234.292969 52.179688 " fill-opacity="1" fill-rule="nonzero"/><path fill="#e28b4c" d="M 190.882812 54.101562 C 190.378906 54.101562 189.859375 54.089844 189.335938 54.082031 C 188.8125 54.070312 188.285156 54.058594 187.757812 54.058594 C 187.378906 54.058594 186.996094 54.066406 186.621094 54.082031 C 186.527344 53.933594 186.429688 53.78125 186.335938 53.625 C 190.058594 53.425781 193.730469 53.539062 197.460938 52.957031 C 204.480469 51.867188 211.027344 50.046875 218.089844 50.046875 C 218.5625 50.046875 219.039062 50.054688 219.515625 50.070312 C 223.871094 50.226562 228.269531 50.667969 232.664062 51.09375 C 232.613281 51.175781 232.558594 51.253906 232.503906 51.332031 C 232.34375 51.574219 232.175781 51.8125 232.003906 52.046875 C 229.671875 51.914062 227.34375 51.777344 225.035156 51.679688 C 222.328125 51.5625 219.660156 51.484375 217.011719 51.484375 C 211.953125 51.484375 206.953125 51.773438 201.828125 52.65625 C 198.699219 53.191406 195.484375 53.863281 192.308594 54.0625 C 191.847656 54.09375 191.371094 54.101562 190.882812 54.101562 " fill-opacity="1" fill-rule="nonzero"/><path fill="#5a2612" d="M 219.144531 61.035156 C 219.0625 60.96875 218.992188 60.90625 218.90625 60.835938 C 218.988281 60.902344 219.070312 60.96875 219.148438 61.03125 C 219.148438 61.03125 219.144531 61.035156 219.144531 61.035156 " fill-opacity="1" fill-rule="nonzero"/><path fill="#824324" d="M 219.148438 61.03125 C 219.070312 60.96875 218.988281 60.902344 218.90625 60.835938 L 218.34375 60.210938 C 219.011719 60.097656 219.675781 59.972656 220.339844 59.832031 C 220.628906 60.046875 220.886719 60.242188 221.085938 60.390625 C 220.445312 60.605469 219.800781 60.820312 219.148438 61.03125 M 223.753906 59.5625 C 224.183594 59.320312 224.617188 59.070312 224.992188 58.851562 C 225.136719 58.753906 225.28125 58.652344 225.425781 58.550781 C 227.101562 58.074219 228.757812 57.558594 230.390625 57.050781 C 230.269531 57.175781 230.152344 57.300781 230.03125 57.421875 C 229.871094 57.570312 229.707031 57.71875 229.546875 57.863281 C 227.402344 58.484375 225.402344 59.089844 223.753906 59.5625 " fill-opacity="1" fill-rule="nonzero"/><path fill="#e28b4c" d="M 221.085938 60.390625 C 220.886719 60.242188 220.628906 60.046875 220.339844 59.832031 C 222.046875 59.472656 223.746094 59.03125 225.425781 58.550781 C 225.28125 58.652344 225.136719 58.753906 224.992188 58.851562 C 224.617188 59.070312 224.183594 59.320312 223.753906 59.5625 C 223.699219 59.578125 223.648438 59.589844 223.597656 59.605469 C 222.773438 59.839844 221.933594 60.109375 221.085938 60.390625 " fill-opacity="1" fill-rule="nonzero"/><path fill="#824324" d="M 232.253906 54.992188 C 231.363281 54.980469 230.46875 54.972656 229.578125 54.964844 C 229.820312 54.710938 230.058594 54.449219 230.292969 54.1875 C 231.175781 54.175781 232.03125 54.171875 232.855469 54.171875 C 232.871094 54.171875 232.890625 54.171875 232.90625 54.171875 C 232.695312 54.449219 232.476562 54.722656 232.253906 54.992188 " fill-opacity="1" fill-rule="nonzero"/><path fill="#e28b4c" d="M 195.199219 57.199219 L 194.933594 56.613281 C 200.933594 55.558594 207.351562 55.554688 213.152344 55.042969 C 219.667969 54.464844 225.429688 54.242188 230.292969 54.1875 C 230.058594 54.449219 229.820312 54.710938 229.578125 54.964844 C 228.996094 54.960938 228.410156 54.960938 227.828125 54.960938 C 222.875 54.960938 217.914062 55.097656 213.027344 55.53125 C 209.082031 55.878906 205.132812 56.144531 201.195312 56.558594 C 199.253906 56.761719 197.21875 56.925781 195.199219 57.199219 " fill-opacity="1" fill-rule="nonzero"/><path fill="#5a2612" d="M 218.175781 61.335938 C 218.066406 61.058594 217.925781 60.703125 217.773438 60.316406 L 218.210938 61.324219 C 218.199219 61.328125 218.1875 61.332031 218.175781 61.335938 " fill-opacity="1" fill-rule="nonzero"/><path fill="#824324" d="M 194.601562 59.671875 C 192.859375 59.367188 191.109375 59.128906 189.355469 59.011719 C 189.195312 58.90625 189.039062 58.800781 188.859375 58.679688 C 188.855469 58.546875 188.84375 58.371094 188.824219 58.183594 C 189.484375 57.945312 190.15625 57.722656 190.839844 57.53125 C 190.847656 57.53125 190.851562 57.53125 190.855469 57.535156 C 191.066406 57.648438 191.277344 57.761719 191.484375 57.871094 C 190.792969 58.035156 190.109375 58.21875 189.441406 58.4375 C 190.625 58.480469 191.808594 58.566406 192.988281 58.679688 C 193.160156 58.777344 193.300781 58.859375 193.398438 58.925781 C 193.769531 59.175781 194.167969 59.421875 194.601562 59.671875 " fill-opacity="1" fill-rule="nonzero"/><path fill="#e28b4c" d="M 211.898438 62.480469 C 211.75 62.480469 211.605469 62.476562 211.460938 62.472656 C 205.800781 62.261719 200.21875 60.644531 194.601562 59.671875 C 194.167969 59.421875 193.769531 59.175781 193.398438 58.925781 C 193.300781 58.859375 193.160156 58.777344 192.988281 58.679688 C 199.421875 59.296875 205.804688 60.746094 212.277344 60.746094 C 212.488281 60.746094 212.703125 60.746094 212.917969 60.742188 C 214.121094 60.722656 215.433594 60.613281 216.6875 60.457031 C 216.617188 61.0625 216.445312 61.566406 216.101562 61.792969 C 215.921875 61.90625 215.664062 62 215.351562 62.078125 C 215.007812 62.152344 214.667969 62.214844 214.324219 62.273438 C 213.835938 62.339844 213.300781 62.398438 212.761719 62.453125 C 212.472656 62.46875 212.183594 62.480469 211.898438 62.480469 M 218.160156 61.339844 L 217.753906 60.308594 C 217.757812 60.308594 217.761719 60.308594 217.769531 60.308594 L 217.773438 60.316406 C 217.925781 60.703125 218.066406 61.058594 218.175781 61.335938 C 218.167969 61.339844 218.164062 61.339844 218.160156 61.339844 M 191.484375 57.871094 C 191.277344 57.761719 191.066406 57.648438 190.855469 57.535156 C 191.234375 57.605469 191.632812 57.671875 192.039062 57.746094 C 191.855469 57.785156 191.667969 57.828125 191.484375 57.871094 " fill-opacity="1" fill-rule="nonzero"/><path fill="#edaa74" d="M 212.761719 62.453125 C 213.300781 62.398438 213.835938 62.339844 214.324219 62.273438 C 213.800781 62.355469 213.28125 62.417969 212.761719 62.453125 M 215.351562 62.078125 C 215.664062 62 215.921875 61.90625 216.101562 61.792969 C 216.445312 61.566406 216.617188 61.0625 216.6875 60.457031 C 217.046875 60.414062 217.40625 60.363281 217.753906 60.308594 L 218.160156 61.339844 C 217.242188 61.621094 216.300781 61.878906 215.351562 62.078125 " fill-opacity="1" fill-rule="nonzero"/><path fill="#824324" d="M 190.855469 57.535156 C 190.851562 57.53125 190.847656 57.53125 190.839844 57.53125 C 190.84375 57.53125 190.84375 57.53125 190.847656 57.527344 C 190.851562 57.53125 190.851562 57.53125 190.855469 57.535156 " fill-opacity="1" fill-rule="nonzero"/><path fill="#e28b4c" d="M 192.039062 57.746094 C 191.632812 57.671875 191.234375 57.605469 190.855469 57.535156 C 190.851562 57.53125 190.851562 57.53125 190.847656 57.527344 C 192.175781 57.152344 193.542969 56.859375 194.933594 56.613281 L 195.199219 57.199219 C 194.136719 57.34375 193.078125 57.519531 192.039062 57.746094 " fill-opacity="1" fill-rule="nonzero"/><path fill="#824324" d="M 236.476562 47.996094 C 235.820312 47.945312 235.167969 47.894531 234.515625 47.84375 C 234.71875 47.429688 234.910156 47.003906 235.089844 46.578125 C 235.121094 46.503906 235.152344 46.429688 235.183594 46.355469 C 235.816406 46.371094 236.453125 46.386719 237.085938 46.40625 C 236.898438 46.941406 236.695312 47.476562 236.476562 47.996094 M 181.097656 45.917969 C 181.027344 45.65625 180.964844 45.386719 180.90625 45.117188 C 181.285156 44.863281 181.667969 44.773438 182.066406 44.773438 C 182.222656 44.773438 182.378906 44.785156 182.539062 44.808594 C 182.59375 45.019531 182.652344 45.222656 182.71875 45.425781 C 182.652344 45.425781 182.589844 45.421875 182.527344 45.421875 C 181.980469 45.421875 181.527344 45.527344 181.242188 45.789062 C 181.21875 45.808594 181.164062 45.859375 181.097656 45.917969 " fill-opacity="1" fill-rule="nonzero"/><path fill="#e28b4c" d="M 234.515625 47.84375 C 228.574219 47.402344 222.640625 47.128906 216.589844 47.128906 C 215.828125 47.128906 215.066406 47.132812 214.300781 47.144531 C 208.167969 47.210938 202.039062 47.238281 195.910156 47.238281 C 194.882812 47.238281 193.847656 47.273438 192.8125 47.273438 C 191.410156 47.273438 190.007812 47.210938 188.632812 46.914062 C 187.574219 46.683594 185.164062 45.726562 183.316406 45.480469 C 183.269531 45.300781 183.222656 45.117188 183.175781 44.929688 C 183.4375 44.984375 183.710938 45.050781 184 45.109375 C 187.265625 45.765625 190.285156 46.535156 193.644531 46.535156 C 200.203125 46.535156 206.761719 46.523438 213.316406 46.449219 C 218.386719 46.390625 223.511719 46.285156 228.640625 46.285156 C 230.820312 46.285156 233.003906 46.304688 235.183594 46.355469 C 235.152344 46.429688 235.121094 46.503906 235.089844 46.578125 C 234.910156 47.003906 234.71875 47.429688 234.515625 47.84375 M 182.734375 45.429688 C 182.730469 45.429688 182.722656 45.429688 182.71875 45.425781 C 182.652344 45.222656 182.59375 45.019531 182.539062 44.808594 C 182.542969 44.808594 182.546875 44.808594 182.550781 44.808594 C 182.609375 45.023438 182.671875 45.226562 182.734375 45.429688 " fill-opacity="1" fill-rule="nonzero"/><path fill="#edaa74" d="M 183.316406 45.480469 C 183.117188 45.453125 182.921875 45.4375 182.734375 45.429688 C 182.671875 45.226562 182.609375 45.023438 182.550781 44.808594 C 182.753906 44.839844 182.960938 44.878906 183.175781 44.929688 C 183.222656 45.117188 183.269531 45.300781 183.316406 45.480469 " fill-opacity="1" fill-rule="nonzero"/><path fill="#824324" d="M 238.601562 38.707031 C 238.125 38.550781 237.652344 38.394531 237.179688 38.242188 C 237.207031 37.929688 237.230469 37.613281 237.25 37.296875 C 237.707031 37.449219 238.167969 37.597656 238.625 37.746094 C 238.621094 38.066406 238.617188 38.386719 238.601562 38.707031 M 237.292969 36 C 237.292969 35.894531 237.292969 35.789062 237.292969 35.683594 C 237.292969 35.527344 237.292969 35.367188 237.289062 35.207031 C 237.707031 35.15625 238.125 35.105469 238.539062 35.054688 C 238.5625 35.332031 238.589844 35.605469 238.601562 35.882812 C 238.164062 35.917969 237.726562 35.957031 237.292969 36 " fill-opacity="1" fill-rule="nonzero"/><path fill="#e28b4c" d="M 237.179688 38.242188 C 235.511719 37.699219 233.84375 37.160156 232.171875 36.636719 C 231.484375 36.421875 232.351562 35.964844 232.652344 35.910156 C 234.195312 35.636719 235.738281 35.40625 237.289062 35.207031 C 237.292969 35.367188 237.292969 35.527344 237.292969 35.683594 C 237.292969 35.789062 237.292969 35.894531 237.292969 36 C 236.300781 36.097656 235.3125 36.214844 234.332031 36.355469 C 235.304688 36.667969 236.277344 36.980469 237.25 37.296875 C 237.230469 37.613281 237.207031 37.929688 237.179688 38.242188 " fill-opacity="1" fill-rule="nonzero"/><path fill="#5a2612" d="M 238.296875 41.621094 C 238.296875 41.617188 238.300781 41.609375 238.300781 41.601562 C 238.300781 41.605469 238.300781 41.605469 238.300781 41.605469 C 238.300781 41.609375 238.296875 41.617188 238.296875 41.621094 " fill-opacity="1" fill-rule="nonzero"/><path fill="#824324" d="M 238.238281 41.949219 C 237.714844 41.835938 237.1875 41.722656 236.664062 41.617188 C 236.683594 41.519531 236.703125 41.421875 236.722656 41.328125 C 236.730469 41.289062 236.738281 41.246094 236.75 41.207031 C 237.265625 41.339844 237.785156 41.46875 238.300781 41.605469 C 238.300781 41.609375 238.296875 41.617188 238.296875 41.621094 C 238.277344 41.730469 238.253906 41.839844 238.238281 41.949219 M 237.019531 31.746094 C 236.957031 31.300781 236.882812 30.859375 236.796875 30.417969 C 237.109375 30.367188 237.425781 30.316406 237.734375 30.261719 C 237.84375 30.664062 237.941406 31.078125 238.027344 31.488281 C 237.691406 31.578125 237.355469 31.664062 237.019531 31.746094 " fill-opacity="1" fill-rule="nonzero"/><path fill="#e28b4c" d="M 236.664062 41.617188 C 232.136719 40.699219 227.550781 40.042969 223.113281 38.667969 C 217.492188 36.929688 211.6875 34.75 206.425781 32.117188 C 206.042969 31.925781 206.25 31.496094 206.605469 31.421875 C 209.613281 30.785156 212.730469 30.597656 215.886719 30.597656 C 218.136719 30.597656 220.40625 30.695312 222.664062 30.789062 C 224.921875 30.882812 227.171875 30.980469 229.378906 30.980469 C 230.214844 30.980469 231.042969 30.964844 231.863281 30.933594 C 233.546875 30.867188 235.183594 30.675781 236.796875 30.417969 C 236.882812 30.859375 236.957031 31.300781 237.019531 31.746094 C 235.367188 32.148438 233.6875 32.441406 231.914062 32.484375 C 231.621094 32.492188 231.324219 32.496094 231.027344 32.496094 C 226.695312 32.496094 222.257812 31.730469 217.9375 31.652344 C 216.421875 31.628906 214.878906 31.574219 213.335938 31.574219 C 211.539062 31.574219 209.734375 31.644531 207.976562 31.917969 C 213.226562 34.476562 219.082031 36.820312 224.683594 38.273438 C 228.289062 39.210938 232.527344 40.148438 236.75 41.207031 C 236.738281 41.246094 236.730469 41.289062 236.722656 41.328125 C 236.703125 41.421875 236.683594 41.519531 236.664062 41.617188 " fill-opacity="1" fill-rule="nonzero"/><path fill="#e28b4c" d="M 234.519531 45.1875 C 233.691406 45.1875 227.445312 44.734375 226.214844 44.429688 C 220.015625 42.898438 214.007812 41.554688 208.9375 37.601562 C 205.355469 34.808594 201.472656 34.191406 197.195312 32.996094 C 194.957031 32.371094 191.957031 31.8125 190.296875 30.054688 C 190.140625 29.890625 190.433594 29.710938 190.554688 29.65625 C 193.453125 28.335938 196.960938 28.230469 200.289062 28.230469 C 200.605469 28.230469 200.914062 28.230469 201.226562 28.230469 C 201.535156 28.234375 201.839844 28.234375 202.144531 28.234375 C 202.65625 28.234375 203.164062 28.230469 203.65625 28.222656 C 211.097656 28.078125 218.585938 26.691406 225.808594 24.957031 C 228.277344 24.363281 230.769531 23.71875 233.273438 23.144531 C 233.546875 23.597656 233.828125 24.0625 234.101562 24.511719 C 231.976562 25.167969 229.839844 25.835938 227.640625 26.363281 C 221.707031 27.789062 215.085938 27.851562 209.015625 28.515625 C 205.152344 28.9375 201.246094 28.714844 197.375 28.957031 C 196.574219 29.007812 193.777344 29.746094 192.902344 29.945312 C 194.960938 30.992188 195.144531 31.71875 197.027344 32.242188 C 200.128906 33.109375 203.632812 33.566406 206.554688 34.964844 C 208.910156 36.09375 210.570312 38.34375 212.894531 39.480469 C 214.488281 40.257812 216.207031 40.804688 217.890625 41.34375 C 221.050781 42.355469 228.902344 43.730469 232.148438 44.429688 L 234.582031 45.171875 C 234.636719 45.183594 234.613281 45.1875 234.519531 45.1875 " fill-opacity="1" fill-rule="nonzero"/><path fill="#824324" d="M 234.859375 24.277344 C 234.648438 23.8125 234.425781 23.355469 234.214844 22.929688 C 234.3125 22.90625 234.414062 22.886719 234.511719 22.863281 C 234.777344 23.300781 235.03125 23.730469 235.269531 24.148438 C 235.132812 24.191406 234.996094 24.234375 234.859375 24.277344 " fill-opacity="1" fill-rule="nonzero"/><path fill="#edaa74" d="M 234.101562 24.511719 C 233.828125 24.0625 233.546875 23.597656 233.273438 23.144531 C 233.585938 23.070312 233.902344 23 234.214844 22.929688 C 234.425781 23.355469 234.648438 23.8125 234.859375 24.277344 C 234.605469 24.355469 234.355469 24.433594 234.101562 24.511719 " fill-opacity="1" fill-rule="nonzero"/><path fill="#5a2612" d="M 183.992188 30.945312 C 183.273438 30.882812 182.640625 30.84375 182.199219 30.84375 C 182.101562 30.84375 182.011719 30.84375 181.9375 30.847656 C 181.925781 30.847656 181.914062 30.847656 181.90625 30.851562 C 182 30.84375 182.140625 30.835938 182.34375 30.828125 C 182.375 30.824219 182.410156 30.824219 182.449219 30.824219 C 182.953125 30.824219 183.921875 30.933594 183.992188 30.945312 M 181.6875 30.875 C 181.6875 30.875 181.683594 30.871094 181.730469 30.867188 C 181.714844 30.871094 181.699219 30.871094 181.6875 30.875 " fill-opacity="1" fill-rule="nonzero"/><path fill="#824324" d="M 180.136719 41.1875 C 180.101562 40.941406 180.070312 40.703125 180.042969 40.460938 C 180.527344 40.207031 181.003906 39.949219 181.492188 39.738281 C 181.523438 39.972656 181.558594 40.207031 181.59375 40.4375 C 181.109375 40.691406 180.628906 40.945312 180.136719 41.1875 " fill-opacity="1" fill-rule="nonzero"/><path fill="#e28b4c" d="M 210.773438 44.011719 C 209.960938 44.011719 208.996094 43.929688 208.152344 43.84375 C 207.308594 43.761719 206.582031 43.675781 206.234375 43.675781 C 206.230469 43.675781 206.230469 43.675781 206.226562 43.675781 C 205.316406 43.679688 204.402344 43.683594 203.492188 43.683594 C 202.121094 43.683594 200.753906 43.671875 199.386719 43.625 C 196.011719 43.5 192.960938 42.492188 189.769531 41.464844 C 188.207031 40.964844 185.652344 39.875 183.636719 39.875 C 183.300781 39.875 182.976562 39.90625 182.671875 39.976562 C 182.628906 39.78125 182.582031 39.589844 182.535156 39.394531 C 182.816406 39.335938 183.105469 39.300781 183.40625 39.300781 C 183.511719 39.300781 183.613281 39.304688 183.71875 39.3125 C 187.171875 39.578125 190.359375 41.144531 193.65625 42.082031 C 196.519531 42.894531 199.257812 42.988281 202.117188 42.988281 C 202.902344 42.988281 203.695312 42.984375 204.503906 42.980469 C 205.929688 42.980469 207.359375 42.976562 208.789062 42.957031 C 208.8125 42.957031 208.835938 42.953125 208.859375 42.953125 C 209.273438 42.953125 209.570312 43.007812 209.746094 43.058594 C 209.628906 43.003906 209.472656 42.925781 209.238281 42.785156 C 207.179688 41.550781 205.042969 40.328125 202.828125 39.402344 C 199.332031 37.945312 195.40625 38.476562 191.867188 37.222656 C 189.347656 36.328125 187.222656 34.425781 184.976562 32.980469 C 184.398438 32.609375 183.8125 32.226562 183.222656 31.851562 C 183.78125 31.78125 184.46875 31.734375 185.1875 31.699219 C 187.765625 33.347656 190.835938 35.265625 193.65625 35.964844 C 197.578125 36.933594 201.523438 37.757812 205.167969 39.597656 C 206.949219 40.5 210.605469 41.523438 211.929688 43.089844 C 212.058594 43.238281 212.609375 43.597656 212.496094 43.695312 C 212.222656 43.933594 211.570312 44.011719 210.773438 44.011719 M 184.042969 30.972656 C 183.199219 30.898438 182.480469 30.847656 182.054688 30.847656 C 182.011719 30.847656 181.972656 30.847656 181.9375 30.847656 C 182.011719 30.84375 182.101562 30.84375 182.199219 30.84375 C 182.640625 30.84375 183.273438 30.882812 183.992188 30.945312 C 183.996094 30.945312 183.996094 30.945312 183.996094 30.945312 C 184.011719 30.953125 184.027344 30.964844 184.042969 30.972656 " fill-opacity="1" fill-rule="nonzero"/><path fill="#edaa74" d="M 181.59375 40.4375 C 181.558594 40.207031 181.523438 39.972656 181.492188 39.738281 C 181.828125 39.59375 182.171875 39.472656 182.535156 39.394531 C 182.582031 39.589844 182.628906 39.78125 182.671875 39.976562 C 182.433594 40.03125 182.203125 40.113281 181.996094 40.222656 C 181.859375 40.292969 181.726562 40.363281 181.59375 40.4375 M 183.222656 31.851562 C 182.707031 31.519531 182.195312 31.191406 181.6875 30.875 C 181.699219 30.871094 181.714844 30.871094 181.730469 30.867188 C 181.761719 30.863281 181.8125 30.855469 181.90625 30.851562 C 181.914062 30.847656 181.925781 30.847656 181.9375 30.847656 C 181.972656 30.847656 182.011719 30.847656 182.054688 30.847656 C 182.480469 30.847656 183.199219 30.898438 184.042969 30.972656 C 184.410156 31.207031 184.792969 31.449219 185.1875 31.699219 C 184.46875 31.734375 183.78125 31.78125 183.222656 31.851562 " fill-opacity="1" fill-rule="nonzero"/><path fill="#5a2612" d="M 183.605469 24.191406 C 183.707031 23.992188 183.804688 23.792969 183.910156 23.59375 C 183.921875 23.59375 183.933594 23.59375 183.945312 23.59375 C 183.847656 23.789062 183.753906 23.988281 183.664062 24.1875 C 183.644531 24.191406 183.625 24.191406 183.605469 24.191406 " fill-opacity="1" fill-rule="nonzero"/><path fill="#e28b4c" d="M 204.667969 26.417969 C 202.265625 26.417969 199.914062 26.292969 197.878906 26.125 C 194.554688 25.847656 189.210938 24.148438 184.789062 24.148438 C 184.40625 24.148438 184.03125 24.160156 183.664062 24.1875 C 183.753906 23.988281 183.847656 23.789062 183.945312 23.59375 C 184.128906 23.585938 184.316406 23.582031 184.5 23.582031 C 185.355469 23.582031 186.222656 23.65625 187.089844 23.792969 C 192.261719 24.59375 197.28125 25.636719 202.378906 25.636719 C 204.921875 25.636719 207.484375 25.378906 210.09375 24.695312 C 216.023438 23.148438 224.34375 19.691406 230.429688 17.851562 C 230.542969 18.015625 230.660156 18.191406 230.773438 18.363281 C 225.4375 20.171875 220.089844 23.792969 214.679688 25.328125 C 211.8125 26.144531 208.191406 26.417969 204.667969 26.417969 " fill-opacity="1" fill-rule="nonzero"/><path fill="#edaa74" d="M 230.773438 18.363281 C 230.660156 18.191406 230.542969 18.015625 230.429688 17.851562 C 230.695312 17.769531 230.957031 17.691406 231.214844 17.617188 C 231.34375 17.847656 231.53125 18.121094 231.53125 18.121094 C 231.277344 18.199219 231.027344 18.28125 230.773438 18.363281 " fill-opacity="1" fill-rule="nonzero"/><path fill="#5a2612" d="M 186.160156 19.789062 C 186.648438 19.070312 187.101562 18.429688 187.710938 17.75 C 187.164062 18.40625 186.644531 19.085938 186.160156 19.789062 M 225.3125 12.328125 C 225.109375 12.199219 224.863281 12.0625 224.597656 11.917969 C 224.835938 12.015625 225.113281 12.15625 225.3125 12.328125 " fill-opacity="1" fill-rule="nonzero"/><path fill="#e28b4c" d="M 203.90625 21.824219 C 201.359375 21.824219 198.867188 21.316406 196.296875 21.160156 C 196.183594 21.15625 196.066406 21.15625 195.945312 21.15625 C 195.375 21.15625 194.714844 21.179688 194.007812 21.203125 C 193.300781 21.226562 192.542969 21.25 191.777344 21.25 C 189.617188 21.25 187.371094 21.0625 185.90625 20.15625 C 185.992188 20.03125 186.074219 19.910156 186.160156 19.789062 C 186.644531 19.085938 187.164062 18.40625 187.710938 17.75 C 187.714844 17.75 187.714844 17.746094 187.714844 17.746094 C 194.328125 14.730469 202.242188 12.542969 209.347656 12.542969 C 209.375 12.542969 209.398438 12.542969 209.425781 12.542969 C 209.480469 12.542969 209.53125 12.542969 209.585938 12.542969 C 214.582031 12.542969 219.570312 12.011719 224.542969 11.894531 C 224.558594 11.902344 224.578125 11.910156 224.597656 11.917969 C 224.863281 12.0625 225.109375 12.199219 225.3125 12.328125 C 222.917969 12.464844 220.554688 13.441406 218.953125 13.441406 C 218.929688 13.441406 218.902344 13.441406 218.878906 13.441406 C 216.332031 13.386719 213.726562 13.226562 211.136719 13.226562 C 209.457031 13.226562 207.789062 13.292969 206.144531 13.503906 C 200.203125 14.265625 194.15625 15.871094 188.648438 18.246094 C 188.320312 18.386719 186.550781 19.070312 187.890625 19.496094 C 188.941406 19.832031 188.996094 20.175781 190.09375 20.246094 C 192.210938 20.382812 194.324219 20.347656 196.445312 20.40625 C 196.46875 20.40625 196.488281 20.414062 196.511719 20.417969 C 196.527344 20.417969 196.546875 20.410156 196.566406 20.410156 C 196.566406 20.410156 196.570312 20.410156 196.570312 20.410156 C 199.109375 20.5625 201.484375 20.988281 203.898438 20.988281 C 205.28125 20.988281 206.675781 20.847656 208.117188 20.441406 C 210.722656 19.710938 213.304688 18.902344 215.882812 18.09375 C 216.566406 17.878906 220.566406 16.851562 224.015625 15.976562 C 224.339844 15.972656 224.671875 15.972656 225 15.972656 C 225.308594 15.972656 225.613281 15.972656 225.910156 15.976562 C 221.882812 17.125 215.902344 18.859375 214.308594 19.355469 C 211.589844 20.199219 208.707031 21.363281 205.875 21.710938 C 205.214844 21.789062 204.558594 21.824219 203.90625 21.824219 M 229.015625 14.726562 C 229.011719 14.722656 229.007812 14.722656 229.003906 14.71875 C 229.003906 14.71875 229.007812 14.71875 229.007812 14.71875 L 229.015625 14.726562 " fill-opacity="1" fill-rule="nonzero"/><path fill="#edaa74" d="M 225.910156 15.976562 C 225.613281 15.972656 225.308594 15.972656 225 15.972656 C 224.671875 15.972656 224.339844 15.972656 224.015625 15.976562 C 226.289062 15.398438 228.320312 14.886719 229.003906 14.71875 C 229.007812 14.722656 229.011719 14.722656 229.015625 14.726562 L 229.320312 15.019531 C 228.703125 15.183594 227.449219 15.539062 225.910156 15.976562 " fill-opacity="1" fill-rule="nonzero"/><path fill="#5a2612" d="M 192.578125 13.171875 C 192.777344 13.019531 192.855469 12.910156 193.191406 12.734375 C 192.984375 12.878906 192.78125 13.023438 192.578125 13.171875 M 216.339844 8.601562 C 216.171875 8.554688 216 8.511719 215.832031 8.472656 C 216.128906 8.503906 216.226562 8.550781 216.339844 8.601562 " fill-opacity="1" fill-rule="nonzero"/><path fill="#e28b4c" d="M 192.480469 13.246094 C 192.515625 13.21875 192.546875 13.195312 192.578125 13.171875 C 192.78125 13.023438 192.984375 12.878906 193.191406 12.734375 C 193.191406 12.734375 193.195312 12.730469 193.195312 12.730469 C 198.429688 11.476562 205.710938 9.910156 211.078125 9.105469 C 211.484375 9.046875 215.421875 8.527344 215.828125 8.472656 C 215.832031 8.472656 215.832031 8.472656 215.832031 8.472656 C 216 8.511719 216.171875 8.554688 216.339844 8.601562 C 216.4375 8.640625 216.542969 8.683594 216.785156 8.71875 C 216.515625 8.75 213.371094 9.203125 213.105469 9.234375 C 206.667969 10.0625 198.753906 11.667969 192.480469 13.246094 " fill-opacity="1" fill-rule="nonzero"/><path fill="#e28b4c" d="M 203.921875 18.726562 C 201.503906 18.726562 199.09375 18.382812 196.628906 18.269531 C 196.375 18.257812 196.308594 18.15625 196.339844 18.039062 C 196.304688 17.933594 196.367188 17.804688 196.597656 17.699219 C 200.496094 15.925781 204.578125 16.308594 208.726562 15.890625 C 211.402344 15.621094 214.234375 15.128906 216.992188 15.128906 C 217.785156 15.128906 218.574219 15.167969 219.351562 15.269531 C 219.941406 15.34375 219.527344 15.902344 219.117188 15.910156 C 215.3125 15.976562 211.507812 17.539062 207.8125 18.34375 C 206.507812 18.628906 205.214844 18.726562 203.921875 18.726562 M 214.28125 15.992188 C 214.230469 15.996094 214.179688 16 214.125 16.003906 C 212.289062 16.160156 210.457031 16.351562 208.621094 16.53125 C 205.128906 16.875 201.640625 16.597656 198.308594 17.699219 C 200.148438 17.800781 201.910156 17.921875 203.667969 17.921875 C 205.699219 17.921875 207.726562 17.761719 209.863281 17.214844 C 211.289062 16.855469 212.777344 16.382812 214.28125 15.992188 " fill-opacity="1" fill-rule="nonzero"/><path fill="#612e18" d="M 237.644531 44.054688 L 234.109375 43.105469 L 230.199219 43.324219 L 227.234375 43.046875 L 220.375 43.710938 L 227.0625 44.25 L 232.179688 43.949219 L 237.644531 44.054688 " fill-opacity="1" fill-rule="nonzero"/><path fill="#ffcc9c" d="M 237.644531 44.054688 L 234.792969 42.132812 L 232.773438 42.3125 L 229.851562 42.453125 L 227.570312 41.949219 L 225.316406 42.472656 L 222.300781 42.597656 L 220.375 43.710938 L 227.234375 43.046875 L 230.199219 43.324219 L 234.109375 43.109375 L 237.644531 44.054688 " fill-opacity="1" fill-rule="nonzero"/><path fill="#612e18" d="M 204.085938 21.773438 L 201.710938 20.863281 L 199.0625 21.027344 L 197.066406 20.746094 L 192.421875 21.292969 L 196.933594 21.855469 L 200.394531 21.628906 L 204.085938 21.773438 " fill-opacity="1" fill-rule="nonzero"/><path fill="#ffcc9c" d="M 204.085938 21.773438 L 202.179688 19.972656 L 200.816406 20.121094 L 198.835938 20.222656 L 197.308594 19.734375 L 195.777344 20.199219 L 193.738281 20.285156 L 192.421875 21.292969 L 197.066406 20.746094 L 199.0625 21.027344 L 201.710938 20.867188 L 204.085938 21.773438 " fill-opacity="1" fill-rule="nonzero"/><g fill="#612e18" fill-opacity="1"><g transform="translate(47.165663, 45.749995)"><g><path d="M 8.609375 -18.578125 C 10.390625 -18.578125 12.15625 -18.25 13.90625 -17.59375 L 13 -13 L 12.21875 -12.65625 C 11.425781 -13.144531 10.644531 -13.53125 9.875 -13.8125 C 9.101562 -14.101562 8.484375 -14.25 8.015625 -14.25 C 7.578125 -14.25 7.226562 -14.160156 6.96875 -13.984375 C 6.71875 -13.816406 6.59375 -13.59375 6.59375 -13.3125 C 6.59375 -12.957031 6.785156 -12.648438 7.171875 -12.390625 C 7.554688 -12.140625 8.203125 -11.804688 9.109375 -11.390625 C 10.160156 -10.921875 11.023438 -10.484375 11.703125 -10.078125 C 12.378906 -9.671875 12.972656 -9.113281 13.484375 -8.40625 C 13.992188 -7.707031 14.25 -6.84375 14.25 -5.8125 C 14.25 -4.664062 13.929688 -3.625 13.296875 -2.6875 C 12.671875 -1.757812 11.773438 -1.019531 10.609375 -0.46875 C 9.441406 0.0703125 8.085938 0.34375 6.546875 0.34375 C 4.628906 0.34375 2.613281 -0.015625 0.5 -0.734375 L 1.328125 -5.640625 L 1.890625 -5.984375 C 2.753906 -5.316406 3.675781 -4.789062 4.65625 -4.40625 C 5.644531 -4.019531 6.472656 -3.828125 7.140625 -3.828125 C 7.660156 -3.828125 8.035156 -3.914062 8.265625 -4.09375 C 8.503906 -4.28125 8.625 -4.503906 8.625 -4.765625 C 8.625 -5.160156 8.421875 -5.492188 8.015625 -5.765625 C 7.617188 -6.035156 6.96875 -6.367188 6.0625 -6.765625 C 5.03125 -7.222656 4.179688 -7.648438 3.515625 -8.046875 C 2.847656 -8.453125 2.269531 -9.007812 1.78125 -9.71875 C 1.289062 -10.425781 1.046875 -11.296875 1.046875 -12.328125 C 1.046875 -13.503906 1.363281 -14.566406 2 -15.515625 C 2.644531 -16.472656 3.539062 -17.222656 4.6875 -17.765625 C 5.832031 -18.304688 7.140625 -18.578125 8.609375 -18.578125 Z M 8.609375 -18.578125 "/></g></g></g><g fill="#612e18" fill-opacity="1"><g transform="translate(62.058957, 45.749995)"><g><path d="M 9.921875 -18.5625 C 11.546875 -18.5625 13.070312 -18.304688 14.5 -17.796875 L 13.53125 -13.3125 L 13.171875 -13.09375 C 12.679688 -13.351562 12.113281 -13.5625 11.46875 -13.71875 C 10.832031 -13.875 10.242188 -13.953125 9.703125 -13.953125 C 8.554688 -13.953125 7.726562 -13.617188 7.21875 -12.953125 C 6.707031 -12.285156 6.453125 -11.175781 6.453125 -9.625 C 6.453125 -7.789062 6.742188 -6.457031 7.328125 -5.625 C 7.910156 -4.789062 8.820312 -4.375 10.0625 -4.375 C 10.59375 -4.375 11.179688 -4.425781 11.828125 -4.53125 C 12.472656 -4.632812 13.039062 -4.78125 13.53125 -4.96875 L 13.984375 -4.6875 L 13.53125 -0.21875 C 12.40625 0.132812 11.101562 0.3125 9.625 0.3125 C 6.59375 0.3125 4.3125 -0.472656 2.78125 -2.046875 C 1.25 -3.628906 0.484375 -5.9375 0.484375 -8.96875 C 0.484375 -12.007812 1.304688 -14.367188 2.953125 -16.046875 C 4.597656 -17.722656 6.921875 -18.5625 9.921875 -18.5625 Z M 9.921875 -18.5625 "/></g></g></g><g fill="#612e18" fill-opacity="1"><g transform="translate(76.557361, 45.749995)"><g><path d="M 9.625 -18.578125 C 12.269531 -18.578125 14.316406 -17.789062 15.765625 -16.21875 C 17.210938 -14.65625 17.9375 -12.445312 17.9375 -9.59375 C 17.9375 -6.425781 17.140625 -3.976562 15.546875 -2.25 C 13.960938 -0.519531 11.710938 0.34375 8.796875 0.34375 C 6.148438 0.34375 4.101562 -0.445312 2.65625 -2.03125 C 1.207031 -3.625 0.484375 -5.878906 0.484375 -8.796875 C 0.484375 -11.921875 1.273438 -14.332031 2.859375 -16.03125 C 4.453125 -17.726562 6.707031 -18.578125 9.625 -18.578125 Z M 9.109375 -14.078125 C 8.378906 -14.078125 7.820312 -13.945312 7.4375 -13.6875 C 7.0625 -13.4375 6.796875 -12.988281 6.640625 -12.34375 C 6.484375 -11.707031 6.40625 -10.78125 6.40625 -9.5625 C 6.40625 -8 6.488281 -6.8125 6.65625 -6 C 6.820312 -5.195312 7.109375 -4.632812 7.515625 -4.3125 C 7.921875 -3.988281 8.519531 -3.828125 9.3125 -3.828125 C 10.039062 -3.828125 10.59375 -3.953125 10.96875 -4.203125 C 11.34375 -4.460938 11.609375 -4.914062 11.765625 -5.5625 C 11.929688 -6.21875 12.015625 -7.15625 12.015625 -8.375 C 12.015625 -9.914062 11.925781 -11.085938 11.75 -11.890625 C 11.582031 -12.703125 11.296875 -13.269531 10.890625 -13.59375 C 10.492188 -13.914062 9.898438 -14.078125 9.109375 -14.078125 Z M 9.109375 -14.078125 "/></g></g></g><g fill="#612e18" fill-opacity="1"><g transform="translate(94.976534, 45.749995)"><g><path d="M 13.703125 -7.1875 C 15.054688 -5.082031 16.410156 -3.128906 17.765625 -1.328125 L 17.6875 -0.703125 C 15.769531 -0.117188 13.878906 0.226562 12.015625 0.34375 L 11.484375 -0.109375 L 11.140625 -0.8125 C 10.992188 -1.113281 10.691406 -1.75 10.234375 -2.71875 C 9.785156 -3.6875 9.390625 -4.59375 9.046875 -5.4375 L 7.15625 -5.4375 L 7.359375 0 L 1.6875 0 L 1.96875 -5.359375 L 1.6875 -18.25 L 10.34375 -18.28125 C 12.394531 -18.28125 13.972656 -17.796875 15.078125 -16.828125 C 16.191406 -15.859375 16.75 -14.460938 16.75 -12.640625 C 16.75 -11.566406 16.476562 -10.554688 15.9375 -9.609375 C 15.40625 -8.671875 14.660156 -7.863281 13.703125 -7.1875 Z M 10.796875 -12.078125 C 10.796875 -12.828125 10.601562 -13.382812 10.21875 -13.75 C 9.832031 -14.113281 9.207031 -14.316406 8.34375 -14.359375 L 7.328125 -14.265625 L 7.21875 -9.5625 L 9.28125 -9.453125 C 9.800781 -9.691406 10.179688 -10.019531 10.421875 -10.4375 C 10.671875 -10.851562 10.796875 -11.398438 10.796875 -12.078125 Z M 10.796875 -12.078125 "/></g></g></g><g fill="#612e18" fill-opacity="1"><g transform="translate(112.77515, 45.749995)"><g><path d="M 14.578125 -4.515625 L 14.890625 -4.125 L 14.546875 0 L 1.6875 0 L 1.96875 -5.359375 L 1.6875 -18.25 L 14.78125 -18.25 L 15.09375 -17.859375 L 14.71875 -13.734375 L 10.234375 -13.90625 L 7.328125 -13.90625 L 7.28125 -11.34375 L 10.0625 -11.34375 L 13 -11.421875 L 13.3125 -11.03125 L 12.96875 -6.90625 L 9.703125 -7 L 7.15625 -7 L 7.140625 -5.921875 L 7.1875 -4.34375 L 9.90625 -4.34375 Z M 14.578125 -4.515625 "/></g></g></g></svg>